G04*
G04 #@! TF.GenerationSoftware,Altium Limited,Altium Designer,19.1.5 (86)*
G04*
G04 Layer_Physical_Order=1*
G04 Layer_Color=255*
%FSLAX25Y25*%
%MOIN*%
G70*
G01*
G75*
%ADD13R,0.05118X0.05906*%
%ADD14R,0.05906X0.05118*%
%ADD15R,0.05118X0.07087*%
%ADD33C,0.06400*%
%ADD34C,0.02500*%
%ADD35C,0.02000*%
%ADD36C,0.03500*%
%ADD37C,0.05000*%
%ADD38C,0.06000*%
%ADD39C,0.10000*%
%ADD40C,0.19685*%
%ADD41C,0.05906*%
%ADD42R,0.05906X0.05906*%
%ADD43R,0.09843X0.06299*%
%ADD44O,0.09843X0.06299*%
%ADD45R,0.05906X0.05906*%
%ADD46C,0.06693*%
%ADD47R,0.06693X0.06693*%
%ADD48C,0.09900*%
%ADD49C,0.07900*%
%ADD50R,0.19685X0.19685*%
%ADD51R,0.19685X0.19685*%
%ADD52C,0.35433*%
%ADD53C,0.06000*%
G36*
X263833Y206693D02*
X265289Y206089D01*
X266600Y205214D01*
X267714Y204100D01*
X268589Y202789D01*
X269193Y201333D01*
X269500Y199788D01*
Y199000D01*
Y175000D01*
X269524Y174510D01*
X269715Y173549D01*
X270090Y172643D01*
X270635Y171828D01*
X271328Y171135D01*
X272143Y170590D01*
X273049Y170215D01*
X274010Y170024D01*
X274500Y170000D01*
X279699D01*
X280066Y169848D01*
X280348Y169567D01*
X280500Y169199D01*
Y169000D01*
Y3500D01*
Y3272D01*
X280343Y3092D01*
X279842Y3280D01*
Y24342D01*
X265563D01*
X265317Y24843D01*
X265824Y25504D01*
X266323Y26708D01*
X266493Y28000D01*
X266323Y29292D01*
X265824Y30496D01*
X265030Y31530D01*
X263996Y32324D01*
X262792Y32823D01*
X261500Y32993D01*
X260208Y32823D01*
X259004Y32324D01*
X257970Y31530D01*
X257176Y30496D01*
X256677Y29292D01*
X256507Y28000D01*
X256677Y26708D01*
X257176Y25504D01*
X257970Y24470D01*
X258157Y24326D01*
Y2657D01*
X279220D01*
X279408Y2158D01*
X279228Y2000D01*
X207221D01*
X207021Y2500D01*
X228942Y24421D01*
X229384Y25083D01*
X229468Y25507D01*
X229988Y25558D01*
X230011Y25504D01*
X230804Y24470D01*
X231838Y23676D01*
X233042Y23177D01*
X234335Y23007D01*
X235627Y23177D01*
X236831Y23676D01*
X237865Y24470D01*
X238658Y25504D01*
X239157Y26708D01*
X239327Y28000D01*
X239157Y29292D01*
X238658Y30496D01*
X237865Y31530D01*
X236831Y32324D01*
X235627Y32823D01*
X234335Y32993D01*
X233042Y32823D01*
X231838Y32324D01*
X230804Y31530D01*
X230039Y30533D01*
X230015Y30533D01*
X229539Y30897D01*
Y32023D01*
X230353Y32647D01*
X230994Y33483D01*
X231397Y34456D01*
X231535Y35500D01*
X231397Y36544D01*
X230994Y37517D01*
X230353Y38353D01*
X229517Y38994D01*
X228544Y39397D01*
X227500Y39535D01*
X226456Y39397D01*
X225483Y38994D01*
X224647Y38353D01*
X224339Y37951D01*
X223839Y38121D01*
Y44054D01*
X224215Y44384D01*
X224500Y44346D01*
X225544Y44484D01*
X226517Y44887D01*
X227353Y45528D01*
X227994Y46364D01*
X228397Y47337D01*
X228535Y48381D01*
X228397Y49425D01*
X227994Y50398D01*
X227353Y51234D01*
X226517Y51875D01*
X225544Y52278D01*
X224500Y52416D01*
X223456Y52278D01*
X222483Y51875D01*
X221647Y51234D01*
X221006Y50398D01*
X220603Y49425D01*
X220465Y48381D01*
X220599Y47364D01*
X220358Y47123D01*
X219916Y46461D01*
X219839Y46075D01*
X219339Y46124D01*
Y56435D01*
X219788Y56656D01*
X219983Y56506D01*
X220956Y56103D01*
X222000Y55966D01*
X223044Y56103D01*
X224017Y56506D01*
X224853Y57147D01*
X225494Y57983D01*
X225897Y58956D01*
X226034Y60000D01*
X225897Y61044D01*
X225494Y62017D01*
X224853Y62853D01*
X224017Y63494D01*
X223044Y63897D01*
X222000Y64034D01*
X220956Y63897D01*
X219983Y63494D01*
X219788Y63344D01*
X219339Y63565D01*
Y68621D01*
X227288Y76569D01*
X227544Y76603D01*
X228517Y77006D01*
X229353Y77647D01*
X229994Y78483D01*
X230397Y79456D01*
X230535Y80500D01*
X230397Y81544D01*
X229994Y82517D01*
X229353Y83353D01*
X228517Y83994D01*
X227544Y84397D01*
X226500Y84535D01*
X225456Y84397D01*
X224483Y83994D01*
X223647Y83353D01*
X223006Y82517D01*
X222603Y81544D01*
X222465Y80500D01*
X222603Y79456D01*
X223006Y78483D01*
X223192Y78241D01*
X216561Y71610D01*
X216071Y71708D01*
X215953Y71993D01*
X215319Y72819D01*
X214493Y73453D01*
X213532Y73851D01*
X212500Y73987D01*
X211468Y73851D01*
X210507Y73453D01*
X209681Y72819D01*
X209047Y71993D01*
X208649Y71032D01*
X208513Y70000D01*
X208649Y68968D01*
X209047Y68007D01*
X209681Y67181D01*
X210507Y66547D01*
X211468Y66149D01*
X212500Y66013D01*
X213532Y66149D01*
X214493Y66547D01*
X214812Y66792D01*
X215261Y66571D01*
Y63429D01*
X214812Y63208D01*
X214493Y63453D01*
X213532Y63851D01*
X212500Y63987D01*
X211468Y63851D01*
X210507Y63453D01*
X209681Y62819D01*
X209047Y61993D01*
X208649Y61032D01*
X208513Y60000D01*
X208649Y58968D01*
X209047Y58007D01*
X209681Y57181D01*
X210507Y56547D01*
X211468Y56149D01*
X212500Y56013D01*
X213532Y56149D01*
X214493Y56547D01*
X214812Y56792D01*
X215261Y56571D01*
Y53429D01*
X214812Y53208D01*
X214500Y53448D01*
Y50000D01*
Y46552D01*
X214812Y46792D01*
X215261Y46571D01*
Y43429D01*
X214812Y43208D01*
X214493Y43453D01*
X213532Y43851D01*
X212500Y43987D01*
X211468Y43851D01*
X210507Y43453D01*
X209681Y42819D01*
X209047Y41993D01*
X208649Y41032D01*
X208513Y40000D01*
X208649Y38968D01*
X209047Y38007D01*
X209681Y37181D01*
X210507Y36547D01*
X211468Y36149D01*
X212500Y36013D01*
X213532Y36149D01*
X214493Y36547D01*
X214812Y36792D01*
X215261Y36571D01*
Y33953D01*
X208547D01*
Y26047D01*
X215261D01*
Y24145D01*
X206355Y15239D01*
X132050D01*
X131855Y15739D01*
X131879Y15761D01*
X182800D01*
X183580Y15916D01*
X184242Y16358D01*
X189789Y21905D01*
X190231Y22567D01*
X190386Y23347D01*
Y26458D01*
X190835Y26679D01*
X191007Y26547D01*
X191968Y26149D01*
X193000Y26013D01*
X194032Y26149D01*
X194993Y26547D01*
X195819Y27181D01*
X196453Y28007D01*
X196851Y28968D01*
X196987Y30000D01*
X196900Y30656D01*
X205894Y39650D01*
X206391Y40394D01*
X206566Y41272D01*
Y47718D01*
X207125Y48147D01*
X207766Y48983D01*
X208052Y49673D01*
X208565Y49606D01*
X208649Y48968D01*
X209047Y48007D01*
X209681Y47181D01*
X210500Y46552D01*
Y50000D01*
Y53448D01*
X209681Y52819D01*
X209047Y51993D01*
X208769Y51321D01*
X208255Y51388D01*
X208169Y52044D01*
X207766Y53017D01*
X207125Y53853D01*
X206289Y54494D01*
X205316Y54897D01*
X204272Y55035D01*
X203228Y54897D01*
X202255Y54494D01*
X201419Y53853D01*
X200778Y53017D01*
X200375Y52044D01*
X200237Y51000D01*
X200375Y49956D01*
X200778Y48983D01*
X201419Y48147D01*
X201978Y47718D01*
Y42222D01*
X193656Y33900D01*
X193000Y33987D01*
X191968Y33851D01*
X191007Y33453D01*
X190835Y33321D01*
X190386Y33542D01*
Y36458D01*
X190835Y36679D01*
X191000Y36552D01*
Y40000D01*
Y43448D01*
X190835Y43321D01*
X190386Y43542D01*
Y46458D01*
X190835Y46679D01*
X191007Y46547D01*
X191968Y46149D01*
X193000Y46013D01*
X194032Y46149D01*
X194993Y46547D01*
X195819Y47181D01*
X196453Y48007D01*
X196851Y48968D01*
X196987Y50000D01*
X196851Y51032D01*
X196453Y51993D01*
X195819Y52819D01*
X194993Y53453D01*
X194032Y53851D01*
X193000Y53987D01*
X191968Y53851D01*
X191007Y53453D01*
X190835Y53321D01*
X190386Y53542D01*
Y56458D01*
X190835Y56679D01*
X191007Y56547D01*
X191968Y56149D01*
X193000Y56013D01*
X194032Y56149D01*
X194993Y56547D01*
X195819Y57181D01*
X196453Y58007D01*
X196851Y58968D01*
X196987Y60000D01*
X196851Y61032D01*
X196453Y61993D01*
X195819Y62819D01*
X195617Y62974D01*
X195757Y63497D01*
X196369Y63905D01*
X198491Y66027D01*
X199019Y65847D01*
X199103Y65206D01*
X199506Y64233D01*
X200147Y63397D01*
X200983Y62756D01*
X201956Y62353D01*
X203000Y62216D01*
X204044Y62353D01*
X205017Y62756D01*
X205853Y63397D01*
X206494Y64233D01*
X206897Y65206D01*
X207034Y66250D01*
X206897Y67294D01*
X206494Y68267D01*
X206239Y68599D01*
Y81300D01*
X206084Y82080D01*
X205642Y82742D01*
X205359Y83025D01*
X205611Y83480D01*
X206544Y83603D01*
X207517Y84006D01*
X208353Y84647D01*
X208994Y85483D01*
X209397Y86456D01*
X209434Y86740D01*
X209968Y86961D01*
X210507Y86547D01*
X211468Y86149D01*
X212500Y86013D01*
X213532Y86149D01*
X214493Y86547D01*
X215319Y87181D01*
X215953Y88007D01*
X216351Y88968D01*
X216487Y90000D01*
X216351Y91032D01*
X215953Y91993D01*
X215319Y92819D01*
X214493Y93453D01*
X213532Y93851D01*
X212500Y93987D01*
X211468Y93851D01*
X210507Y93453D01*
X209681Y92819D01*
X209047Y91993D01*
X208649Y91032D01*
X208616Y90781D01*
X208083Y90560D01*
X207517Y90994D01*
X206544Y91397D01*
X205779Y91498D01*
Y92002D01*
X206544Y92103D01*
X207517Y92506D01*
X208353Y93147D01*
X208994Y93983D01*
X209397Y94956D01*
X209535Y96000D01*
X209437Y96737D01*
X209906Y97008D01*
X210507Y96547D01*
X211468Y96149D01*
X212500Y96013D01*
X213532Y96149D01*
X214493Y96547D01*
X215319Y97181D01*
X215953Y98007D01*
X216351Y98968D01*
X216487Y100000D01*
X216351Y101032D01*
X215953Y101993D01*
X215319Y102819D01*
X214929Y103118D01*
Y103618D01*
X215353Y103943D01*
X215994Y104779D01*
X216397Y105752D01*
X216534Y106796D01*
X216397Y107840D01*
X215994Y108813D01*
X215353Y109649D01*
X214517Y110290D01*
X213544Y110693D01*
X212500Y110831D01*
X211722Y110728D01*
X210945Y111505D01*
Y111594D01*
X210790Y112374D01*
X210348Y113036D01*
X208442Y114942D01*
X207780Y115384D01*
X207000Y115539D01*
X191000D01*
X190220Y115384D01*
X189558Y114942D01*
X183558Y108942D01*
X183116Y108280D01*
X182961Y107500D01*
Y90470D01*
X179058Y86567D01*
X178616Y85905D01*
X178461Y85125D01*
Y83477D01*
X177647Y82853D01*
X177006Y82017D01*
X176603Y81044D01*
X176465Y80000D01*
X176603Y78956D01*
X177006Y77983D01*
X177647Y77147D01*
X178483Y76506D01*
X179456Y76103D01*
X179461Y76102D01*
Y70977D01*
X178647Y70353D01*
X178006Y69517D01*
X177603Y68544D01*
X177465Y67500D01*
X177603Y66456D01*
X178006Y65483D01*
X178647Y64647D01*
X179483Y64006D01*
X180456Y63603D01*
X181500Y63465D01*
X182544Y63603D01*
X183517Y64006D01*
X184353Y64647D01*
X184994Y65483D01*
X185397Y66456D01*
X185535Y67500D01*
X185397Y68544D01*
X184994Y69517D01*
X184353Y70353D01*
X183539Y70977D01*
Y77390D01*
X183994Y77983D01*
X184397Y78956D01*
X184535Y80000D01*
X184397Y81044D01*
X183994Y82017D01*
X183353Y82853D01*
X182539Y83477D01*
Y84280D01*
X186442Y88183D01*
X186884Y88845D01*
X187039Y89625D01*
Y106655D01*
X191845Y111461D01*
X206155D01*
X206867Y110749D01*
Y110660D01*
X207022Y109880D01*
X207464Y109219D01*
X208673Y108010D01*
X208603Y107840D01*
X208466Y106796D01*
X208603Y105752D01*
X209006Y104779D01*
X209647Y103943D01*
X210071Y103618D01*
Y103118D01*
X209681Y102819D01*
X209047Y101993D01*
X208649Y101032D01*
X208513Y100000D01*
X208607Y99288D01*
X208138Y99018D01*
X207517Y99494D01*
X206544Y99897D01*
X205500Y100034D01*
X204456Y99897D01*
X203667Y99570D01*
X203198Y99884D01*
X202418Y100039D01*
X199172D01*
X198391Y99884D01*
X197730Y99442D01*
X197730Y99442D01*
X197415Y99127D01*
X196953Y99318D01*
Y103953D01*
X189047D01*
Y96047D01*
X195961D01*
Y93341D01*
X195461Y93094D01*
X194993Y93453D01*
X194032Y93851D01*
X193000Y93987D01*
X191968Y93851D01*
X191007Y93453D01*
X190181Y92819D01*
X189547Y91993D01*
X189149Y91032D01*
X189013Y90000D01*
X189149Y88968D01*
X189547Y88007D01*
X190181Y87181D01*
X191007Y86547D01*
X191968Y86149D01*
X193000Y86013D01*
X194032Y86149D01*
X194993Y86547D01*
X195461Y86906D01*
X195961Y86659D01*
Y83341D01*
X195461Y83094D01*
X194993Y83453D01*
X194032Y83851D01*
X193000Y83987D01*
X191968Y83851D01*
X191007Y83453D01*
X190181Y82819D01*
X189547Y81993D01*
X189149Y81032D01*
X189013Y80000D01*
X189149Y78968D01*
X189547Y78007D01*
X190181Y77181D01*
X191007Y76547D01*
X191968Y76149D01*
X193000Y76013D01*
X194032Y76149D01*
X194993Y76547D01*
X195819Y77181D01*
X196453Y78007D01*
X196851Y78968D01*
X196978Y79931D01*
X197410Y80206D01*
X199461Y78155D01*
Y72765D01*
X197353Y70657D01*
X196879Y70817D01*
X196851Y71032D01*
X196453Y71993D01*
X195819Y72819D01*
X194993Y73453D01*
X194032Y73851D01*
X193000Y73987D01*
X191968Y73851D01*
X191007Y73453D01*
X190181Y72819D01*
X189547Y71993D01*
X189149Y71032D01*
X189013Y70000D01*
X189149Y68968D01*
X189547Y68007D01*
X189778Y67706D01*
X189632Y67318D01*
X189531Y67207D01*
X188905Y66789D01*
X186905Y64789D01*
X186463Y64128D01*
X186308Y63347D01*
Y24192D01*
X181955Y19839D01*
X163453D01*
Y21154D01*
X159500D01*
X155547D01*
Y19839D01*
X146565D01*
X146344Y20288D01*
X146494Y20483D01*
X146501Y20500D01*
X139499D01*
X139506Y20483D01*
X139656Y20288D01*
X139435Y19839D01*
X133990D01*
X133897Y20544D01*
X133494Y21517D01*
X132853Y22353D01*
X132017Y22994D01*
X131044Y23397D01*
X130000Y23535D01*
X128956Y23397D01*
X127983Y22994D01*
X127147Y22353D01*
X126506Y21517D01*
X126103Y20544D01*
X125965Y19500D01*
X126103Y18456D01*
X126506Y17483D01*
X127147Y16647D01*
X127983Y16006D01*
X128627Y15739D01*
X128527Y15239D01*
X126645D01*
X119039Y22845D01*
Y32023D01*
X119853Y32647D01*
X120494Y33483D01*
X120897Y34456D01*
X121035Y35500D01*
X120897Y36544D01*
X120494Y37517D01*
X119853Y38353D01*
X119017Y38994D01*
X118044Y39397D01*
X117000Y39535D01*
X115956Y39397D01*
X114983Y38994D01*
X114147Y38353D01*
X113506Y37517D01*
X113103Y36544D01*
X112966Y35500D01*
X113103Y34456D01*
X113506Y33483D01*
X114147Y32647D01*
X114961Y32023D01*
Y22000D01*
X115116Y21220D01*
X115558Y20558D01*
X123715Y12401D01*
X123661Y11748D01*
X123147Y11353D01*
X122506Y10517D01*
X122103Y9544D01*
X121966Y8500D01*
X122103Y7456D01*
X122506Y6483D01*
X122656Y6288D01*
X122435Y5839D01*
X114545D01*
X112039Y8345D01*
Y53699D01*
X112539Y53868D01*
X112709Y53647D01*
X113544Y53006D01*
X114518Y52603D01*
X115562Y52465D01*
X116606Y52603D01*
X117579Y53006D01*
X118415Y53647D01*
X119056Y54483D01*
X119459Y55456D01*
X119596Y56500D01*
X119459Y57544D01*
X119056Y58517D01*
X118415Y59353D01*
X117601Y59977D01*
Y93364D01*
X119026Y94789D01*
X119474Y94568D01*
X119465Y94500D01*
X119603Y93456D01*
X120006Y92483D01*
X120647Y91647D01*
X121206Y91218D01*
Y85794D01*
X120483Y85494D01*
X119647Y84853D01*
X119006Y84017D01*
X118603Y83044D01*
X118465Y82000D01*
X118603Y80956D01*
X119006Y79983D01*
X119647Y79147D01*
X120483Y78506D01*
X121456Y78103D01*
X122500Y77965D01*
X123544Y78103D01*
X124517Y78506D01*
X125353Y79147D01*
X125994Y79983D01*
X126397Y80956D01*
X126534Y82000D01*
X126397Y83044D01*
X125994Y84017D01*
X125794Y84278D01*
Y91218D01*
X126353Y91647D01*
X126994Y92483D01*
X127397Y93456D01*
X127534Y94500D01*
X127397Y95544D01*
X126994Y96517D01*
X126844Y96712D01*
X127065Y97161D01*
X168705D01*
X170849Y95017D01*
X170715Y94000D01*
X170853Y92956D01*
X171256Y91983D01*
X171897Y91147D01*
X172733Y90506D01*
X173706Y90103D01*
X174750Y89965D01*
X175794Y90103D01*
X176767Y90506D01*
X177603Y91147D01*
X178244Y91983D01*
X178647Y92956D01*
X178785Y94000D01*
X178647Y95044D01*
X178244Y96017D01*
X177603Y96853D01*
X176767Y97494D01*
X175794Y97897D01*
X174750Y98035D01*
X173733Y97901D01*
X170992Y100642D01*
X170330Y101084D01*
X169550Y101239D01*
X154570D01*
X154423Y101739D01*
X154994Y102483D01*
X155001Y102500D01*
X147999D01*
X148006Y102483D01*
X148576Y101739D01*
X148430Y101239D01*
X126276D01*
X126085Y101701D01*
X128038Y103654D01*
X128147Y103647D01*
X128983Y103006D01*
X129956Y102603D01*
X131000Y102465D01*
X132044Y102603D01*
X133017Y103006D01*
X133853Y103647D01*
X134494Y104483D01*
X134897Y105456D01*
X135035Y106500D01*
X134897Y107544D01*
X134494Y108517D01*
X133853Y109353D01*
X133017Y109994D01*
X132044Y110397D01*
X131000Y110535D01*
X129956Y110397D01*
X128983Y109994D01*
X128147Y109353D01*
X127506Y108517D01*
X127471Y108434D01*
X127220Y108384D01*
X126558Y107942D01*
X125990Y107373D01*
X125462Y107553D01*
X125397Y108044D01*
X124994Y109017D01*
X124353Y109853D01*
X123517Y110494D01*
X123500Y110501D01*
Y107000D01*
X121500D01*
Y105000D01*
X117999D01*
X118006Y104983D01*
X118156Y104788D01*
X117935Y104339D01*
X115898D01*
X112839Y107398D01*
Y114349D01*
X113339Y114559D01*
X114000Y114052D01*
Y117500D01*
X116000D01*
Y119500D01*
X119448D01*
X118819Y120319D01*
X117993Y120953D01*
X117032Y121351D01*
X116817Y121379D01*
X116657Y121853D01*
X118942Y124138D01*
X119384Y124800D01*
X119539Y125580D01*
Y127523D01*
X120353Y128147D01*
X120994Y128983D01*
X121397Y129956D01*
X121535Y131000D01*
X121397Y132044D01*
X120994Y133017D01*
X120353Y133853D01*
X119517Y134494D01*
X118544Y134897D01*
X117500Y135035D01*
X116456Y134897D01*
X115483Y134494D01*
X114647Y133853D01*
X114006Y133017D01*
X113603Y132044D01*
X113465Y131000D01*
X113566Y130238D01*
X113097Y129968D01*
X112867Y130144D01*
X111894Y130547D01*
X110850Y130684D01*
X109806Y130547D01*
X108833Y130144D01*
X107997Y129503D01*
X107356Y128667D01*
X106953Y127694D01*
X106816Y126650D01*
X106953Y125606D01*
X107356Y124633D01*
X107997Y123797D01*
X108272Y123586D01*
X108305Y123087D01*
X98261Y113043D01*
X95441D01*
Y103957D01*
X102559D01*
Y111574D01*
X108299Y117313D01*
X108761Y117122D01*
Y106553D01*
X108916Y105773D01*
X109358Y105111D01*
X113611Y100858D01*
X114273Y100416D01*
X115053Y100261D01*
X118077D01*
X118268Y99799D01*
X114120Y95651D01*
X113678Y94989D01*
X113523Y94209D01*
Y65801D01*
X113023Y65632D01*
X112853Y65853D01*
X112017Y66494D01*
X111044Y66897D01*
X110000Y67035D01*
X108956Y66897D01*
X107983Y66494D01*
X107147Y65853D01*
X106506Y65017D01*
X106103Y64044D01*
X105965Y63000D01*
X106103Y61956D01*
X106506Y60983D01*
X107147Y60147D01*
X107961Y59523D01*
Y7500D01*
X108116Y6720D01*
X108558Y6058D01*
X112116Y2500D01*
X111916Y2000D01*
X2801D01*
X2434Y2152D01*
X2152Y2434D01*
X2000Y2801D01*
Y3000D01*
Y146723D01*
X2158Y147158D01*
X23843D01*
Y168842D01*
X3280D01*
X3092Y169343D01*
X3272Y169500D01*
X172000D01*
X172490Y169524D01*
X173451Y169715D01*
X174357Y170090D01*
X175172Y170635D01*
X175865Y171328D01*
X176410Y172143D01*
X176785Y173049D01*
X176976Y174010D01*
X177000Y174500D01*
Y197000D01*
Y197985D01*
X177384Y199917D01*
X178138Y201737D01*
X179233Y203375D01*
X180625Y204767D01*
X182263Y205862D01*
X184083Y206616D01*
X186015Y207000D01*
X262288D01*
X263833Y206693D01*
D02*
G37*
%LPC*%
G36*
X201500Y203626D02*
Y187000D01*
X218126D01*
X218096Y187448D01*
X217618Y189855D01*
X216829Y192178D01*
X215744Y194378D01*
X214381Y196418D01*
X212763Y198263D01*
X210918Y199881D01*
X208878Y201244D01*
X206678Y202329D01*
X204355Y203118D01*
X201948Y203596D01*
X201500Y203626D01*
D02*
G37*
G36*
X197500D02*
X197052Y203596D01*
X194645Y203118D01*
X192322Y202329D01*
X190122Y201244D01*
X188082Y199881D01*
X186237Y198263D01*
X184619Y196418D01*
X183256Y194378D01*
X182171Y192178D01*
X181382Y189855D01*
X180904Y187448D01*
X180874Y187000D01*
X197500D01*
Y203626D01*
D02*
G37*
G36*
X218126Y183000D02*
X201500D01*
Y166374D01*
X201948Y166404D01*
X204355Y166882D01*
X206678Y167671D01*
X208878Y168756D01*
X210918Y170119D01*
X212763Y171737D01*
X214381Y173582D01*
X215744Y175622D01*
X216829Y177822D01*
X217618Y180145D01*
X218096Y182552D01*
X218126Y183000D01*
D02*
G37*
G36*
X197500D02*
X180874D01*
X180904Y182552D01*
X181382Y180145D01*
X182171Y177822D01*
X183256Y175622D01*
X184619Y173582D01*
X186237Y171737D01*
X188082Y170119D01*
X190122Y168756D01*
X192322Y167671D01*
X192792Y167511D01*
X192742Y167000D01*
X191956Y166897D01*
X190983Y166494D01*
X190147Y165853D01*
X189506Y165017D01*
X189499Y165000D01*
X196501D01*
X196494Y165017D01*
X195853Y165853D01*
X195361Y166230D01*
X195573Y166698D01*
X197052Y166404D01*
X197500Y166374D01*
Y183000D01*
D02*
G37*
G36*
X246000Y203757D02*
X243552Y203596D01*
X241145Y203118D01*
X238822Y202329D01*
X236622Y201244D01*
X234582Y199881D01*
X232737Y198263D01*
X231119Y196418D01*
X229756Y194378D01*
X228671Y192178D01*
X227882Y189855D01*
X227404Y187448D01*
X227243Y185000D01*
X227404Y182552D01*
X227882Y180145D01*
X228671Y177822D01*
X229756Y175622D01*
X231119Y173582D01*
X232737Y171737D01*
X234582Y170119D01*
X236622Y168756D01*
X238822Y167671D01*
X241145Y166882D01*
X243552Y166404D01*
X246000Y166243D01*
X248448Y166404D01*
X250855Y166882D01*
X253178Y167671D01*
X255378Y168756D01*
X257418Y170119D01*
X259263Y171737D01*
X260881Y173582D01*
X262244Y175622D01*
X263329Y177822D01*
X264118Y180145D01*
X264596Y182552D01*
X264757Y185000D01*
X264596Y187448D01*
X264118Y189855D01*
X263329Y192178D01*
X262244Y194378D01*
X260881Y196418D01*
X259263Y198263D01*
X257418Y199881D01*
X255378Y201244D01*
X253178Y202329D01*
X250855Y203118D01*
X248448Y203596D01*
X246000Y203757D01*
D02*
G37*
G36*
X279842Y169343D02*
X271000D01*
Y160500D01*
X279842D01*
Y169343D01*
D02*
G37*
G36*
X267000D02*
X258157D01*
Y160500D01*
X267000D01*
Y169343D01*
D02*
G37*
G36*
X196501Y161000D02*
X195000D01*
Y159499D01*
X195017Y159506D01*
X195853Y160147D01*
X196494Y160983D01*
X196501Y161000D01*
D02*
G37*
G36*
X191000D02*
X189499D01*
X189506Y160983D01*
X190147Y160147D01*
X190983Y159506D01*
X191000Y159499D01*
Y161000D01*
D02*
G37*
G36*
X182500Y157718D02*
Y156000D01*
X184218D01*
X184169Y156118D01*
X183495Y156995D01*
X182618Y157669D01*
X182500Y157718D01*
D02*
G37*
G36*
X178500D02*
X178382Y157669D01*
X177505Y156995D01*
X176831Y156118D01*
X176782Y156000D01*
X178500D01*
Y157718D01*
D02*
G37*
G36*
X143500Y152448D02*
Y151000D01*
X144948D01*
X144319Y151819D01*
X143500Y152448D01*
D02*
G37*
G36*
X139500D02*
X138681Y151819D01*
X138052Y151000D01*
X139500D01*
Y152448D01*
D02*
G37*
G36*
X184218Y152000D02*
X182500D01*
Y150282D01*
X182618Y150331D01*
X183495Y151005D01*
X184169Y151882D01*
X184218Y152000D01*
D02*
G37*
G36*
X178500D02*
X176782D01*
X176831Y151882D01*
X177505Y151005D01*
X178382Y150331D01*
X178500Y150282D01*
Y152000D01*
D02*
G37*
G36*
X279842Y156500D02*
X271000D01*
Y147658D01*
X279842D01*
Y156500D01*
D02*
G37*
G36*
X267000D02*
X258157D01*
Y147658D01*
X267000D01*
Y156500D01*
D02*
G37*
G36*
X247000Y157736D02*
X245904Y157592D01*
X244882Y157169D01*
X244005Y156495D01*
X243331Y155618D01*
X242908Y154596D01*
X242764Y153500D01*
X242908Y152404D01*
X243331Y151382D01*
X244005Y150505D01*
X244882Y149831D01*
X244926Y149813D01*
Y149313D01*
X244882Y149295D01*
X244005Y148621D01*
X243331Y147744D01*
X243282Y147626D01*
X247000D01*
X250718D01*
X250669Y147744D01*
X249995Y148621D01*
X249118Y149295D01*
X249074Y149313D01*
Y149813D01*
X249118Y149831D01*
X249995Y150505D01*
X250669Y151382D01*
X251092Y152404D01*
X251236Y153500D01*
X251092Y154596D01*
X250669Y155618D01*
X249995Y156495D01*
X249118Y157169D01*
X248096Y157592D01*
X247000Y157736D01*
D02*
G37*
G36*
X100000Y156993D02*
X98708Y156823D01*
X97504Y156324D01*
X96470Y155530D01*
X95676Y154496D01*
X95177Y153292D01*
X95007Y152000D01*
X95177Y150708D01*
X95676Y149504D01*
X96470Y148470D01*
X97504Y147676D01*
X98708Y147177D01*
X100000Y147007D01*
X101292Y147177D01*
X102496Y147676D01*
X103530Y148470D01*
X104324Y149504D01*
X104823Y150708D01*
X104993Y152000D01*
X104823Y153292D01*
X104324Y154496D01*
X103530Y155530D01*
X102496Y156324D01*
X101292Y156823D01*
X100000Y156993D01*
D02*
G37*
G36*
X81890D02*
X80598Y156823D01*
X79393Y156324D01*
X78359Y155530D01*
X77566Y154496D01*
X77067Y153292D01*
X76897Y152000D01*
X77067Y150708D01*
X77566Y149504D01*
X78359Y148470D01*
X79393Y147676D01*
X80598Y147177D01*
X81890Y147007D01*
X83182Y147177D01*
X84386Y147676D01*
X85420Y148470D01*
X86214Y149504D01*
X86712Y150708D01*
X86883Y152000D01*
X86712Y153292D01*
X86214Y154496D01*
X85420Y155530D01*
X84386Y156324D01*
X83182Y156823D01*
X81890Y156993D01*
D02*
G37*
G36*
X144948Y147000D02*
X143500D01*
Y145552D01*
X144319Y146181D01*
X144948Y147000D01*
D02*
G37*
G36*
X139500D02*
X138052D01*
X138681Y146181D01*
X139500Y145552D01*
Y147000D01*
D02*
G37*
G36*
X115453Y152953D02*
X107547D01*
Y145047D01*
X115453D01*
Y152953D01*
D02*
G37*
G36*
X161500Y152987D02*
X160468Y152851D01*
X159507Y152453D01*
X158681Y151819D01*
X158047Y150993D01*
X157649Y150032D01*
X157513Y149000D01*
X157649Y147968D01*
X158047Y147007D01*
X158681Y146181D01*
X159507Y145547D01*
X160468Y145149D01*
X161500Y145013D01*
X162532Y145149D01*
X163493Y145547D01*
X164319Y146181D01*
X164953Y147007D01*
X165351Y147968D01*
X165487Y149000D01*
X165351Y150032D01*
X164953Y150993D01*
X164319Y151819D01*
X163493Y152453D01*
X162532Y152851D01*
X161500Y152987D01*
D02*
G37*
G36*
X151500D02*
X150468Y152851D01*
X149507Y152453D01*
X148681Y151819D01*
X148047Y150993D01*
X147649Y150032D01*
X147513Y149000D01*
X147649Y147968D01*
X148047Y147007D01*
X148681Y146181D01*
X149507Y145547D01*
X150468Y145149D01*
X151500Y145013D01*
X152532Y145149D01*
X153493Y145547D01*
X154319Y146181D01*
X154953Y147007D01*
X155351Y147968D01*
X155487Y149000D01*
X155351Y150032D01*
X154953Y150993D01*
X154319Y151819D01*
X153493Y152453D01*
X152532Y152851D01*
X151500Y152987D01*
D02*
G37*
G36*
X131500D02*
X130468Y152851D01*
X129507Y152453D01*
X128681Y151819D01*
X128047Y150993D01*
X127649Y150032D01*
X127513Y149000D01*
X127649Y147968D01*
X128047Y147007D01*
X128681Y146181D01*
X129507Y145547D01*
X130468Y145149D01*
X131500Y145013D01*
X132532Y145149D01*
X133493Y145547D01*
X134319Y146181D01*
X134953Y147007D01*
X135351Y147968D01*
X135487Y149000D01*
X135351Y150032D01*
X134953Y150993D01*
X134319Y151819D01*
X133493Y152453D01*
X132532Y152851D01*
X131500Y152987D01*
D02*
G37*
G36*
X121500D02*
X120468Y152851D01*
X119507Y152453D01*
X118681Y151819D01*
X118047Y150993D01*
X117649Y150032D01*
X117513Y149000D01*
X117649Y147968D01*
X118047Y147007D01*
X118681Y146181D01*
X119507Y145547D01*
X120468Y145149D01*
X121500Y145013D01*
X122532Y145149D01*
X123493Y145547D01*
X124319Y146181D01*
X124953Y147007D01*
X125351Y147968D01*
X125487Y149000D01*
X125351Y150032D01*
X124953Y150993D01*
X124319Y151819D01*
X123493Y152453D01*
X122532Y152851D01*
X121500Y152987D01*
D02*
G37*
G36*
X232347Y152847D02*
X223654D01*
Y144153D01*
X232347D01*
Y152847D01*
D02*
G37*
G36*
X200500Y152884D02*
X199365Y152735D01*
X198308Y152297D01*
X197400Y151600D01*
X196703Y150692D01*
X196265Y149635D01*
X196116Y148500D01*
X196265Y147365D01*
X196703Y146308D01*
X197400Y145400D01*
X198308Y144703D01*
X199365Y144265D01*
X200500Y144116D01*
X201635Y144265D01*
X202692Y144703D01*
X203600Y145400D01*
X204297Y146308D01*
X204735Y147365D01*
X204884Y148500D01*
X204735Y149635D01*
X204297Y150692D01*
X203600Y151600D01*
X202692Y152297D01*
X201635Y152735D01*
X200500Y152884D01*
D02*
G37*
G36*
X191000Y144001D02*
X190983Y143994D01*
X190147Y143353D01*
X189506Y142517D01*
X189499Y142500D01*
X191000D01*
Y144001D01*
D02*
G37*
G36*
X245000Y143626D02*
X243282D01*
X243331Y143508D01*
X244005Y142631D01*
X244882Y141957D01*
X245000Y141908D01*
Y143626D01*
D02*
G37*
G36*
X250718D02*
X249000D01*
Y141908D01*
X249118Y141957D01*
X249995Y142631D01*
X250669Y143508D01*
X250718Y143626D01*
D02*
G37*
G36*
X236968Y142060D02*
Y140559D01*
X238470D01*
X238462Y140576D01*
X237821Y141412D01*
X236986Y142053D01*
X236968Y142060D01*
D02*
G37*
G36*
X202500Y142376D02*
Y140500D01*
X204376D01*
X204297Y140692D01*
X203600Y141600D01*
X202692Y142297D01*
X202500Y142376D01*
D02*
G37*
G36*
X180500Y148236D02*
X179404Y148092D01*
X178382Y147669D01*
X177505Y146995D01*
X176831Y146118D01*
X176408Y145096D01*
X176264Y144000D01*
X176408Y142904D01*
X176831Y141882D01*
X177505Y141005D01*
X177555Y140966D01*
X177357Y140488D01*
X177000Y140534D01*
X176672Y140491D01*
X176218Y140679D01*
X175500Y140774D01*
X128913D01*
X128853Y140853D01*
X128017Y141494D01*
X127044Y141897D01*
X126000Y142034D01*
X124956Y141897D01*
X123983Y141494D01*
X123147Y140853D01*
X122506Y140017D01*
X122103Y139044D01*
X121966Y138000D01*
X122103Y136956D01*
X122506Y135983D01*
X123147Y135147D01*
X123983Y134506D01*
X124956Y134103D01*
X126000Y133966D01*
X127044Y134103D01*
X128017Y134506D01*
X128853Y135147D01*
X128913Y135226D01*
X149042D01*
X149211Y134726D01*
X148681Y134319D01*
X148047Y133493D01*
X147649Y132532D01*
X147513Y131500D01*
X147649Y130468D01*
X148047Y129507D01*
X148681Y128681D01*
X149507Y128047D01*
X150468Y127649D01*
X151500Y127513D01*
X152532Y127649D01*
X153493Y128047D01*
X154319Y128681D01*
X154953Y129507D01*
X155351Y130468D01*
X155487Y131500D01*
X155351Y132532D01*
X154953Y133493D01*
X154319Y134319D01*
X153789Y134726D01*
X153958Y135226D01*
X173198D01*
X173506Y134483D01*
X174147Y133647D01*
X174983Y133006D01*
X175956Y132603D01*
X176971Y132469D01*
X177093Y132350D01*
X177281Y132000D01*
X181000D01*
X184718D01*
X184669Y132118D01*
X183995Y132995D01*
X183118Y133669D01*
X182096Y134092D01*
X181000Y134236D01*
X180886Y134221D01*
X180578Y134685D01*
X180897Y135456D01*
X181035Y136500D01*
X180897Y137544D01*
X180494Y138517D01*
X179860Y139344D01*
X179866Y139381D01*
X180064Y139821D01*
X180500Y139764D01*
X181596Y139908D01*
X182618Y140331D01*
X183495Y141005D01*
X184169Y141882D01*
X184592Y142904D01*
X184736Y144000D01*
X184592Y145096D01*
X184169Y146118D01*
X183495Y146995D01*
X182618Y147669D01*
X181596Y148092D01*
X180500Y148236D01*
D02*
G37*
G36*
X191000Y138500D02*
X189499D01*
X189506Y138483D01*
X190147Y137647D01*
X190983Y137006D01*
X191000Y136999D01*
Y138500D01*
D02*
G37*
G36*
X238470Y136559D02*
X236968D01*
Y135058D01*
X236986Y135065D01*
X237821Y135706D01*
X238462Y136542D01*
X238470Y136559D01*
D02*
G37*
G36*
X230000Y142376D02*
Y138500D01*
Y134624D01*
X230192Y134703D01*
X231100Y135400D01*
X231475Y135889D01*
X231975D01*
X232116Y135706D01*
X232951Y135065D01*
X232968Y135058D01*
Y138559D01*
Y142060D01*
X232951Y142053D01*
X232116Y141412D01*
X231930Y141170D01*
X231430D01*
X231100Y141600D01*
X230192Y142297D01*
X230000Y142376D01*
D02*
G37*
G36*
X204376Y136500D02*
X202500D01*
Y134624D01*
X202692Y134703D01*
X203600Y135400D01*
X204297Y136308D01*
X204376Y136500D01*
D02*
G37*
G36*
X213500Y152034D02*
X212456Y151897D01*
X211483Y151494D01*
X210647Y150853D01*
X210006Y150017D01*
X209603Y149044D01*
X209466Y148000D01*
X209603Y146956D01*
X210006Y145983D01*
X210647Y145147D01*
X211483Y144506D01*
X212456Y144103D01*
X213500Y143965D01*
X213599Y143979D01*
X218726Y138851D01*
Y121414D01*
X218647Y121353D01*
X218006Y120517D01*
X217603Y119544D01*
X217465Y118500D01*
X217603Y117456D01*
X218006Y116483D01*
X218647Y115647D01*
X219483Y115006D01*
X220456Y114603D01*
X221500Y114465D01*
X222544Y114603D01*
X223517Y115006D01*
X224353Y115647D01*
X224994Y116483D01*
X225397Y117456D01*
X225535Y118500D01*
X225397Y119544D01*
X224994Y120517D01*
X224353Y121353D01*
X224274Y121414D01*
Y125439D01*
X224747Y125599D01*
X224900Y125400D01*
X225808Y124703D01*
X226865Y124265D01*
X228000Y124116D01*
X229135Y124265D01*
X230192Y124703D01*
X231100Y125400D01*
X231797Y126308D01*
X232235Y127365D01*
X232384Y128500D01*
X232235Y129635D01*
X231797Y130692D01*
X231100Y131600D01*
X230192Y132297D01*
X229135Y132735D01*
X228000Y132884D01*
X226865Y132735D01*
X225808Y132297D01*
X224900Y131600D01*
X224747Y131401D01*
X224274Y131561D01*
Y135439D01*
X224747Y135599D01*
X224900Y135400D01*
X225808Y134703D01*
X226000Y134624D01*
Y138500D01*
Y142376D01*
X225808Y142297D01*
X224900Y141600D01*
X224546Y141139D01*
X223974Y141214D01*
X223902Y141387D01*
X223461Y141961D01*
X217522Y147901D01*
X217534Y148000D01*
X217397Y149044D01*
X216994Y150017D01*
X216353Y150853D01*
X215517Y151494D01*
X214544Y151897D01*
X213500Y152034D01*
D02*
G37*
G36*
X195000Y144001D02*
Y140500D01*
Y136999D01*
X195017Y137006D01*
X195736Y137557D01*
X196258Y137424D01*
X196265Y137365D01*
X196703Y136308D01*
X197400Y135400D01*
X198308Y134703D01*
X198500Y134624D01*
Y138500D01*
Y142376D01*
X198308Y142297D01*
X197400Y141600D01*
X197359Y141546D01*
X196837Y141688D01*
X196494Y142517D01*
X195853Y143353D01*
X195017Y143994D01*
X195000Y144001D01*
D02*
G37*
G36*
X263000Y133029D02*
Y130500D01*
X265529D01*
X265324Y130996D01*
X264530Y132030D01*
X263496Y132824D01*
X263000Y133029D01*
D02*
G37*
G36*
X259000D02*
X258504Y132824D01*
X257470Y132030D01*
X256676Y130996D01*
X256471Y130500D01*
X259000D01*
Y133029D01*
D02*
G37*
G36*
X35000Y133111D02*
Y129500D01*
X38611D01*
X38524Y129788D01*
X37971Y130822D01*
X37228Y131728D01*
X36322Y132471D01*
X35288Y133024D01*
X35000Y133111D01*
D02*
G37*
G36*
X31000D02*
X30712Y133024D01*
X29678Y132471D01*
X28772Y131728D01*
X28029Y130822D01*
X27476Y129788D01*
X27389Y129500D01*
X31000D01*
Y133111D01*
D02*
G37*
G36*
X102000Y129364D02*
Y126835D01*
X104529D01*
X104324Y127331D01*
X103530Y128365D01*
X102496Y129158D01*
X102000Y129364D01*
D02*
G37*
G36*
X98000D02*
X97504Y129158D01*
X96470Y128365D01*
X95676Y127331D01*
X95471Y126835D01*
X98000D01*
Y129364D01*
D02*
G37*
G36*
X139953Y132953D02*
X132047D01*
Y125047D01*
X139953D01*
Y132953D01*
D02*
G37*
G36*
X126000Y132987D02*
X124968Y132851D01*
X124007Y132453D01*
X123181Y131819D01*
X122547Y130993D01*
X122149Y130032D01*
X122013Y129000D01*
X122149Y127968D01*
X122547Y127007D01*
X123181Y126181D01*
X124007Y125547D01*
X124968Y125149D01*
X126000Y125013D01*
X127032Y125149D01*
X127993Y125547D01*
X128819Y126181D01*
X129453Y127007D01*
X129851Y127968D01*
X129987Y129000D01*
X129851Y130032D01*
X129453Y130993D01*
X128819Y131819D01*
X127993Y132453D01*
X127032Y132851D01*
X126000Y132987D01*
D02*
G37*
G36*
X204847Y132846D02*
X196153D01*
Y124153D01*
X204847D01*
Y132846D01*
D02*
G37*
G36*
X265529Y126500D02*
X263000D01*
Y123971D01*
X263496Y124176D01*
X264530Y124970D01*
X265324Y126004D01*
X265529Y126500D01*
D02*
G37*
G36*
X259000D02*
X256471D01*
X256676Y126004D01*
X257470Y124970D01*
X258504Y124176D01*
X259000Y123971D01*
Y126500D01*
D02*
G37*
G36*
X241000Y133493D02*
X239708Y133323D01*
X238504Y132824D01*
X237470Y132030D01*
X236676Y130996D01*
X236177Y129792D01*
X236007Y128500D01*
X236177Y127208D01*
X236676Y126004D01*
X237470Y124970D01*
X238504Y124176D01*
X239708Y123677D01*
X241000Y123507D01*
X242292Y123677D01*
X243496Y124176D01*
X244530Y124970D01*
X245324Y126004D01*
X245823Y127208D01*
X245993Y128500D01*
X245823Y129792D01*
X245324Y130996D01*
X244530Y132030D01*
X243496Y132824D01*
X242292Y133323D01*
X241000Y133493D01*
D02*
G37*
G36*
X38611Y125500D02*
X35000D01*
Y121889D01*
X35288Y121976D01*
X36322Y122529D01*
X37228Y123272D01*
X37971Y124178D01*
X38524Y125212D01*
X38611Y125500D01*
D02*
G37*
G36*
X31000D02*
X27389D01*
X27476Y125212D01*
X28029Y124178D01*
X28772Y123272D01*
X29678Y122529D01*
X30712Y121976D01*
X31000Y121889D01*
Y125500D01*
D02*
G37*
G36*
X63000Y133479D02*
X61834Y133364D01*
X60712Y133024D01*
X59678Y132471D01*
X58772Y131728D01*
X58029Y130822D01*
X57476Y129788D01*
X57136Y128666D01*
X57021Y127500D01*
X57136Y126334D01*
X57476Y125212D01*
X58029Y124178D01*
X58772Y123272D01*
X59678Y122529D01*
X60712Y121976D01*
X61834Y121636D01*
X63000Y121521D01*
X64166Y121636D01*
X65288Y121976D01*
X66322Y122529D01*
X67228Y123272D01*
X67971Y124178D01*
X68524Y125212D01*
X68864Y126334D01*
X68979Y127500D01*
X68864Y128666D01*
X68524Y129788D01*
X67971Y130822D01*
X67228Y131728D01*
X66322Y132471D01*
X65288Y133024D01*
X64166Y133364D01*
X63000Y133479D01*
D02*
G37*
G36*
X104529Y122835D02*
X102000D01*
Y120305D01*
X102496Y120511D01*
X103530Y121304D01*
X104324Y122338D01*
X104529Y122835D01*
D02*
G37*
G36*
X98000D02*
X95471D01*
X95676Y122338D01*
X96470Y121304D01*
X97504Y120511D01*
X98000Y120305D01*
Y122835D01*
D02*
G37*
G36*
X81890Y129827D02*
X80598Y129657D01*
X79393Y129158D01*
X78359Y128365D01*
X77566Y127331D01*
X77067Y126127D01*
X76897Y124835D01*
X77067Y123542D01*
X77566Y122338D01*
X78359Y121304D01*
X79393Y120511D01*
X80598Y120012D01*
X81890Y119842D01*
X83182Y120012D01*
X84386Y120511D01*
X85420Y121304D01*
X86214Y122338D01*
X86712Y123542D01*
X86883Y124835D01*
X86712Y126127D01*
X86214Y127331D01*
X85420Y128365D01*
X84386Y129158D01*
X83182Y129657D01*
X81890Y129827D01*
D02*
G37*
G36*
X184718Y128000D02*
X181000D01*
X177282D01*
X177331Y127882D01*
X178005Y127005D01*
X178882Y126331D01*
X178926Y126313D01*
Y125813D01*
X178882Y125795D01*
X178005Y125121D01*
X177331Y124244D01*
X176908Y123222D01*
X176764Y122126D01*
X176908Y121030D01*
X177331Y120008D01*
X178005Y119131D01*
X178882Y118457D01*
X179904Y118034D01*
X181000Y117890D01*
X182096Y118034D01*
X183118Y118457D01*
X183995Y119131D01*
X184669Y120008D01*
X185092Y121030D01*
X185236Y122126D01*
X185092Y123222D01*
X184669Y124244D01*
X183995Y125121D01*
X183118Y125795D01*
X183074Y125813D01*
Y126313D01*
X183118Y126331D01*
X183995Y127005D01*
X184669Y127882D01*
X184718Y128000D01*
D02*
G37*
G36*
X151500Y125487D02*
X150468Y125351D01*
X149507Y124953D01*
X148681Y124319D01*
X148047Y123493D01*
X147649Y122532D01*
X147513Y121500D01*
X147649Y120468D01*
X148047Y119507D01*
X148681Y118681D01*
X149507Y118047D01*
X150468Y117649D01*
X151500Y117513D01*
X152532Y117649D01*
X153493Y118047D01*
X154319Y118681D01*
X154953Y119507D01*
X155351Y120468D01*
X155487Y121500D01*
X155351Y122532D01*
X154953Y123493D01*
X154319Y124319D01*
X153493Y124953D01*
X152532Y125351D01*
X151500Y125487D01*
D02*
G37*
G36*
X231000Y117001D02*
Y115500D01*
X232501D01*
X232494Y115517D01*
X231853Y116353D01*
X231017Y116994D01*
X231000Y117001D01*
D02*
G37*
G36*
X227000D02*
X226983Y116994D01*
X226147Y116353D01*
X225506Y115517D01*
X225499Y115500D01*
X227000D01*
Y117001D01*
D02*
G37*
G36*
X119448Y115500D02*
X118000D01*
Y114052D01*
X118819Y114681D01*
X119448Y115500D01*
D02*
G37*
G36*
X139953Y121453D02*
X132047D01*
Y113547D01*
X139953D01*
Y121453D01*
D02*
G37*
G36*
X126000Y121487D02*
X124968Y121351D01*
X124007Y120953D01*
X123181Y120319D01*
X122547Y119493D01*
X122149Y118532D01*
X122013Y117500D01*
X122149Y116468D01*
X122547Y115507D01*
X123181Y114681D01*
X124007Y114047D01*
X124968Y113649D01*
X126000Y113513D01*
X127032Y113649D01*
X127993Y114047D01*
X128819Y114681D01*
X129453Y115507D01*
X129851Y116468D01*
X129987Y117500D01*
X129851Y118532D01*
X129453Y119493D01*
X128819Y120319D01*
X127993Y120953D01*
X127032Y121351D01*
X126000Y121487D01*
D02*
G37*
G36*
X155453Y115453D02*
X153500D01*
Y113500D01*
X155453D01*
Y115453D01*
D02*
G37*
G36*
X149500D02*
X147547D01*
Y113500D01*
X149500D01*
Y115453D01*
D02*
G37*
G36*
X232501Y111500D02*
X231000D01*
Y109999D01*
X231017Y110006D01*
X231853Y110647D01*
X232494Y111483D01*
X232501Y111500D01*
D02*
G37*
G36*
X227000D02*
X225499D01*
X225506Y111483D01*
X226147Y110647D01*
X226983Y110006D01*
X227000Y109999D01*
Y111500D01*
D02*
G37*
G36*
X119500Y110501D02*
X119483Y110494D01*
X118647Y109853D01*
X118006Y109017D01*
X117999Y109000D01*
X119500D01*
Y110501D01*
D02*
G37*
G36*
X236335Y109140D02*
Y106610D01*
X238864D01*
X238658Y107107D01*
X237865Y108141D01*
X236831Y108934D01*
X236335Y109140D01*
D02*
G37*
G36*
X232335D02*
X231838Y108934D01*
X230804Y108141D01*
X230011Y107107D01*
X229805Y106610D01*
X232335D01*
Y109140D01*
D02*
G37*
G36*
X155453Y109500D02*
X151500D01*
X147547D01*
Y107547D01*
X148166D01*
X148413Y107047D01*
X148006Y106517D01*
X147999Y106500D01*
X155001D01*
X154994Y106517D01*
X154587Y107047D01*
X154834Y107547D01*
X155453D01*
Y109500D01*
D02*
G37*
G36*
X72000Y119035D02*
X70956Y118897D01*
X69983Y118494D01*
X69147Y117853D01*
X68506Y117017D01*
X68103Y116044D01*
X67966Y115000D01*
X68103Y113956D01*
X68506Y112983D01*
X69147Y112147D01*
X69983Y111506D01*
X70956Y111103D01*
X72000Y110966D01*
X73044Y111103D01*
X73427Y111261D01*
X75087Y109601D01*
X75087Y109601D01*
X75748Y109159D01*
X76529Y109004D01*
X84024D01*
Y103957D01*
X91142D01*
Y113043D01*
X86221D01*
X86024Y113083D01*
X77373D01*
X75967Y114488D01*
X76034Y115000D01*
X75897Y116044D01*
X75494Y117017D01*
X74853Y117853D01*
X74017Y118494D01*
X73044Y118897D01*
X72000Y119035D01*
D02*
G37*
G36*
X109000Y104501D02*
Y103000D01*
X110501D01*
X110494Y103017D01*
X109853Y103853D01*
X109017Y104494D01*
X109000Y104501D01*
D02*
G37*
G36*
X105000D02*
X104983Y104494D01*
X104147Y103853D01*
X103506Y103017D01*
X103499Y103000D01*
X105000D01*
Y104501D01*
D02*
G37*
G36*
X238864Y102610D02*
X236335D01*
Y100081D01*
X236831Y100286D01*
X237865Y101080D01*
X238658Y102114D01*
X238864Y102610D01*
D02*
G37*
G36*
X232335D02*
X229805D01*
X230011Y102114D01*
X230804Y101080D01*
X231838Y100286D01*
X232335Y100081D01*
Y102610D01*
D02*
G37*
G36*
X261500Y109603D02*
X260208Y109433D01*
X259004Y108934D01*
X257970Y108141D01*
X257176Y107107D01*
X256677Y105902D01*
X256507Y104610D01*
X256677Y103318D01*
X257176Y102114D01*
X257970Y101080D01*
X259004Y100286D01*
X260208Y99788D01*
X261500Y99617D01*
X262792Y99788D01*
X263996Y100286D01*
X265030Y101080D01*
X265824Y102114D01*
X266323Y103318D01*
X266493Y104610D01*
X266323Y105902D01*
X265824Y107107D01*
X265030Y108141D01*
X263996Y108934D01*
X262792Y109433D01*
X261500Y109603D01*
D02*
G37*
G36*
X110501Y99000D02*
X109000D01*
Y97499D01*
X109017Y97506D01*
X109853Y98147D01*
X110494Y98983D01*
X110501Y99000D01*
D02*
G37*
G36*
X105000D02*
X103499D01*
X103506Y98983D01*
X104147Y98147D01*
X104983Y97506D01*
X105000Y97499D01*
Y99000D01*
D02*
G37*
G36*
X102500Y90001D02*
Y88500D01*
X104001D01*
X103994Y88517D01*
X103353Y89353D01*
X102517Y89994D01*
X102500Y90001D01*
D02*
G37*
G36*
X98500D02*
X98483Y89994D01*
X97647Y89353D01*
X97006Y88517D01*
X96999Y88500D01*
X98500D01*
Y90001D01*
D02*
G37*
G36*
X84244Y93487D02*
X83212Y93351D01*
X82251Y92953D01*
X81425Y92319D01*
X80791Y91493D01*
X80393Y90532D01*
X80257Y89500D01*
X80393Y88468D01*
X80791Y87507D01*
X81425Y86681D01*
X82251Y86047D01*
X83212Y85649D01*
X84244Y85513D01*
X85276Y85649D01*
X86238Y86047D01*
X87063Y86681D01*
X87697Y87507D01*
X88095Y88468D01*
X88231Y89500D01*
X88095Y90532D01*
X87697Y91493D01*
X87063Y92319D01*
X86238Y92953D01*
X85276Y93351D01*
X84244Y93487D01*
D02*
G37*
G36*
X104001Y84500D02*
X102500D01*
Y82999D01*
X102517Y83006D01*
X103353Y83647D01*
X103994Y84483D01*
X104001Y84500D01*
D02*
G37*
G36*
X98500D02*
X96999D01*
X97006Y84483D01*
X97647Y83647D01*
X98483Y83006D01*
X98500Y82999D01*
Y84500D01*
D02*
G37*
G36*
X261500Y91493D02*
X260208Y91323D01*
X259004Y90824D01*
X257970Y90030D01*
X257176Y88996D01*
X256677Y87792D01*
X256507Y86500D01*
X256677Y85208D01*
X257176Y84004D01*
X257970Y82970D01*
X259004Y82176D01*
X260208Y81677D01*
X261500Y81507D01*
X262792Y81677D01*
X263996Y82176D01*
X265030Y82970D01*
X265824Y84004D01*
X266323Y85208D01*
X266493Y86500D01*
X266323Y87792D01*
X265824Y88996D01*
X265030Y90030D01*
X263996Y90824D01*
X262792Y91323D01*
X261500Y91493D01*
D02*
G37*
G36*
X234335D02*
X233042Y91323D01*
X231838Y90824D01*
X230804Y90030D01*
X230011Y88996D01*
X229512Y87792D01*
X229342Y86500D01*
X229512Y85208D01*
X230011Y84004D01*
X230804Y82970D01*
X231838Y82176D01*
X233042Y81677D01*
X234335Y81507D01*
X235627Y81677D01*
X236831Y82176D01*
X237865Y82970D01*
X238658Y84004D01*
X239157Y85208D01*
X239327Y86500D01*
X239157Y87792D01*
X238658Y88996D01*
X237865Y90030D01*
X236831Y90824D01*
X235627Y91323D01*
X234335Y91493D01*
D02*
G37*
G36*
X168000Y89034D02*
X166956Y88897D01*
X165983Y88494D01*
X165147Y87853D01*
X164523Y87039D01*
X163500D01*
X162720Y86884D01*
X162058Y86442D01*
X148376Y72760D01*
X148044Y72897D01*
X147000Y73035D01*
X145956Y72897D01*
X144983Y72494D01*
X144147Y71853D01*
X143506Y71017D01*
X143103Y70044D01*
X142965Y69000D01*
X143103Y67956D01*
X143506Y66983D01*
X144147Y66147D01*
X144983Y65506D01*
X145956Y65103D01*
X147000Y64965D01*
X148044Y65103D01*
X149017Y65506D01*
X149853Y66147D01*
X150494Y66983D01*
X150897Y67956D01*
X151034Y69000D01*
X150959Y69575D01*
X164108Y82724D01*
X164732Y82688D01*
X165147Y82147D01*
X165983Y81506D01*
X166956Y81103D01*
X168000Y80966D01*
X169044Y81103D01*
X170017Y81506D01*
X170853Y82147D01*
X171494Y82983D01*
X171897Y83956D01*
X172035Y85000D01*
X171897Y86044D01*
X171494Y87017D01*
X170853Y87853D01*
X170017Y88494D01*
X169044Y88897D01*
X168000Y89034D01*
D02*
G37*
G36*
X236335Y79640D02*
Y77110D01*
X238864D01*
X238658Y77607D01*
X237865Y78641D01*
X236831Y79434D01*
X236335Y79640D01*
D02*
G37*
G36*
X232335D02*
X231838Y79434D01*
X230804Y78641D01*
X230011Y77607D01*
X229805Y77110D01*
X232335D01*
Y79640D01*
D02*
G37*
G36*
X212500Y83987D02*
X211468Y83851D01*
X210507Y83453D01*
X209681Y82819D01*
X209047Y81993D01*
X208649Y81032D01*
X208513Y80000D01*
X208649Y78968D01*
X209047Y78007D01*
X209681Y77181D01*
X210507Y76547D01*
X211468Y76149D01*
X212500Y76013D01*
X213532Y76149D01*
X214493Y76547D01*
X215319Y77181D01*
X215953Y78007D01*
X216351Y78968D01*
X216487Y80000D01*
X216351Y81032D01*
X215953Y81993D01*
X215319Y82819D01*
X214493Y83453D01*
X213532Y83851D01*
X212500Y83987D01*
D02*
G37*
G36*
X84244Y83487D02*
X83212Y83351D01*
X82251Y82953D01*
X81425Y82319D01*
X80791Y81493D01*
X80393Y80532D01*
X80257Y79500D01*
X80393Y78468D01*
X80791Y77507D01*
X81425Y76681D01*
X82251Y76047D01*
X83212Y75649D01*
X84244Y75513D01*
X85276Y75649D01*
X86238Y76047D01*
X87063Y76681D01*
X87697Y77507D01*
X88095Y78468D01*
X88231Y79500D01*
X88095Y80532D01*
X87697Y81493D01*
X87063Y82319D01*
X86238Y82953D01*
X85276Y83351D01*
X84244Y83487D01*
D02*
G37*
G36*
X37000Y95376D02*
X35299Y95242D01*
X33639Y94844D01*
X32062Y94191D01*
X30607Y93299D01*
X29309Y92190D01*
X28201Y90893D01*
X27309Y89438D01*
X26656Y87861D01*
X26258Y86201D01*
X26124Y84500D01*
X26258Y82799D01*
X26656Y81139D01*
X27309Y79562D01*
X28201Y78107D01*
X29309Y76810D01*
X30607Y75701D01*
X32062Y74809D01*
X33639Y74156D01*
X35299Y73758D01*
X37000Y73624D01*
X38701Y73758D01*
X40361Y74156D01*
X41938Y74809D01*
X43393Y75701D01*
X44690Y76810D01*
X45799Y78107D01*
X46691Y79562D01*
X47344Y81139D01*
X47742Y82799D01*
X47876Y84500D01*
X47742Y86201D01*
X47344Y87861D01*
X46691Y89438D01*
X45799Y90893D01*
X44690Y92190D01*
X43393Y93299D01*
X41938Y94191D01*
X40361Y94844D01*
X38701Y95242D01*
X37000Y95376D01*
D02*
G37*
G36*
X238864Y73110D02*
X236335D01*
Y70581D01*
X236831Y70786D01*
X237865Y71580D01*
X238658Y72614D01*
X238864Y73110D01*
D02*
G37*
G36*
X232335D02*
X229805D01*
X230011Y72614D01*
X230804Y71580D01*
X231838Y70786D01*
X232335Y70581D01*
Y73110D01*
D02*
G37*
G36*
X261500Y80103D02*
X260208Y79933D01*
X259004Y79434D01*
X257970Y78641D01*
X257176Y77607D01*
X256677Y76402D01*
X256507Y75110D01*
X256677Y73818D01*
X257176Y72614D01*
X257970Y71580D01*
X259004Y70786D01*
X260208Y70288D01*
X261500Y70117D01*
X262792Y70288D01*
X263996Y70786D01*
X265030Y71580D01*
X265824Y72614D01*
X266323Y73818D01*
X266493Y75110D01*
X266323Y76402D01*
X265824Y77607D01*
X265030Y78641D01*
X263996Y79434D01*
X262792Y79933D01*
X261500Y80103D01*
D02*
G37*
G36*
X84244Y73487D02*
X83212Y73351D01*
X82251Y72953D01*
X81425Y72319D01*
X80791Y71493D01*
X80393Y70532D01*
X80257Y69500D01*
X80393Y68468D01*
X80791Y67507D01*
X81425Y66681D01*
X82251Y66047D01*
X83212Y65649D01*
X84244Y65513D01*
X85276Y65649D01*
X86238Y66047D01*
X87063Y66681D01*
X87697Y67507D01*
X88095Y68468D01*
X88231Y69500D01*
X88095Y70532D01*
X87697Y71493D01*
X87063Y72319D01*
X86238Y72953D01*
X85276Y73351D01*
X84244Y73487D01*
D02*
G37*
G36*
X102250Y63751D02*
Y62250D01*
X103751D01*
X103744Y62267D01*
X103103Y63103D01*
X102267Y63744D01*
X102250Y63751D01*
D02*
G37*
G36*
X98250D02*
X98233Y63744D01*
X97397Y63103D01*
X96756Y62267D01*
X96749Y62250D01*
X98250D01*
Y63751D01*
D02*
G37*
G36*
X137500Y61001D02*
Y59500D01*
X139001D01*
X138994Y59517D01*
X138353Y60353D01*
X137517Y60994D01*
X137500Y61001D01*
D02*
G37*
G36*
X133500D02*
X133483Y60994D01*
X132647Y60353D01*
X132006Y59517D01*
X131999Y59500D01*
X133500D01*
Y61001D01*
D02*
G37*
G36*
X103751Y58250D02*
X102250D01*
Y56749D01*
X102267Y56756D01*
X103103Y57397D01*
X103744Y58233D01*
X103751Y58250D01*
D02*
G37*
G36*
X98250D02*
X96749D01*
X96756Y58233D01*
X97397Y57397D01*
X98233Y56756D01*
X98250Y56749D01*
Y58250D01*
D02*
G37*
G36*
X84244Y63487D02*
X83212Y63351D01*
X82251Y62953D01*
X81425Y62319D01*
X80791Y61493D01*
X80393Y60532D01*
X80257Y59500D01*
X80393Y58468D01*
X80791Y57507D01*
X81425Y56681D01*
X82251Y56047D01*
X83212Y55649D01*
X84244Y55513D01*
X85276Y55649D01*
X86238Y56047D01*
X87063Y56681D01*
X87697Y57507D01*
X88095Y58468D01*
X88231Y59500D01*
X88095Y60532D01*
X87697Y61493D01*
X87063Y62319D01*
X86238Y62953D01*
X85276Y63351D01*
X84244Y63487D01*
D02*
G37*
G36*
X139001Y55500D02*
X137500D01*
Y53999D01*
X137517Y54006D01*
X138353Y54647D01*
X138994Y55483D01*
X139001Y55500D01*
D02*
G37*
G36*
X133500D02*
X131999D01*
X132006Y55483D01*
X132647Y54647D01*
X133483Y54006D01*
X133500Y53999D01*
Y55500D01*
D02*
G37*
G36*
X261500Y61993D02*
X260208Y61823D01*
X259004Y61324D01*
X257970Y60530D01*
X257176Y59496D01*
X256677Y58292D01*
X256507Y57000D01*
X256677Y55708D01*
X257176Y54504D01*
X257970Y53470D01*
X259004Y52676D01*
X260208Y52177D01*
X261500Y52007D01*
X262792Y52177D01*
X263996Y52676D01*
X265030Y53470D01*
X265824Y54504D01*
X266323Y55708D01*
X266493Y57000D01*
X266323Y58292D01*
X265824Y59496D01*
X265030Y60530D01*
X263996Y61324D01*
X262792Y61823D01*
X261500Y61993D01*
D02*
G37*
G36*
X234335D02*
X233042Y61823D01*
X231838Y61324D01*
X230804Y60530D01*
X230011Y59496D01*
X229512Y58292D01*
X229342Y57000D01*
X229512Y55708D01*
X230011Y54504D01*
X230804Y53470D01*
X231838Y52676D01*
X233042Y52177D01*
X234335Y52007D01*
X235627Y52177D01*
X236831Y52676D01*
X237865Y53470D01*
X238658Y54504D01*
X239157Y55708D01*
X239327Y57000D01*
X239157Y58292D01*
X238658Y59496D01*
X237865Y60530D01*
X236831Y61324D01*
X235627Y61823D01*
X234335Y61993D01*
D02*
G37*
G36*
X181405Y53453D02*
X179846D01*
Y51500D01*
X181405D01*
Y53453D01*
D02*
G37*
G36*
X106421Y51150D02*
X102500D01*
Y49000D01*
X106421D01*
Y51150D01*
D02*
G37*
G36*
X98500D02*
X94579D01*
Y49000D01*
X98500D01*
Y51150D01*
D02*
G37*
G36*
X236335Y50640D02*
Y48110D01*
X238864D01*
X238658Y48607D01*
X237865Y49641D01*
X236831Y50434D01*
X236335Y50640D01*
D02*
G37*
G36*
X232335D02*
X231838Y50434D01*
X230804Y49641D01*
X230011Y48607D01*
X229805Y48110D01*
X232335D01*
Y50640D01*
D02*
G37*
G36*
X181405Y47500D02*
X179846D01*
Y45547D01*
X181405D01*
Y47500D01*
D02*
G37*
G36*
X84244Y53487D02*
X83212Y53351D01*
X82251Y52953D01*
X81425Y52319D01*
X80791Y51493D01*
X80393Y50532D01*
X80257Y49500D01*
X80393Y48468D01*
X80791Y47507D01*
X81425Y46681D01*
X82251Y46047D01*
X83212Y45649D01*
X84244Y45513D01*
X85276Y45649D01*
X86238Y46047D01*
X87063Y46681D01*
X87697Y47507D01*
X88095Y48468D01*
X88231Y49500D01*
X88095Y50532D01*
X87697Y51493D01*
X87063Y52319D01*
X86238Y52953D01*
X85276Y53351D01*
X84244Y53487D01*
D02*
G37*
G36*
X106421Y45000D02*
X102500D01*
Y42850D01*
X106421D01*
Y45000D01*
D02*
G37*
G36*
X98500D02*
X94579D01*
Y42850D01*
X98500D01*
Y45000D01*
D02*
G37*
G36*
X181252Y44453D02*
X179693D01*
Y42500D01*
X181252D01*
Y44453D01*
D02*
G37*
G36*
X195000Y43448D02*
Y42000D01*
X196448D01*
X195819Y42819D01*
X195000Y43448D01*
D02*
G37*
G36*
X238864Y44110D02*
X236335D01*
Y41581D01*
X236831Y41786D01*
X237865Y42580D01*
X238658Y43614D01*
X238864Y44110D01*
D02*
G37*
G36*
X232335D02*
X229805D01*
X230011Y43614D01*
X230804Y42580D01*
X231838Y41786D01*
X232335Y41581D01*
Y44110D01*
D02*
G37*
G36*
X261500Y51103D02*
X260208Y50933D01*
X259004Y50434D01*
X257970Y49641D01*
X257176Y48607D01*
X256677Y47402D01*
X256507Y46110D01*
X256677Y44818D01*
X257176Y43614D01*
X257970Y42580D01*
X259004Y41786D01*
X260208Y41288D01*
X261500Y41118D01*
X262792Y41288D01*
X263996Y41786D01*
X265030Y42580D01*
X265824Y43614D01*
X266323Y44818D01*
X266493Y46110D01*
X266323Y47402D01*
X265824Y48607D01*
X265030Y49641D01*
X263996Y50434D01*
X262792Y50933D01*
X261500Y51103D01*
D02*
G37*
G36*
X196448Y38000D02*
X195000D01*
Y36552D01*
X195819Y37181D01*
X196448Y38000D01*
D02*
G37*
G36*
X181252Y38500D02*
X179693D01*
Y36547D01*
X181252D01*
Y38500D01*
D02*
G37*
G36*
X84244Y43487D02*
X83212Y43351D01*
X82251Y42953D01*
X81425Y42319D01*
X80791Y41493D01*
X80393Y40532D01*
X80257Y39500D01*
X80393Y38468D01*
X80791Y37507D01*
X81425Y36681D01*
X82251Y36047D01*
X83212Y35649D01*
X84244Y35513D01*
X85276Y35649D01*
X86238Y36047D01*
X87063Y36681D01*
X87697Y37507D01*
X88095Y38468D01*
X88231Y39500D01*
X88095Y40532D01*
X87697Y41493D01*
X87063Y42319D01*
X86238Y42953D01*
X85276Y43351D01*
X84244Y43487D01*
D02*
G37*
G36*
X181405Y35453D02*
X179846D01*
Y33500D01*
X181405D01*
Y35453D01*
D02*
G37*
G36*
X102272Y41185D02*
X98728D01*
X97645Y41043D01*
X96636Y40625D01*
X95769Y39959D01*
X95104Y39093D01*
X94686Y38083D01*
X94543Y37000D01*
X94686Y35917D01*
X95104Y34907D01*
X95769Y34040D01*
X96636Y33375D01*
X97645Y32957D01*
X98728Y32815D01*
X102272D01*
X103355Y32957D01*
X104364Y33375D01*
X105231Y34040D01*
X105896Y34907D01*
X106315Y35917D01*
X106457Y37000D01*
X106315Y38083D01*
X105896Y39093D01*
X105231Y39959D01*
X104364Y40625D01*
X103355Y41043D01*
X102272Y41185D01*
D02*
G37*
G36*
X175846Y53453D02*
X167595D01*
Y45547D01*
X169038D01*
Y44453D01*
X167441D01*
Y36547D01*
X169038D01*
Y35453D01*
X167595D01*
Y32712D01*
X163453D01*
Y33406D01*
X155547D01*
Y32774D01*
X151802D01*
X151494Y33517D01*
X150853Y34353D01*
X150017Y34994D01*
X149044Y35397D01*
X148000Y35535D01*
X146956Y35397D01*
X145983Y34994D01*
X145147Y34353D01*
X144506Y33517D01*
X144103Y32544D01*
X143965Y31500D01*
X144103Y30456D01*
X144506Y29483D01*
X145147Y28647D01*
X145983Y28006D01*
X146956Y27603D01*
X148000Y27466D01*
X149044Y27603D01*
X150017Y28006D01*
X150853Y28647D01*
X150890Y28695D01*
X155547D01*
Y26287D01*
Y25154D01*
X159500D01*
X163453D01*
Y26287D01*
Y28634D01*
X167595D01*
Y27547D01*
X174666D01*
X174913Y27047D01*
X174506Y26517D01*
X174499Y26500D01*
X181501D01*
X181494Y26517D01*
X181087Y27047D01*
X181334Y27547D01*
X181405D01*
Y29500D01*
X177846D01*
Y31500D01*
X175846D01*
Y35453D01*
X173116D01*
Y36547D01*
X175693D01*
Y40500D01*
Y44453D01*
X173116D01*
Y45547D01*
X175846D01*
Y49500D01*
Y53453D01*
D02*
G37*
G36*
X86244Y32948D02*
Y31500D01*
X87692D01*
X87063Y32319D01*
X86244Y32948D01*
D02*
G37*
G36*
X82244Y32948D02*
X81425Y32319D01*
X80796Y31500D01*
X82244D01*
Y32948D01*
D02*
G37*
G36*
Y27500D02*
X80796D01*
X81425Y26681D01*
X82244Y26052D01*
Y27500D01*
D02*
G37*
G36*
X87692D02*
X86244D01*
Y26052D01*
X87063Y26681D01*
X87692Y27500D01*
D02*
G37*
G36*
X145000Y26001D02*
Y24500D01*
X146501D01*
X146494Y24517D01*
X145853Y25353D01*
X145017Y25994D01*
X145000Y26001D01*
D02*
G37*
G36*
X141000D02*
X140983Y25994D01*
X140147Y25353D01*
X139506Y24517D01*
X139499Y24500D01*
X141000D01*
Y26001D01*
D02*
G37*
G36*
X102272Y31185D02*
X98728D01*
X97645Y31043D01*
X96636Y30625D01*
X95769Y29959D01*
X95104Y29093D01*
X94686Y28083D01*
X94543Y27000D01*
X94686Y25917D01*
X95104Y24907D01*
X95769Y24040D01*
X96636Y23375D01*
X97645Y22957D01*
X98728Y22815D01*
X102272D01*
X103355Y22957D01*
X104364Y23375D01*
X105231Y24040D01*
X105896Y24907D01*
X106315Y25917D01*
X106457Y27000D01*
X106315Y28083D01*
X105896Y29093D01*
X105231Y29959D01*
X104364Y30625D01*
X103355Y31043D01*
X102272Y31185D01*
D02*
G37*
G36*
X181501Y22500D02*
X180000D01*
Y20999D01*
X180017Y21006D01*
X180853Y21647D01*
X181494Y22483D01*
X181501Y22500D01*
D02*
G37*
G36*
X176000D02*
X174499D01*
X174506Y22483D01*
X175147Y21647D01*
X175983Y21006D01*
X176000Y20999D01*
Y22500D01*
D02*
G37*
G36*
X24342Y24342D02*
X15500D01*
Y15500D01*
X24342D01*
Y24342D01*
D02*
G37*
G36*
X11500D02*
X2657D01*
Y15500D01*
X11500D01*
Y24342D01*
D02*
G37*
G36*
X88197Y23453D02*
X80291D01*
Y15547D01*
X83698D01*
X84273Y15433D01*
X84848Y15547D01*
X88197D01*
Y23453D01*
D02*
G37*
G36*
X37000Y35376D02*
X35299Y35242D01*
X33639Y34844D01*
X32062Y34191D01*
X30607Y33299D01*
X29309Y32190D01*
X28201Y30893D01*
X27309Y29438D01*
X26656Y27861D01*
X26258Y26201D01*
X26124Y24500D01*
X26258Y22799D01*
X26656Y21139D01*
X27309Y19562D01*
X28201Y18107D01*
X29309Y16809D01*
X30607Y15701D01*
X32062Y14809D01*
X33639Y14156D01*
X35299Y13758D01*
X37000Y13624D01*
X38701Y13758D01*
X40361Y14156D01*
X41938Y14809D01*
X43393Y15701D01*
X44690Y16809D01*
X45799Y18107D01*
X46691Y19562D01*
X47344Y21139D01*
X47742Y22799D01*
X47876Y24500D01*
X47742Y26201D01*
X47344Y27861D01*
X46691Y29438D01*
X45799Y30893D01*
X44690Y32190D01*
X43393Y33299D01*
X41938Y34191D01*
X40361Y34844D01*
X38701Y35242D01*
X37000Y35376D01*
D02*
G37*
G36*
X102272Y21185D02*
X98728D01*
X97645Y21043D01*
X96636Y20625D01*
X95769Y19960D01*
X95104Y19093D01*
X94686Y18083D01*
X94543Y17000D01*
X94686Y15917D01*
X95104Y14907D01*
X95769Y14040D01*
X96636Y13375D01*
X97645Y12957D01*
X98728Y12815D01*
X102272D01*
X103355Y12957D01*
X104364Y13375D01*
X105231Y14040D01*
X105896Y14907D01*
X106315Y15917D01*
X106457Y17000D01*
X106315Y18083D01*
X105896Y19093D01*
X105231Y19960D01*
X104364Y20625D01*
X103355Y21043D01*
X102272Y21185D01*
D02*
G37*
G36*
X24342Y11500D02*
X15500D01*
Y2657D01*
X24342D01*
Y11500D01*
D02*
G37*
G36*
X11500D02*
X2657D01*
Y2657D01*
X11500D01*
Y11500D01*
D02*
G37*
%LPD*%
D13*
X171153Y31500D02*
D03*
X177847D02*
D03*
X171000Y40500D02*
D03*
X177693D02*
D03*
X171153Y49500D02*
D03*
X177847D02*
D03*
D14*
X159500Y29847D02*
D03*
Y23154D02*
D03*
D15*
X99000Y108500D02*
D03*
X87583D02*
D03*
D33*
X181000Y122126D02*
D03*
Y130000D02*
D03*
X180500Y144000D02*
D03*
Y154000D02*
D03*
X247000Y153500D02*
D03*
Y145626D02*
D03*
D34*
X106000Y94500D02*
G03*
X101250Y89750I0J-4750D01*
G01*
X83000Y19000D02*
X84273Y17727D01*
X82750Y18750D02*
X83000Y19000D01*
X106000Y94500D02*
Y100000D01*
X101250Y79250D02*
Y89750D01*
X100500Y80000D02*
Y86500D01*
Y80000D02*
X101250Y79250D01*
X106000Y100000D02*
X107000Y101000D01*
X204272Y41272D02*
Y51000D01*
X193000Y30000D02*
X204272Y41272D01*
X123500Y83000D02*
Y94500D01*
X122500Y82000D02*
X123500Y83000D01*
X99773Y17727D02*
X100500Y17000D01*
D35*
X131700Y17800D02*
X182800D01*
X130000Y19500D02*
X131700Y17800D01*
X117000Y22000D02*
Y35500D01*
Y22000D02*
X125800Y13200D01*
X207200D01*
X217300Y23300D01*
X135500Y57500D02*
X176000D01*
X179500Y54000D01*
Y45500D02*
Y54000D01*
Y40500D02*
Y45500D01*
Y37000D02*
Y40500D01*
Y31500D02*
Y37000D01*
Y27500D02*
Y31500D01*
X171000Y40500D02*
X171077Y40577D01*
Y49423D01*
X171153Y49500D01*
X171077Y31577D02*
X171153Y31500D01*
X171077Y31577D02*
Y40423D01*
X171000Y40500D02*
X171077Y40423D01*
X170327Y30673D02*
X171153Y31500D01*
X160327Y30673D02*
X170327D01*
X159500Y29847D02*
X160327Y30673D01*
X148000Y31500D02*
X148765Y30735D01*
X158612D01*
X159500Y29847D01*
X178000Y26000D02*
X179500Y27500D01*
X178000Y24500D02*
Y26000D01*
X176500Y24500D02*
X178000D01*
X144300Y111700D02*
X151500Y104500D01*
X101000Y79000D02*
X101250Y79250D01*
X101000Y61000D02*
Y79000D01*
X173500Y21500D02*
X176500Y24500D01*
X145082Y21500D02*
X173500D01*
X144082Y22500D02*
X145082Y21500D01*
X143000Y22500D02*
X144082D01*
X180500Y80000D02*
X181500Y79000D01*
Y67500D02*
Y79000D01*
X188347Y23347D02*
Y63347D01*
X180500Y80000D02*
Y85125D01*
X163500Y85000D02*
X168000D01*
X147500Y69000D02*
X163500Y85000D01*
X180500Y85125D02*
X185000Y89625D01*
Y107500D01*
X191000Y113500D01*
X182800Y17800D02*
X188347Y23347D01*
X126000Y8500D02*
X206318D01*
X217300Y23300D02*
Y69465D01*
X206318Y8500D02*
X221800Y23982D01*
X113700Y3800D02*
X205437D01*
X227500Y25863D01*
Y35500D01*
X110000Y7500D02*
X113700Y3800D01*
X110000Y7500D02*
Y63000D01*
X99000Y110898D02*
X110850Y122748D01*
Y126650D01*
X110800Y118880D02*
X117500Y125580D01*
Y131000D01*
X234968Y119468D02*
Y138559D01*
X229000Y113500D02*
X234968Y119468D01*
X221800Y45681D02*
X224500Y48381D01*
X221800Y23982D02*
Y45681D01*
X226500Y78665D02*
Y80500D01*
X217300Y69465D02*
X226500Y78665D01*
X100250Y60250D02*
X101000Y61000D01*
X203000Y66250D02*
Y66500D01*
X204200Y67700D01*
Y81300D01*
X190347Y65347D02*
X194927D01*
X188347Y63347D02*
X190347Y65347D01*
X201000Y84500D02*
X204200Y81300D01*
X194927Y65347D02*
X201500Y71920D01*
Y79000D01*
X198000Y82500D02*
X201500Y79000D01*
X198000Y82500D02*
Y96828D01*
X199172Y98000D01*
X202418D01*
X204418Y96000D01*
X205500D01*
X126200Y111700D02*
X144300D01*
X121500Y107000D02*
X126200Y111700D01*
X115053Y102300D02*
X123800D01*
X110800Y106553D02*
X115053Y102300D01*
X123800D02*
X128000Y106500D01*
X131000D01*
X110800Y106553D02*
Y118880D01*
X115562Y94209D02*
X120553Y99200D01*
X115562Y56500D02*
Y94209D01*
X120553Y99200D02*
X169550D01*
X174750Y94000D01*
X202000Y88000D02*
X205000D01*
X201000Y87000D02*
X202000Y88000D01*
X201000Y84500D02*
Y87000D01*
X205000Y88000D02*
X205500Y87500D01*
X76529Y111043D02*
X86024D01*
X72572Y115000D02*
X76529Y111043D01*
X72000Y115000D02*
X72572D01*
X63000Y125500D02*
X64512Y123988D01*
X212500Y106796D02*
Y107067D01*
X207000Y113500D02*
X208906Y111594D01*
Y110660D02*
Y111594D01*
Y110660D02*
X212500Y107067D01*
X191000Y113500D02*
X207000D01*
X211500Y80000D02*
X212500D01*
X228000Y138500D02*
X228029Y138530D01*
X99000Y108500D02*
Y110898D01*
X147000Y69000D02*
X147500D01*
X151300Y111700D02*
X151500Y111500D01*
X86024Y111043D02*
X87583Y109484D01*
Y108500D02*
Y109484D01*
X100500Y47000D02*
X101500Y48000D01*
D36*
X175500Y138000D02*
X177000Y136500D01*
X126000Y138000D02*
X175500D01*
X246000Y153285D02*
Y153500D01*
X221500Y118500D02*
Y140000D01*
X213500Y148000D02*
X221500Y140000D01*
D37*
X193000Y140500D02*
Y163000D01*
D38*
X200312Y138500D02*
X200500D01*
D39*
X194634Y180134D02*
X199500Y185000D01*
D40*
X37000Y24500D02*
D03*
Y84500D02*
D03*
D41*
X84244Y89500D02*
D03*
Y79500D02*
D03*
Y69500D02*
D03*
Y59500D02*
D03*
Y49500D02*
D03*
Y39500D02*
D03*
Y29500D02*
D03*
X212500Y40000D02*
D03*
Y50000D02*
D03*
Y60000D02*
D03*
Y70000D02*
D03*
Y80000D02*
D03*
Y90000D02*
D03*
Y100000D02*
D03*
X193000Y30000D02*
D03*
Y40000D02*
D03*
Y50000D02*
D03*
Y60000D02*
D03*
Y70000D02*
D03*
Y80000D02*
D03*
Y90000D02*
D03*
X116000Y117500D02*
D03*
X126000D02*
D03*
X121500Y149000D02*
D03*
X131500D02*
D03*
X141500D02*
D03*
X151500D02*
D03*
X161500D02*
D03*
X126000Y129000D02*
D03*
X151500Y121500D02*
D03*
Y131500D02*
D03*
D42*
X84244Y19500D02*
D03*
X212500Y30000D02*
D03*
X193000Y100000D02*
D03*
X151500Y111500D02*
D03*
D43*
X100500Y47000D02*
D03*
D44*
Y37000D02*
D03*
Y27000D02*
D03*
Y17000D02*
D03*
D45*
X136000Y117500D02*
D03*
X111500Y149000D02*
D03*
X136000Y129000D02*
D03*
D46*
X200500Y148500D02*
D03*
Y138500D02*
D03*
X228000Y128500D02*
D03*
Y138500D02*
D03*
D47*
X200500Y128500D02*
D03*
X228000Y148500D02*
D03*
D48*
X63000Y127500D02*
D03*
X33000D02*
D03*
D49*
X81890Y124835D02*
D03*
X100000D02*
D03*
Y152000D02*
D03*
X81890D02*
D03*
X261000Y128500D02*
D03*
X241000D02*
D03*
X234335Y46110D02*
D03*
Y28000D02*
D03*
X261500D02*
D03*
Y46110D02*
D03*
X234335Y75110D02*
D03*
Y57000D02*
D03*
X261500D02*
D03*
Y75110D02*
D03*
X234335Y104610D02*
D03*
Y86500D02*
D03*
X261500D02*
D03*
Y104610D02*
D03*
D50*
X13000Y158000D02*
D03*
X269000Y13500D02*
D03*
Y158500D02*
D03*
D51*
X13500Y13500D02*
D03*
D52*
X199500Y185000D02*
D03*
X246000D02*
D03*
D53*
X130000Y19500D02*
D03*
X117000Y35500D02*
D03*
X135500Y57500D02*
D03*
X178000Y24500D02*
D03*
X100500Y86500D02*
D03*
X107000Y101000D02*
D03*
X181500Y67500D02*
D03*
X180500Y80000D02*
D03*
X168000Y85000D02*
D03*
X148000Y31500D02*
D03*
X143000Y22500D02*
D03*
X126000Y8500D02*
D03*
X110850Y126650D02*
D03*
X117500Y131000D02*
D03*
X227500Y35500D02*
D03*
X224500Y48381D02*
D03*
X229000Y113500D02*
D03*
X226500Y80500D02*
D03*
X100250Y60250D02*
D03*
X203000Y66250D02*
D03*
X204272Y51000D02*
D03*
X222000Y60000D02*
D03*
X131000Y106500D02*
D03*
X121500Y107000D02*
D03*
X177000Y136500D02*
D03*
X147000Y69000D02*
D03*
X115562Y56500D02*
D03*
X110000Y63000D02*
D03*
X122500Y82000D02*
D03*
X123500Y94500D02*
D03*
X193000Y163000D02*
D03*
X205500Y87500D02*
D03*
Y96000D02*
D03*
X72000Y115000D02*
D03*
X193000Y140500D02*
D03*
X151500Y104500D02*
D03*
X212500Y106796D02*
D03*
X174750Y94000D02*
D03*
X234968Y138559D02*
D03*
X126000Y138000D02*
D03*
X221500Y118500D02*
D03*
X213500Y148000D02*
D03*
M02*
