G04*
G04 #@! TF.GenerationSoftware,Altium Limited,Altium Designer,19.1.5 (86)*
G04*
G04 Layer_Color=65535*
%FSLAX25Y25*%
%MOIN*%
G70*
G01*
G75*
%ADD10C,0.00800*%
%ADD11C,0.00787*%
%ADD12C,0.01000*%
D10*
X96693Y138260D02*
G03*
X96693Y138260I-5590J0D01*
G01*
X253350Y36898D02*
G03*
X253350Y36898I-5590J0D01*
G01*
Y65898D02*
G03*
X253350Y65898I-5590J0D01*
G01*
Y95398D02*
G03*
X253350Y95398I-5590J0D01*
G01*
X70500Y100000D02*
X75500Y105000D01*
X25500Y100000D02*
X70500D01*
X20500Y105000D02*
X25500Y100000D01*
X20500Y105000D02*
Y150000D01*
X25500Y155000D01*
X70500D01*
X75500Y150000D01*
Y105000D02*
Y150000D01*
X23000Y117500D02*
X33000D01*
X63000D02*
X73000D01*
X68000Y112500D02*
Y122500D01*
X81102Y129953D02*
Y146882D01*
X100787D01*
Y129953D02*
Y146882D01*
X81102Y129953D02*
X100787D01*
X239453Y46898D02*
X256382D01*
Y27213D02*
Y46898D01*
X239453Y27213D02*
X256382D01*
X239453D02*
Y46898D01*
Y75898D02*
X256382D01*
Y56213D02*
Y75898D01*
X239453Y56213D02*
X256382D01*
X239453D02*
Y75898D01*
Y105398D02*
X256382D01*
Y85713D02*
Y105398D01*
X239453Y85713D02*
X256382D01*
X239453D02*
Y105398D01*
D11*
X218759Y185000D02*
G03*
X218759Y185000I-19259J0D01*
G01*
X265259D02*
G03*
X265259Y185000I-19259J0D01*
G01*
X181587Y28941D02*
Y34059D01*
X181433Y37941D02*
Y43059D01*
X181587Y46941D02*
Y52059D01*
X156941Y19413D02*
X162059D01*
X26744Y12000D02*
Y95484D01*
Y12000D02*
X89244D01*
Y95484D01*
X26744D02*
X89244D01*
X198000Y24016D02*
Y106016D01*
X188000D02*
X198000D01*
X188000Y24016D02*
Y106016D01*
Y24016D02*
X198000D01*
X121000Y124000D02*
X141000D01*
Y134000D01*
X121000D02*
X141000D01*
X121000Y124000D02*
Y134000D01*
X91716Y105350D02*
X94866D01*
X91716Y111650D02*
X94866D01*
X156500Y106500D02*
Y136500D01*
X146500D02*
X156500D01*
X146500Y106500D02*
Y136500D01*
Y106500D02*
X156500D01*
D12*
X17502Y26500D02*
Y29832D01*
Y28166D01*
X22500D01*
Y31498D02*
Y33165D01*
Y32331D01*
X19168D01*
Y31498D01*
Y38996D02*
Y36497D01*
X20001Y35664D01*
X21667D01*
X22500Y36497D01*
Y38996D01*
X18335Y41495D02*
X19168D01*
Y40662D01*
Y42328D01*
Y41495D01*
X21667D01*
X22500Y42328D01*
X19168Y45660D02*
Y47327D01*
X20001Y48160D01*
X22500D01*
Y45660D01*
X21667Y44827D01*
X20834Y45660D01*
Y48160D01*
X19168Y53158D02*
Y50659D01*
X20001Y49826D01*
X21667D01*
X22500Y50659D01*
Y53158D01*
X17501Y55500D02*
Y57499D01*
X19000Y61498D02*
X16001D01*
Y62998D01*
X16501Y63497D01*
X17501D01*
X18000Y62998D01*
Y61498D01*
X19000Y64497D02*
X17001D01*
X16001Y65497D01*
X17001Y66496D01*
X19000D01*
X17501D01*
Y64497D01*
X16501Y69495D02*
X16001Y68996D01*
Y67996D01*
X16501Y67496D01*
X18500D01*
X19000Y67996D01*
Y68996D01*
X18500Y69495D01*
X17501D01*
Y68496D01*
X16001Y72495D02*
Y70495D01*
X19000D01*
Y72495D01*
X17501Y70495D02*
Y71495D01*
X16001Y73494D02*
Y75494D01*
Y74494D01*
X19000D01*
X17501Y76493D02*
Y78493D01*
X19000Y79492D02*
X16001D01*
X17001Y80492D01*
X16001Y81492D01*
X19000D01*
X16001Y82491D02*
Y83491D01*
Y82991D01*
X19000D01*
Y82491D01*
Y83491D01*
X16001Y86490D02*
Y85490D01*
X16501Y84991D01*
X18500D01*
X19000Y85490D01*
Y86490D01*
X18500Y86990D01*
X16501D01*
X16001Y86490D01*
Y87989D02*
Y89989D01*
Y88989D01*
X19000D01*
X17501Y90988D02*
Y92988D01*
Y93988D02*
Y95987D01*
X16501Y98986D02*
X16001Y98486D01*
Y97486D01*
X16501Y96987D01*
X17001D01*
X17501Y97486D01*
Y98486D01*
X18000Y98986D01*
X18500D01*
X19000Y98486D01*
Y97486D01*
X18500Y96987D01*
X19000Y99986D02*
X17001D01*
X16001Y100985D01*
X17001Y101985D01*
X19000D01*
X17501D01*
Y99986D01*
X16001Y102985D02*
X19000D01*
Y104984D01*
X16001Y105984D02*
X19000D01*
Y107983D01*
X16001Y110982D02*
Y108983D01*
X19000D01*
Y110982D01*
X17501Y108983D02*
Y109982D01*
X16501Y113981D02*
X16001Y113481D01*
Y112482D01*
X16501Y111982D01*
X17001D01*
X17501Y112482D01*
Y113481D01*
X18000Y113981D01*
X18500D01*
X19000Y113481D01*
Y112482D01*
X18500Y111982D01*
X19000Y117980D02*
X16001D01*
X17001Y118980D01*
X16001Y119979D01*
X19000D01*
Y120979D02*
Y121978D01*
Y121479D01*
X17001D01*
Y120979D01*
X19000Y123478D02*
Y124478D01*
Y123978D01*
X16001D01*
Y123478D01*
X19000Y126477D02*
Y127477D01*
X18500Y127977D01*
X17501D01*
X17001Y127477D01*
Y126477D01*
X17501Y125977D01*
X18500D01*
X19000Y126477D01*
X17001Y128976D02*
X19000Y129976D01*
X17001Y130976D01*
Y132475D02*
Y133475D01*
X17501Y133975D01*
X19000D01*
Y132475D01*
X18500Y131975D01*
X18000Y132475D01*
Y133975D01*
X19000Y134974D02*
X17001D01*
Y136474D01*
X17501Y136974D01*
X19000D01*
X205832Y20498D02*
X202500D01*
Y15500D01*
X205832D01*
X202500Y17999D02*
X204166D01*
X210831Y19665D02*
X209998Y20498D01*
X208331D01*
X207498Y19665D01*
Y18832D01*
X208331Y17999D01*
X209998D01*
X210831Y17166D01*
Y16333D01*
X209998Y15500D01*
X208331D01*
X207498Y16333D01*
X215829Y20498D02*
X212497D01*
Y15500D01*
X215829D01*
X212497Y17999D02*
X214163D01*
X219994Y20498D02*
X218328D01*
X217495Y19665D01*
Y16333D01*
X218328Y15500D01*
X219994D01*
X220827Y16333D01*
Y19665D01*
X219994Y20498D01*
X227492Y17999D02*
X230824D01*
X240821Y15500D02*
X237489D01*
X240821Y18832D01*
Y19665D01*
X239988Y20498D01*
X238322D01*
X237489Y19665D01*
X242487D02*
X243320Y20498D01*
X244986D01*
X245819Y19665D01*
Y16333D01*
X244986Y15500D01*
X243320D01*
X242487Y16333D01*
Y19665D01*
X250818Y15500D02*
X247485D01*
X250818Y18832D01*
Y19665D01*
X249985Y20498D01*
X248319D01*
X247485Y19665D01*
X255816Y20498D02*
X252484D01*
Y17999D01*
X254150Y18832D01*
X254983D01*
X255816Y17999D01*
Y16333D01*
X254983Y15500D01*
X253317D01*
X252484Y16333D01*
X22501Y55499D02*
Y57498D01*
X24000Y61497D02*
X21001D01*
Y62997D01*
X21501Y63496D01*
X22501D01*
X23000Y62997D01*
Y61497D01*
X21001Y64496D02*
Y65496D01*
Y64996D01*
X24000D01*
Y64496D01*
Y65496D01*
Y66995D02*
X21001D01*
X24000Y68995D01*
X21001D01*
Y71994D02*
Y69994D01*
X24000D01*
Y71994D01*
X22501Y69994D02*
Y70994D01*
X24000Y72993D02*
X22001D01*
X21001Y73993D01*
X22001Y74993D01*
X24000D01*
X22501D01*
Y72993D01*
X21001Y75992D02*
X23500D01*
X24000Y76492D01*
Y77492D01*
X23500Y77992D01*
X21001D01*
Y81990D02*
Y83990D01*
Y82990D01*
X24000D01*
X21001Y84990D02*
X24000D01*
X22501D01*
X22001Y85489D01*
Y86489D01*
X22501Y86989D01*
X24000D01*
Y88488D02*
Y89488D01*
X23500Y89988D01*
X22501D01*
X22001Y89488D01*
Y88488D01*
X22501Y87989D01*
X23500D01*
X24000Y88488D01*
Y90987D02*
X22001D01*
Y91487D01*
X22501Y91987D01*
X24000D01*
X22501D01*
X22001Y92487D01*
X22501Y92987D01*
X24000D01*
X22001Y94486D02*
Y95486D01*
X22501Y95986D01*
X24000D01*
Y94486D01*
X23500Y93987D01*
X23000Y94486D01*
Y95986D01*
X24000Y96986D02*
Y98485D01*
X23500Y98985D01*
X23000Y98485D01*
Y97486D01*
X22501Y96986D01*
X22001Y97486D01*
Y98985D01*
X45000Y88000D02*
Y90999D01*
X46000Y89999D01*
X46999Y90999D01*
Y88000D01*
X47999D02*
Y90999D01*
X49499D01*
X49998Y90499D01*
Y89499D01*
X49499Y89000D01*
X47999D01*
X50998Y90999D02*
Y88500D01*
X51498Y88000D01*
X52498D01*
X52997Y88500D01*
Y90999D01*
X55996D02*
X54997Y90499D01*
X53997Y89499D01*
Y88500D01*
X54497Y88000D01*
X55497D01*
X55996Y88500D01*
Y89000D01*
X55497Y89499D01*
X53997D01*
X56996Y90499D02*
X57496Y90999D01*
X58496D01*
X58995Y90499D01*
Y88500D01*
X58496Y88000D01*
X57496D01*
X56996Y88500D01*
Y90499D01*
X61994Y90999D02*
X59995D01*
Y89499D01*
X60995Y89999D01*
X61495D01*
X61994Y89499D01*
Y88500D01*
X61495Y88000D01*
X60495D01*
X59995Y88500D01*
X62994Y90499D02*
X63494Y90999D01*
X64494D01*
X64994Y90499D01*
Y88500D01*
X64494Y88000D01*
X63494D01*
X62994Y88500D01*
Y90499D01*
X85500Y145499D02*
Y142500D01*
X86999D01*
X87499Y143000D01*
Y143500D01*
X86999Y144000D01*
X85500D01*
X86999D01*
X87499Y144499D01*
Y144999D01*
X86999Y145499D01*
X85500D01*
X88499Y142500D02*
Y145499D01*
X89999D01*
X90498Y144999D01*
Y144000D01*
X89999Y143500D01*
X88499D01*
X89499D02*
X90498Y142500D01*
X91498D02*
X92998D01*
X93497Y143000D01*
X92998Y143500D01*
X91998D01*
X91498Y144000D01*
X91998Y144499D01*
X93497D01*
X94997Y144999D02*
Y144499D01*
X94497D01*
X95497D01*
X94997D01*
Y143000D01*
X95497Y142500D01*
X188999Y111500D02*
X188000D01*
X187500Y112000D01*
Y112999D01*
X188000Y113499D01*
X188999D01*
X189499Y112999D01*
Y112500D01*
X187500D01*
X190499Y110500D02*
Y113499D01*
X191999D01*
X192498Y112999D01*
Y112000D01*
X191999Y111500D01*
X190499D01*
X195497Y114499D02*
Y111500D01*
X193998D01*
X193498Y112000D01*
Y112999D01*
X193998Y113499D01*
X195497D01*
X196497Y111500D02*
X197497D01*
X196997D01*
Y114499D01*
X196497Y113999D01*
X198996Y111500D02*
X199996D01*
X199496D01*
Y113499D01*
X198996D01*
X201496Y111500D02*
Y113499D01*
X202995D01*
X203495Y112999D01*
Y111500D01*
X206494Y114499D02*
X204495D01*
Y112999D01*
X205494Y113499D01*
X205994D01*
X206494Y112999D01*
Y112000D01*
X205994Y111500D01*
X204994D01*
X204495Y112000D01*
X208993Y111500D02*
Y114499D01*
X207493Y112999D01*
X209493D01*
X210493Y111000D02*
X212492D01*
X213492Y114499D02*
Y112500D01*
X214491Y111500D01*
X215491Y112500D01*
Y114499D01*
X218490Y111500D02*
X216491D01*
X218490Y113499D01*
Y113999D01*
X217990Y114499D01*
X216990D01*
X216491Y113999D01*
X84800Y116200D02*
Y119199D01*
X86300D01*
X86799Y118699D01*
Y117700D01*
X86300Y117200D01*
X84800D01*
X85800D02*
X86799Y116200D01*
X87799D02*
X89299D01*
X89798Y116700D01*
X89299Y117200D01*
X88299D01*
X87799Y117700D01*
X88299Y118199D01*
X89798D01*
X92797Y118699D02*
X92298Y119199D01*
X91298D01*
X90798Y118699D01*
Y118199D01*
X91298Y117700D01*
X92298D01*
X92797Y117200D01*
Y116700D01*
X92298Y116200D01*
X91298D01*
X90798Y116700D01*
X93797Y116200D02*
Y119199D01*
X94797Y118199D01*
X95796Y119199D01*
Y116200D01*
X96796D02*
Y118199D01*
X97796Y119199D01*
X98795Y118199D01*
Y116200D01*
Y117700D01*
X96796D01*
X182499Y216698D02*
X180499D01*
X181499D01*
Y211700D01*
X180499Y210700D01*
X179500D01*
X178500Y211700D01*
X184498Y209700D02*
X188497D01*
X194495Y215698D02*
X193495Y216698D01*
X191496D01*
X190496Y215698D01*
Y211700D01*
X191496Y210700D01*
X193495D01*
X194495Y211700D01*
Y213699D01*
X192496D01*
X196494Y210700D02*
Y216698D01*
X200493Y210700D01*
Y216698D01*
X202492D02*
Y210700D01*
X205491D01*
X206491Y211700D01*
Y215698D01*
X205491Y216698D01*
X202492D01*
X228999D02*
X226999D01*
X227999D01*
Y211700D01*
X226999Y210700D01*
X226000D01*
X225000Y211700D01*
X230998Y209700D02*
X234997D01*
X236996Y216698D02*
Y212699D01*
X238996Y210700D01*
X240995Y212699D01*
Y216698D01*
X246993Y215698D02*
X245993Y216698D01*
X243994D01*
X242994Y215698D01*
Y211700D01*
X243994Y210700D01*
X245993D01*
X246993Y211700D01*
X252991Y215698D02*
X251991Y216698D01*
X249992D01*
X248992Y215698D01*
Y211700D01*
X249992Y210700D01*
X251991D01*
X252991Y211700D01*
M02*
