G04*
G04 #@! TF.GenerationSoftware,Altium Limited,Altium Designer,19.1.5 (86)*
G04*
G04 Layer_Color=128*
%FSLAX25Y25*%
%MOIN*%
G70*
G01*
G75*
%ADD13R,0.05118X0.05906*%
%ADD14R,0.05906X0.05118*%
%ADD15R,0.05118X0.07087*%
%ADD54R,0.07087X0.05118*%
%ADD55R,0.06000X0.06000*%
%ADD56R,0.21654X0.07874*%
%ADD57R,0.02000X0.05800*%
%ADD58R,0.05800X0.02000*%
D13*
X44500Y127500D02*
D03*
X51193D02*
D03*
X96346Y107000D02*
D03*
X89653D02*
D03*
X92000Y139500D02*
D03*
X85307D02*
D03*
D14*
X247000Y45500D02*
D03*
Y52193D02*
D03*
X247500Y74154D02*
D03*
Y80847D02*
D03*
Y110500D02*
D03*
Y103807D02*
D03*
D15*
X115209Y138500D02*
D03*
X103791D02*
D03*
D54*
X75500Y34000D02*
D03*
Y22583D02*
D03*
X108500Y84209D02*
D03*
Y72791D02*
D03*
X75500Y42500D02*
D03*
Y53917D02*
D03*
D55*
X247500Y95500D02*
D03*
X260500D02*
D03*
X247000Y66000D02*
D03*
X260000D02*
D03*
X246500Y37000D02*
D03*
X259500D02*
D03*
D56*
X69201Y142500D02*
D03*
X31799D02*
D03*
D57*
X130476Y79200D02*
D03*
X133626D02*
D03*
X136776D02*
D03*
X139925D02*
D03*
X143075D02*
D03*
X146224D02*
D03*
X149374D02*
D03*
X152524D02*
D03*
Y46800D02*
D03*
X149374D02*
D03*
X146224D02*
D03*
X143075D02*
D03*
X139925D02*
D03*
X136776D02*
D03*
X133626D02*
D03*
X130476D02*
D03*
D58*
X157700Y74024D02*
D03*
Y70874D02*
D03*
Y67724D02*
D03*
Y64575D02*
D03*
Y61425D02*
D03*
Y58276D02*
D03*
Y55126D02*
D03*
Y51976D02*
D03*
X125300D02*
D03*
Y55126D02*
D03*
Y58276D02*
D03*
Y61425D02*
D03*
Y64575D02*
D03*
Y67724D02*
D03*
Y70874D02*
D03*
Y74024D02*
D03*
M02*
