G04*
G04 #@! TF.GenerationSoftware,Altium Limited,Altium Designer,19.1.5 (86)*
G04*
G04 Layer_Physical_Order=2*
G04 Layer_Color=16711680*
%FSLAX25Y25*%
%MOIN*%
G70*
G01*
G75*
%ADD13R,0.05118X0.05906*%
%ADD14R,0.05906X0.05118*%
%ADD15R,0.05118X0.07087*%
%ADD33C,0.06400*%
%ADD34C,0.02500*%
%ADD35C,0.02000*%
%ADD36C,0.03500*%
%ADD37C,0.05000*%
%ADD39C,0.10000*%
%ADD40C,0.19685*%
%ADD41C,0.05906*%
%ADD42R,0.05906X0.05906*%
%ADD43R,0.09843X0.06299*%
%ADD44O,0.09843X0.06299*%
%ADD45R,0.05906X0.05906*%
%ADD46C,0.06693*%
%ADD47R,0.06693X0.06693*%
%ADD48C,0.09900*%
%ADD49C,0.07900*%
%ADD50R,0.19685X0.19685*%
%ADD51R,0.19685X0.19685*%
%ADD52C,0.35433*%
%ADD53C,0.06000*%
%ADD54R,0.07087X0.05118*%
%ADD55R,0.06000X0.06000*%
%ADD56R,0.21654X0.07874*%
%ADD57R,0.02000X0.05800*%
%ADD58R,0.05800X0.02000*%
%ADD59C,0.03000*%
%ADD60R,0.06400X0.06400*%
G36*
X100232Y139175D02*
Y133957D01*
X104467D01*
X108163Y130260D01*
X108119Y129597D01*
X107997Y129503D01*
X107356Y128667D01*
X106953Y127694D01*
X106816Y126650D01*
X106953Y125606D01*
X107356Y124633D01*
X107997Y123797D01*
X108833Y123156D01*
X109806Y122753D01*
X110850Y122616D01*
X111894Y122753D01*
X112867Y123156D01*
X113703Y123797D01*
X114059Y124261D01*
X122501D01*
X122777Y123761D01*
X122772Y123736D01*
X119905Y120869D01*
X119497Y120257D01*
X118974Y120117D01*
X118819Y120319D01*
X118000Y120948D01*
Y117500D01*
Y114052D01*
X118819Y114681D01*
X118848Y114719D01*
X119383Y114594D01*
X119463Y114191D01*
X119905Y113529D01*
X121986Y111448D01*
X121765Y111000D01*
X121500Y111035D01*
X120456Y110897D01*
X119483Y110494D01*
X118647Y109853D01*
X118006Y109017D01*
X117999Y109000D01*
X121500D01*
Y105000D01*
X117999D01*
X118006Y104983D01*
X118647Y104147D01*
X119483Y103506D01*
X120456Y103103D01*
X121084Y103020D01*
X121487Y102484D01*
X121461Y102353D01*
Y97977D01*
X120647Y97353D01*
X120006Y96517D01*
X119603Y95544D01*
X119538Y95053D01*
X119010Y94873D01*
X117442Y96442D01*
X116780Y96884D01*
X116000Y97039D01*
X109411D01*
X109336Y97135D01*
X109417Y97813D01*
X109853Y98147D01*
X110494Y98983D01*
X110501Y99000D01*
X103499D01*
X103506Y98983D01*
X104147Y98147D01*
X104583Y97813D01*
X104664Y97135D01*
X104589Y97039D01*
X95198D01*
X91693Y100544D01*
Y103047D01*
X94346D01*
Y107000D01*
Y110953D01*
X88978D01*
X80486Y119445D01*
X80608Y119988D01*
X80630Y120008D01*
X81890Y119842D01*
X83182Y120012D01*
X84386Y120511D01*
X85420Y121304D01*
X86214Y122338D01*
X86712Y123542D01*
X86883Y124835D01*
X86712Y126127D01*
X86214Y127331D01*
X85420Y128365D01*
X84386Y129158D01*
X83811Y129397D01*
Y132273D01*
X84614Y133076D01*
X85056Y133738D01*
X85211Y134518D01*
Y135547D01*
X90000D01*
Y139500D01*
X92000D01*
Y141500D01*
X95559D01*
Y143141D01*
X96059Y143349D01*
X100232Y139175D01*
D02*
G37*
G36*
X262823Y109933D02*
X262589Y109460D01*
X261500Y109603D01*
X260208Y109433D01*
X259004Y108934D01*
X257970Y108141D01*
X257176Y107107D01*
X256677Y105902D01*
X256507Y104610D01*
X256677Y103318D01*
X257176Y102114D01*
X257970Y101080D01*
X259004Y100286D01*
X259695Y100000D01*
X259596Y99500D01*
X256500D01*
Y91500D01*
X259330D01*
X259429Y91000D01*
X259004Y90824D01*
X257970Y90030D01*
X257176Y88996D01*
X256677Y87792D01*
X256507Y86500D01*
X256677Y85208D01*
X257176Y84004D01*
X257970Y82970D01*
X259004Y82176D01*
X260208Y81677D01*
X261500Y81507D01*
X262792Y81677D01*
X263996Y82176D01*
X264706Y82721D01*
X265206Y82474D01*
Y79136D01*
X264706Y78890D01*
X263996Y79434D01*
X262792Y79933D01*
X261500Y80103D01*
X260208Y79933D01*
X259004Y79434D01*
X257970Y78641D01*
X257176Y77607D01*
X256677Y76402D01*
X256507Y75110D01*
X256677Y73818D01*
X257176Y72614D01*
X257970Y71580D01*
X259004Y70786D01*
X259695Y70500D01*
X259596Y70000D01*
X256000D01*
Y62000D01*
X259330D01*
X259429Y61500D01*
X259004Y61324D01*
X257970Y60530D01*
X257176Y59496D01*
X256677Y58292D01*
X256507Y57000D01*
X256677Y55708D01*
X257176Y54504D01*
X257970Y53470D01*
X259004Y52676D01*
X260208Y52177D01*
X261500Y52007D01*
X262792Y52177D01*
X263996Y52676D01*
X264606Y53144D01*
X265106Y52897D01*
Y50213D01*
X264606Y49966D01*
X263996Y50434D01*
X262792Y50933D01*
X261500Y51103D01*
X260208Y50933D01*
X259004Y50434D01*
X257970Y49641D01*
X257176Y48607D01*
X256677Y47402D01*
X256507Y46110D01*
X256677Y44818D01*
X257176Y43614D01*
X257970Y42580D01*
X259004Y41786D01*
X259695Y41500D01*
X259596Y41000D01*
X255500D01*
Y33000D01*
X259330D01*
X259429Y32500D01*
X259004Y32324D01*
X257970Y31530D01*
X257176Y30496D01*
X256677Y29292D01*
X256507Y28000D01*
X256677Y26708D01*
X257176Y25504D01*
X257970Y24470D01*
X258157Y24326D01*
Y2657D01*
X278867D01*
X279076Y2158D01*
X278981Y2061D01*
X191458D01*
X191267Y2523D01*
X193896Y5152D01*
X194125Y5495D01*
X194365Y5830D01*
X194373Y5866D01*
X194394Y5896D01*
X194474Y6301D01*
X194567Y6702D01*
X195192Y26700D01*
X195819Y27181D01*
X196453Y28007D01*
X196851Y28968D01*
X196987Y30000D01*
X196851Y31032D01*
X196453Y31993D01*
X196321Y32165D01*
X196542Y32614D01*
X207655D01*
X208547Y31722D01*
Y26047D01*
X216453D01*
Y33953D01*
X212084D01*
X209942Y36095D01*
X209280Y36537D01*
X208500Y36692D01*
X195960D01*
X195853Y37006D01*
X195828Y37192D01*
X196448Y38000D01*
X193000D01*
Y42000D01*
X196448D01*
X195819Y42819D01*
X195617Y42974D01*
X195757Y43497D01*
X196369Y43905D01*
X200712Y48248D01*
X201372Y48208D01*
X201419Y48147D01*
X202255Y47506D01*
X203228Y47103D01*
X204272Y46966D01*
X205316Y47103D01*
X206289Y47506D01*
X207125Y48147D01*
X207766Y48983D01*
X208052Y49673D01*
X208565Y49606D01*
X208649Y48968D01*
X209047Y48007D01*
X209681Y47181D01*
X210500Y46552D01*
Y50000D01*
X212500D01*
Y52000D01*
X215948D01*
X215319Y52819D01*
X214493Y53453D01*
X213532Y53851D01*
X212500Y53987D01*
X211468Y53851D01*
X210796Y53573D01*
X210513Y53996D01*
X212534Y56018D01*
X213532Y56149D01*
X214493Y56547D01*
X215319Y57181D01*
X215354Y57226D01*
X219087D01*
X219147Y57147D01*
X219983Y56506D01*
X220956Y56103D01*
X222000Y55966D01*
X223044Y56103D01*
X224017Y56506D01*
X224853Y57147D01*
X225494Y57983D01*
X225897Y58956D01*
X226034Y60000D01*
X225897Y61044D01*
X225494Y62017D01*
X224853Y62853D01*
X224524Y63105D01*
Y76539D01*
X224939Y76817D01*
X225456Y76603D01*
X226500Y76465D01*
X227544Y76603D01*
X228517Y77006D01*
X229353Y77647D01*
X229994Y78483D01*
X230397Y79456D01*
X230431Y79712D01*
X232585Y81867D01*
X233042Y81677D01*
X234335Y81507D01*
X235627Y81677D01*
X236831Y82176D01*
X237865Y82970D01*
X238658Y84004D01*
X239157Y85208D01*
X239327Y86500D01*
X239255Y87051D01*
X240837Y88632D01*
X242672D01*
X243452Y88788D01*
X244113Y89230D01*
X246384Y91500D01*
X251500D01*
Y99500D01*
X249539D01*
Y100248D01*
X251453D01*
Y106941D01*
Y108500D01*
X247500D01*
X243547D01*
Y106941D01*
Y100248D01*
X245461D01*
Y99500D01*
X243500D01*
Y94384D01*
X241827Y92711D01*
X239992D01*
X239212Y92555D01*
X238550Y92114D01*
X237074Y90637D01*
X236831Y90824D01*
X235627Y91323D01*
X234335Y91493D01*
X233042Y91323D01*
X231838Y90824D01*
X230804Y90030D01*
X230011Y88996D01*
X229512Y87792D01*
X229342Y86500D01*
X229512Y85208D01*
X229701Y84751D01*
X228759Y83808D01*
X228517Y83994D01*
X227544Y84397D01*
X226500Y84535D01*
X225456Y84397D01*
X224483Y83994D01*
X224272Y83832D01*
X223824Y84054D01*
Y115241D01*
X224353Y115647D01*
X224782Y116206D01*
X225469D01*
X225690Y115758D01*
X225506Y115517D01*
X225499Y115500D01*
X232501D01*
X232494Y115517D01*
X232310Y115758D01*
X232531Y116206D01*
X256550D01*
X262823Y109933D01*
D02*
G37*
G36*
X147547Y114010D02*
Y113500D01*
X151500D01*
Y109500D01*
X147547D01*
Y107547D01*
X148166D01*
X148413Y107047D01*
X148006Y106517D01*
X147999Y106500D01*
X151500D01*
Y104500D01*
X153500D01*
Y100999D01*
X153517Y101006D01*
X154353Y101647D01*
X154687Y102083D01*
X155365Y102164D01*
X155461Y102089D01*
Y94845D01*
X151324Y90708D01*
X150885Y90587D01*
X150656Y90728D01*
X146539Y94845D01*
Y113655D01*
X147085Y114201D01*
X147547Y114010D01*
D02*
G37*
G36*
X19973Y137563D02*
X40742D01*
X46390Y131915D01*
X46199Y131453D01*
X40941D01*
Y129500D01*
X44500D01*
Y127500D01*
X46500D01*
Y123547D01*
X51868D01*
X71584Y103832D01*
X72245Y103390D01*
X73026Y103234D01*
X78382D01*
X91558Y90058D01*
X92220Y89616D01*
X93000Y89461D01*
X93000Y89461D01*
X97100D01*
X97346Y88961D01*
X97006Y88517D01*
X96999Y88500D01*
X100500D01*
Y86500D01*
X102500D01*
Y82999D01*
X102517Y83006D01*
X103353Y83647D01*
X103483Y83817D01*
X103957Y83656D01*
Y80650D01*
X106500D01*
Y84209D01*
Y87768D01*
X104305D01*
X103994Y88517D01*
X103654Y88961D01*
X103900Y89461D01*
X114155D01*
X118358Y85258D01*
X118358Y85258D01*
X118999Y84830D01*
X119099Y84741D01*
X119251Y84337D01*
X119006Y84017D01*
X118603Y83044D01*
X118465Y82000D01*
X118603Y80956D01*
X119006Y79983D01*
X119647Y79147D01*
X120483Y78506D01*
X121456Y78103D01*
X122500Y77965D01*
X123544Y78103D01*
X124517Y78506D01*
X125353Y79147D01*
X125782Y79706D01*
X128437D01*
Y76046D01*
X128419Y76024D01*
X127300D01*
Y74024D01*
X123300D01*
Y76024D01*
X121400D01*
Y72913D01*
X113043D01*
Y76350D01*
X103957D01*
Y69764D01*
X97259D01*
X96479Y69608D01*
X95817Y69166D01*
X91408Y64757D01*
X90966Y64095D01*
X90811Y63315D01*
Y59695D01*
X84561Y53445D01*
X84244Y53487D01*
X83212Y53351D01*
X82633Y53111D01*
X80205Y55540D01*
X80043Y55647D01*
Y57476D01*
X70957D01*
Y50358D01*
X78897D01*
X80333Y48922D01*
X80393Y48468D01*
X80791Y47507D01*
X81425Y46681D01*
X82251Y46047D01*
X83212Y45649D01*
X84244Y45513D01*
X85276Y45649D01*
X86238Y46047D01*
X86514Y46259D01*
X87068Y46054D01*
X87086Y45969D01*
X84561Y43445D01*
X84244Y43487D01*
X83212Y43351D01*
X82251Y42953D01*
X81425Y42319D01*
X80791Y41493D01*
X80543Y40894D01*
X80043Y40994D01*
Y46059D01*
X70957D01*
Y43485D01*
X70691D01*
X69813Y43310D01*
X69069Y42813D01*
X66878Y40622D01*
X66381Y39878D01*
X66206Y39000D01*
Y28598D01*
X66381Y27720D01*
X66878Y26976D01*
X70957Y22897D01*
Y19024D01*
X77286D01*
X77864Y18909D01*
X80291D01*
Y15547D01*
X84952D01*
X85122Y15378D01*
X85866Y14881D01*
X86744Y14706D01*
X95258D01*
X95769Y14040D01*
X96636Y13375D01*
X97645Y12957D01*
X98206Y12883D01*
Y9006D01*
X98381Y8128D01*
X98878Y7384D01*
X103740Y2523D01*
X103548Y2061D01*
X2740D01*
X2373Y2213D01*
X2092Y2494D01*
X1939Y2862D01*
Y3061D01*
Y146748D01*
X2158Y147158D01*
X19973D01*
Y137563D01*
D02*
G37*
G36*
X102250Y56749D02*
X102267Y56756D01*
X103103Y57397D01*
X103678Y58146D01*
X104238Y58293D01*
X112173Y50358D01*
X112835Y49916D01*
X113615Y49761D01*
X125124D01*
X125904Y49916D01*
X125994Y49976D01*
X128476D01*
Y49039D01*
X111500D01*
X111500Y49039D01*
X110720Y48884D01*
X110058Y48442D01*
X110058Y48442D01*
X106883Y45267D01*
X106421Y45458D01*
Y51150D01*
X102500D01*
Y47000D01*
Y42850D01*
X103813D01*
X104005Y42388D01*
X102740Y41124D01*
X102272Y41185D01*
X98728D01*
X97645Y41043D01*
X96636Y40625D01*
X95769Y39959D01*
X95104Y39093D01*
X94686Y38083D01*
X94543Y37000D01*
X94686Y35917D01*
X95104Y34907D01*
X95769Y34040D01*
X96636Y33375D01*
X97645Y32957D01*
X98728Y32815D01*
X102272D01*
X103355Y32957D01*
X104364Y33375D01*
X105231Y34040D01*
X105758Y34727D01*
X106258Y34557D01*
Y33870D01*
X103408Y31021D01*
X103355Y31043D01*
X102272Y31185D01*
X98728D01*
X97645Y31043D01*
X96636Y30625D01*
X95769Y29959D01*
X95104Y29093D01*
X94686Y28083D01*
X94543Y27000D01*
X94686Y25917D01*
X95104Y24907D01*
X95769Y24040D01*
X96636Y23375D01*
X97645Y22957D01*
X98728Y22815D01*
X102272D01*
X103355Y22957D01*
X104364Y23375D01*
X105231Y24040D01*
X105896Y24907D01*
X106315Y25917D01*
X106457Y27000D01*
X106315Y28083D01*
X106292Y28137D01*
X109739Y31584D01*
X110181Y32245D01*
X110336Y33026D01*
Y35952D01*
X114345Y39961D01*
X116407D01*
X116440Y39461D01*
X115956Y39397D01*
X114983Y38994D01*
X114147Y38353D01*
X113506Y37517D01*
X113103Y36544D01*
X112966Y35500D01*
X113103Y34456D01*
X113506Y33483D01*
X114147Y32647D01*
X114983Y32006D01*
X115956Y31603D01*
X117000Y31466D01*
X118044Y31603D01*
X119017Y32006D01*
X119853Y32647D01*
X120477Y33461D01*
X127611D01*
X127803Y32999D01*
X119058Y24254D01*
X118616Y23593D01*
X118461Y22812D01*
Y14000D01*
X118616Y13220D01*
X119058Y12558D01*
X122099Y9517D01*
X121966Y8500D01*
X122103Y7456D01*
X122506Y6483D01*
X122652Y6293D01*
X122431Y5844D01*
X106907D01*
X102794Y9957D01*
Y12883D01*
X103355Y12957D01*
X104364Y13375D01*
X105231Y14040D01*
X105896Y14907D01*
X106315Y15917D01*
X106457Y17000D01*
X106315Y18083D01*
X105896Y19093D01*
X105231Y19960D01*
X104364Y20625D01*
X103355Y21043D01*
X102272Y21185D01*
X98728D01*
X97645Y21043D01*
X96636Y20625D01*
X95769Y19960D01*
X95258Y19294D01*
X88197D01*
Y23453D01*
X82763D01*
X82541Y23497D01*
X80043D01*
Y26142D01*
X74201D01*
X70794Y29549D01*
Y30008D01*
X70957Y30441D01*
X79877D01*
X79877Y30441D01*
X80044D01*
Y30994D01*
X80043Y30994D01*
Y32799D01*
X82987Y35742D01*
X83212Y35649D01*
X84244Y35513D01*
X85276Y35649D01*
X86238Y36047D01*
X87063Y36681D01*
X87697Y37507D01*
X88095Y38468D01*
X88231Y39500D01*
X88095Y40532D01*
X87896Y41012D01*
X90901Y44017D01*
X91343Y44679D01*
X91499Y45459D01*
Y49115D01*
X96992Y54608D01*
X97434Y55270D01*
X97589Y56050D01*
Y56685D01*
X98038Y56906D01*
X98233Y56756D01*
X98250Y56749D01*
Y60250D01*
X102250D01*
Y56749D01*
D02*
G37*
G36*
X138496Y65142D02*
X139157Y64700D01*
X139937Y64545D01*
X141348D01*
X150650Y55244D01*
X150404Y54876D01*
X150230Y53998D01*
Y50700D01*
X129200D01*
Y53126D01*
Y56276D01*
Y59425D01*
Y62575D01*
Y65724D01*
Y68874D01*
Y73785D01*
X129662Y73976D01*
X138496Y65142D01*
D02*
G37*
G36*
X163893Y60758D02*
X163893Y60758D01*
X164555Y60316D01*
X165335Y60161D01*
X178955D01*
X189025Y50091D01*
X189013Y50000D01*
X189149Y48968D01*
X189547Y48007D01*
X190123Y47256D01*
X190176Y47133D01*
X190128Y46591D01*
X181505Y37969D01*
X181063Y37308D01*
X180908Y36527D01*
Y30342D01*
X180833Y27929D01*
X180381Y27715D01*
X180017Y27994D01*
X180000Y28001D01*
Y24500D01*
X178000D01*
Y22500D01*
X174499D01*
X174506Y22483D01*
X175147Y21647D01*
X175322Y21513D01*
X175162Y21039D01*
X153345D01*
X151413Y22971D01*
Y23479D01*
X151258Y24260D01*
X150816Y24921D01*
X148640Y27097D01*
X148800Y27571D01*
X149044Y27603D01*
X150017Y28006D01*
X150853Y28647D01*
X151494Y29483D01*
X151897Y30456D01*
X152034Y31500D01*
X151901Y32517D01*
X153965Y34582D01*
X153965Y34582D01*
X154408Y35243D01*
X154563Y36024D01*
Y45802D01*
X154643Y45922D01*
X154818Y46800D01*
Y49976D01*
X155700D01*
Y51976D01*
X157700D01*
Y53087D01*
X157897Y53126D01*
X161600D01*
Y53126D01*
Y56276D01*
Y57126D01*
X157897D01*
X157700Y57165D01*
Y59386D01*
X157897Y59425D01*
X161600D01*
Y59425D01*
Y62536D01*
X162115D01*
X163893Y60758D01*
D02*
G37*
G36*
X189121Y39183D02*
X189149Y38968D01*
X189547Y38007D01*
X190181Y37181D01*
X190383Y37026D01*
X190243Y36503D01*
X189631Y36095D01*
X186905Y33369D01*
X186463Y32708D01*
X186308Y31927D01*
Y28104D01*
X185831Y12847D01*
X146390D01*
X140461Y18776D01*
X140791Y19153D01*
X140983Y19006D01*
X141000Y18999D01*
Y22500D01*
X145000D01*
Y18999D01*
X145017Y19006D01*
X145853Y19647D01*
X146494Y20483D01*
X146897Y21456D01*
X146922Y21641D01*
X147428Y21658D01*
X147490Y21346D01*
X147932Y20684D01*
X151058Y17558D01*
X151720Y17116D01*
X152500Y16961D01*
X180000D01*
X180780Y17116D01*
X181442Y17558D01*
X184119Y20236D01*
X184323Y20540D01*
X184536Y20839D01*
X184543Y20870D01*
X184561Y20897D01*
X184633Y21257D01*
X184716Y21614D01*
X184985Y30246D01*
X184980Y30278D01*
X184986Y30310D01*
Y35683D01*
X188647Y39343D01*
X189121Y39183D01*
D02*
G37*
G36*
X263773Y206753D02*
X265229Y206150D01*
X266539Y205275D01*
X267653Y204160D01*
X268529Y202850D01*
X269132Y201394D01*
X269439Y199849D01*
Y199061D01*
Y175061D01*
X269463Y174571D01*
X269655Y173609D01*
X270030Y172704D01*
X270574Y171889D01*
X271267Y171196D01*
X272082Y170651D01*
X272988Y170276D01*
X273949Y170085D01*
X274439Y170061D01*
X279638D01*
X280006Y169908D01*
X280287Y169627D01*
X280439Y169260D01*
Y169061D01*
Y3561D01*
Y3519D01*
X280343Y3424D01*
X279842Y3633D01*
Y24342D01*
X265563D01*
X265317Y24843D01*
X265824Y25504D01*
X266323Y26708D01*
X266493Y28000D01*
X266323Y29292D01*
X265824Y30496D01*
X265030Y31530D01*
X263996Y32324D01*
X263535Y32515D01*
X263500Y33000D01*
X263500Y33071D01*
Y36462D01*
X264122Y36878D01*
X269022Y41778D01*
X269519Y42522D01*
X269694Y43400D01*
Y59444D01*
X269519Y60322D01*
X269022Y61066D01*
X265566Y64522D01*
X264822Y65019D01*
X264077Y65168D01*
X264000Y65244D01*
Y65879D01*
X264372Y66128D01*
X269122Y70878D01*
X269619Y71622D01*
X269794Y72500D01*
Y108500D01*
X269619Y109378D01*
X269122Y110122D01*
X259122Y120122D01*
X258378Y120619D01*
X257500Y120794D01*
X224782D01*
X224353Y121353D01*
X223517Y121994D01*
X222544Y122397D01*
X221500Y122535D01*
X220456Y122397D01*
X219483Y121994D01*
X218647Y121353D01*
X218006Y120517D01*
X217603Y119544D01*
X217465Y118500D01*
X217603Y117456D01*
X218006Y116483D01*
X218276Y116130D01*
Y78242D01*
X218371Y77525D01*
X218648Y76856D01*
X218918Y76504D01*
X218866Y76206D01*
X218345Y76020D01*
X217576Y76789D01*
X216914Y77231D01*
X216134Y77386D01*
X216042D01*
X215821Y77835D01*
X215953Y78007D01*
X216351Y78968D01*
X216487Y80000D01*
X216351Y81032D01*
X215953Y81993D01*
X215319Y82819D01*
X214493Y83453D01*
X213532Y83851D01*
X212500Y83987D01*
X211746Y83888D01*
X209356Y86278D01*
X209391Y86442D01*
X209397Y86456D01*
X209401Y86488D01*
X209458Y86749D01*
X209968Y86961D01*
X210507Y86547D01*
X211468Y86149D01*
X212500Y86013D01*
X213532Y86149D01*
X214493Y86547D01*
X215319Y87181D01*
X215953Y88007D01*
X216351Y88968D01*
X216487Y90000D01*
X216351Y91032D01*
X215953Y91993D01*
X215319Y92819D01*
X214493Y93453D01*
X213532Y93851D01*
X212500Y93987D01*
X211468Y93851D01*
X211160Y93723D01*
X209459Y95425D01*
X209535Y96000D01*
X209437Y96737D01*
X209906Y97008D01*
X210507Y96547D01*
X211468Y96149D01*
X212500Y96013D01*
X213532Y96149D01*
X214493Y96547D01*
X215319Y97181D01*
X215953Y98007D01*
X216351Y98968D01*
X216487Y100000D01*
X216351Y101032D01*
X215953Y101993D01*
X215319Y102819D01*
X214929Y103118D01*
Y103618D01*
X215353Y103943D01*
X215994Y104779D01*
X216397Y105752D01*
X216534Y106796D01*
X216397Y107840D01*
X215994Y108813D01*
X215353Y109649D01*
X214517Y110290D01*
X213544Y110693D01*
X212500Y110831D01*
X211456Y110693D01*
X210483Y110290D01*
X209647Y109649D01*
X209006Y108813D01*
X208603Y107840D01*
X208466Y106796D01*
X208603Y105752D01*
X209006Y104779D01*
X209647Y103943D01*
X210071Y103618D01*
Y103118D01*
X209681Y102819D01*
X209047Y101993D01*
X208649Y101032D01*
X208513Y100000D01*
X208607Y99288D01*
X208138Y99018D01*
X207517Y99494D01*
X206544Y99897D01*
X205500Y100034D01*
X204456Y99897D01*
X203483Y99494D01*
X202647Y98853D01*
X202006Y98017D01*
X201603Y97044D01*
X201466Y96000D01*
X201603Y94956D01*
X202006Y93983D01*
X202647Y93147D01*
X203483Y92506D01*
X204456Y92103D01*
X205221Y92002D01*
Y91498D01*
X204456Y91397D01*
X203483Y90994D01*
X202647Y90353D01*
X202006Y89517D01*
X201603Y88544D01*
X201466Y87500D01*
X201603Y86456D01*
X202006Y85483D01*
X202647Y84647D01*
X203483Y84006D01*
X204456Y83603D01*
X205500Y83465D01*
X206296Y83570D01*
X208703Y81163D01*
X208649Y81032D01*
X208513Y80000D01*
X208649Y78968D01*
X209047Y78007D01*
X209179Y77835D01*
X208958Y77386D01*
X198497D01*
X196859Y79025D01*
X196987Y80000D01*
X196851Y81032D01*
X196453Y81993D01*
X195819Y82819D01*
X194993Y83453D01*
X194032Y83851D01*
X193000Y83987D01*
X191968Y83851D01*
X191007Y83453D01*
X190181Y82819D01*
X189547Y81993D01*
X189149Y81032D01*
X189013Y80000D01*
X189149Y78968D01*
X189547Y78007D01*
X189139Y77745D01*
X187239Y79645D01*
Y81947D01*
X187084Y82727D01*
X186642Y83389D01*
X183889Y86142D01*
X183227Y86584D01*
X182447Y86739D01*
X175200D01*
X174420Y86584D01*
X173758Y86142D01*
X172475Y84859D01*
X172020Y85111D01*
X171897Y86044D01*
X171494Y87017D01*
X170853Y87853D01*
X170039Y88477D01*
Y94591D01*
X170339Y94827D01*
X170794Y94597D01*
X170715Y94000D01*
X170853Y92956D01*
X171256Y91983D01*
X171897Y91147D01*
X172733Y90506D01*
X173706Y90103D01*
X174750Y89965D01*
X175794Y90103D01*
X176767Y90506D01*
X177603Y91147D01*
X178227Y91961D01*
X186655D01*
X189073Y89543D01*
X189149Y88968D01*
X189547Y88007D01*
X190181Y87181D01*
X191007Y86547D01*
X191968Y86149D01*
X193000Y86013D01*
X194032Y86149D01*
X194993Y86547D01*
X195819Y87181D01*
X196453Y88007D01*
X196851Y88968D01*
X196987Y90000D01*
X196851Y91032D01*
X196453Y91993D01*
X195819Y92819D01*
X194993Y93453D01*
X194032Y93851D01*
X193000Y93987D01*
X191968Y93851D01*
X191007Y93453D01*
X190964Y93420D01*
X188942Y95442D01*
X188280Y95884D01*
X187500Y96039D01*
X178227D01*
X177603Y96853D01*
X177167Y97187D01*
X177086Y97865D01*
X177161Y97961D01*
X189047D01*
Y96047D01*
X196953D01*
Y103953D01*
X189047D01*
Y102039D01*
X172500D01*
X171720Y101884D01*
X171058Y101442D01*
X166558Y96942D01*
X166116Y96280D01*
X165961Y95500D01*
Y88477D01*
X165147Y87853D01*
X164506Y87017D01*
X164103Y86044D01*
X163965Y85000D01*
X164103Y83956D01*
X164506Y82983D01*
X165147Y82147D01*
X165983Y81506D01*
X166956Y81103D01*
X167889Y80980D01*
X168141Y80525D01*
X163679Y76063D01*
X157700D01*
X157503Y76024D01*
X154524D01*
Y79003D01*
X154563Y79200D01*
Y88179D01*
X158942Y92558D01*
X159384Y93220D01*
X159539Y94000D01*
Y125500D01*
X159384Y126280D01*
X158942Y126942D01*
X155359Y130525D01*
X155487Y131500D01*
X155351Y132532D01*
X154953Y133493D01*
X154319Y134319D01*
X153493Y134953D01*
X152532Y135351D01*
X151500Y135487D01*
X150468Y135351D01*
X149507Y134953D01*
X148898Y134486D01*
X135359Y148025D01*
X135487Y149000D01*
X135351Y150032D01*
X134953Y150993D01*
X134319Y151819D01*
X133493Y152453D01*
X132532Y152851D01*
X131500Y152987D01*
X130468Y152851D01*
X129507Y152453D01*
X128681Y151819D01*
X128047Y150993D01*
X127649Y150032D01*
X127558Y149342D01*
X127030Y149163D01*
X125752Y150442D01*
X125090Y150884D01*
X124990Y150904D01*
X124953Y150993D01*
X124319Y151819D01*
X123493Y152453D01*
X122532Y152851D01*
X121500Y152987D01*
X120468Y152851D01*
X119507Y152453D01*
X118681Y151819D01*
X118047Y150993D01*
X117649Y150032D01*
X117513Y149000D01*
X117649Y147968D01*
X118047Y147007D01*
X118681Y146181D01*
X119507Y145547D01*
X120468Y145149D01*
X121500Y145013D01*
X122532Y145149D01*
X123493Y145547D01*
X124277Y146149D01*
X137011Y133415D01*
X136820Y132953D01*
X133381D01*
X133217Y133781D01*
X132898Y134257D01*
X132855Y134476D01*
X132302Y135302D01*
X129984Y137620D01*
X130034Y138000D01*
X129897Y139044D01*
X129494Y140017D01*
X128853Y140853D01*
X128017Y141494D01*
X127044Y141897D01*
X126000Y142034D01*
X124956Y141897D01*
X123983Y141494D01*
X123147Y140853D01*
X123087Y140774D01*
X119858D01*
X118768Y141864D01*
Y143043D01*
X111650D01*
Y133957D01*
X113583D01*
X113861Y133457D01*
X113819Y133389D01*
X110802D01*
X107350Y136841D01*
Y143043D01*
X102132D01*
X98420Y146756D01*
X98703Y147179D01*
X98708Y147177D01*
X100000Y147007D01*
X101292Y147177D01*
X102496Y147676D01*
X103530Y148470D01*
X104324Y149504D01*
X104823Y150708D01*
X104993Y152000D01*
X104823Y153292D01*
X104324Y154496D01*
X103530Y155530D01*
X102496Y156324D01*
X101292Y156823D01*
X100000Y156993D01*
X98708Y156823D01*
X97504Y156324D01*
X96470Y155530D01*
X95676Y154496D01*
X95177Y153292D01*
X95007Y152000D01*
X95177Y150708D01*
X95676Y149504D01*
X96430Y148521D01*
X96357Y148267D01*
X96209Y148039D01*
X85598D01*
X85474Y148539D01*
X86214Y149504D01*
X86712Y150708D01*
X86883Y152000D01*
X86712Y153292D01*
X86214Y154496D01*
X85420Y155530D01*
X84386Y156324D01*
X83182Y156823D01*
X81890Y156993D01*
X80598Y156823D01*
X79393Y156324D01*
X78359Y155530D01*
X77566Y154496D01*
X77067Y153292D01*
X76897Y152000D01*
X77067Y150708D01*
X77566Y149504D01*
X78359Y148470D01*
X79053Y147937D01*
X78884Y147437D01*
X57374D01*
Y137563D01*
X67611D01*
Y131991D01*
X67111Y131824D01*
X66322Y132471D01*
X65288Y133024D01*
X64166Y133364D01*
X63000Y133479D01*
X61834Y133364D01*
X60712Y133024D01*
X59678Y132471D01*
X58772Y131728D01*
X58029Y130822D01*
X57476Y129788D01*
X57136Y128666D01*
X57021Y127500D01*
X57136Y126334D01*
X57476Y125212D01*
X58029Y124178D01*
X58772Y123272D01*
X59678Y122529D01*
X60712Y121976D01*
X61834Y121636D01*
X63000Y121521D01*
X64166Y121636D01*
X65288Y121976D01*
X65517Y122099D01*
X69195Y118421D01*
Y117890D01*
X69147Y117853D01*
X68506Y117017D01*
X68103Y116044D01*
X67966Y115000D01*
X68103Y113956D01*
X68222Y113668D01*
X67798Y113385D01*
X54752Y126431D01*
Y131453D01*
X51673D01*
Y131555D01*
X51518Y132335D01*
X51076Y132997D01*
X43626Y140447D01*
Y147437D01*
X33838D01*
Y148000D01*
X33835Y148017D01*
X33688Y149883D01*
X33247Y151720D01*
X32524Y153465D01*
X31538Y155075D01*
X30311Y156511D01*
X28874Y157738D01*
X27264Y158725D01*
X25519Y159448D01*
X23843Y159850D01*
Y168842D01*
X3208D01*
X2870Y169343D01*
X2920Y169469D01*
X3141Y169561D01*
X171939D01*
X172429Y169585D01*
X173391Y169776D01*
X174296Y170151D01*
X175111Y170696D01*
X175804Y171389D01*
X176349Y172204D01*
X176724Y173109D01*
X176915Y174071D01*
X176939Y174561D01*
Y197061D01*
Y198046D01*
X177324Y199978D01*
X178077Y201797D01*
X179172Y203435D01*
X180565Y204828D01*
X182203Y205923D01*
X184022Y206676D01*
X185954Y207061D01*
X262227D01*
X263773Y206753D01*
D02*
G37*
%LPC*%
G36*
X95559Y137500D02*
X94000D01*
Y135547D01*
X95559D01*
Y137500D01*
D02*
G37*
G36*
X102000Y129364D02*
Y126835D01*
X104529D01*
X104324Y127331D01*
X103530Y128365D01*
X102496Y129158D01*
X102000Y129364D01*
D02*
G37*
G36*
X98000D02*
X97504Y129158D01*
X96470Y128365D01*
X95676Y127331D01*
X95471Y126835D01*
X98000D01*
Y129364D01*
D02*
G37*
G36*
X104529Y122835D02*
X102000D01*
Y120305D01*
X102496Y120511D01*
X103530Y121304D01*
X104324Y122338D01*
X104529Y122835D01*
D02*
G37*
G36*
X98000D02*
X95471D01*
X95676Y122338D01*
X96470Y121304D01*
X97504Y120511D01*
X98000Y120305D01*
Y122835D01*
D02*
G37*
G36*
X114000Y120948D02*
X113181Y120319D01*
X112552Y119500D01*
X114000D01*
Y120948D01*
D02*
G37*
G36*
Y115500D02*
X112552D01*
X113181Y114681D01*
X114000Y114052D01*
Y115500D01*
D02*
G37*
G36*
X99906Y110953D02*
X98346D01*
Y109000D01*
X99906D01*
Y110953D01*
D02*
G37*
G36*
Y105000D02*
X98346D01*
Y103047D01*
X99906D01*
Y105000D01*
D02*
G37*
G36*
X109000Y104501D02*
Y103000D01*
X110501D01*
X110494Y103017D01*
X109853Y103853D01*
X109017Y104494D01*
X109000Y104501D01*
D02*
G37*
G36*
X105000D02*
X104983Y104494D01*
X104147Y103853D01*
X103506Y103017D01*
X103499Y103000D01*
X105000D01*
Y104501D01*
D02*
G37*
G36*
X251453Y114059D02*
X249500D01*
Y112500D01*
X251453D01*
Y114059D01*
D02*
G37*
G36*
X245500D02*
X243547D01*
Y112500D01*
X245500D01*
Y114059D01*
D02*
G37*
G36*
X232501Y111500D02*
X231000D01*
Y109999D01*
X231017Y110006D01*
X231853Y110647D01*
X232494Y111483D01*
X232501Y111500D01*
D02*
G37*
G36*
X227000D02*
X225499D01*
X225506Y111483D01*
X226147Y110647D01*
X226983Y110006D01*
X227000Y109999D01*
Y111500D01*
D02*
G37*
G36*
X236335Y109140D02*
Y106610D01*
X238864D01*
X238658Y107107D01*
X237865Y108141D01*
X236831Y108934D01*
X236335Y109140D01*
D02*
G37*
G36*
X232335D02*
X231838Y108934D01*
X230804Y108141D01*
X230011Y107107D01*
X229805Y106610D01*
X232335D01*
Y109140D01*
D02*
G37*
G36*
X238864Y102610D02*
X236335D01*
Y100081D01*
X236831Y100286D01*
X237865Y101080D01*
X238658Y102114D01*
X238864Y102610D01*
D02*
G37*
G36*
X232335D02*
X229805D01*
X230011Y102114D01*
X230804Y101080D01*
X231838Y100286D01*
X232335Y100081D01*
Y102610D01*
D02*
G37*
G36*
X251453Y84405D02*
X249500D01*
Y82846D01*
X251453D01*
Y84405D01*
D02*
G37*
G36*
X245500D02*
X243547D01*
Y82846D01*
X245500D01*
Y84405D01*
D02*
G37*
G36*
X236335Y79640D02*
Y77110D01*
X238864D01*
X238658Y77607D01*
X237865Y78641D01*
X236831Y79434D01*
X236335Y79640D01*
D02*
G37*
G36*
X232335D02*
X231838Y79434D01*
X230804Y78641D01*
X230011Y77607D01*
X229805Y77110D01*
X232335D01*
Y79640D01*
D02*
G37*
G36*
X238864Y73110D02*
X236335D01*
Y70581D01*
X236831Y70786D01*
X237865Y71580D01*
X238658Y72614D01*
X238864Y73110D01*
D02*
G37*
G36*
X232335D02*
X229805D01*
X230011Y72614D01*
X230804Y71580D01*
X231838Y70786D01*
X232335Y70581D01*
Y73110D01*
D02*
G37*
G36*
X251453Y78847D02*
X247500D01*
X243547D01*
Y77287D01*
Y70595D01*
X245461D01*
Y70000D01*
X243000D01*
Y64884D01*
X241327Y63211D01*
X239992D01*
X239212Y63055D01*
X238550Y62613D01*
X237074Y61137D01*
X236831Y61324D01*
X235627Y61823D01*
X234335Y61993D01*
X233042Y61823D01*
X231838Y61324D01*
X230804Y60530D01*
X230011Y59496D01*
X229512Y58292D01*
X229342Y57000D01*
X229401Y56547D01*
X225180Y52326D01*
X224500Y52416D01*
X223456Y52278D01*
X222483Y51875D01*
X221647Y51234D01*
X221006Y50398D01*
X220603Y49425D01*
X220465Y48381D01*
X220603Y47337D01*
X221006Y46364D01*
X221647Y45528D01*
X222483Y44887D01*
X223456Y44484D01*
X224500Y44346D01*
X225544Y44484D01*
X226517Y44887D01*
X227353Y45528D01*
X227994Y46364D01*
X228397Y47337D01*
X228535Y48381D01*
X228397Y49425D01*
X228295Y49673D01*
X231533Y52911D01*
X231838Y52676D01*
X233042Y52177D01*
X234335Y52007D01*
X235627Y52177D01*
X236831Y52676D01*
X237865Y53470D01*
X238658Y54504D01*
X239157Y55708D01*
X239327Y57000D01*
X239255Y57551D01*
X240837Y59132D01*
X242172D01*
X242952Y59288D01*
X243614Y59730D01*
X245884Y62000D01*
X251000D01*
Y70000D01*
X249539D01*
Y70595D01*
X251453D01*
Y77287D01*
Y78847D01*
D02*
G37*
G36*
X250953Y55752D02*
X249000D01*
Y54193D01*
X250953D01*
Y55752D01*
D02*
G37*
G36*
X245000D02*
X243047D01*
Y54193D01*
X245000D01*
Y55752D01*
D02*
G37*
G36*
X236335Y50640D02*
Y48110D01*
X238864D01*
X238658Y48607D01*
X237865Y49641D01*
X236831Y50434D01*
X236335Y50640D01*
D02*
G37*
G36*
X232335D02*
X231838Y50434D01*
X230804Y49641D01*
X230011Y48607D01*
X229805Y48110D01*
X232335D01*
Y50640D01*
D02*
G37*
G36*
X215948Y48000D02*
X214500D01*
Y46552D01*
X215319Y47181D01*
X215948Y48000D01*
D02*
G37*
G36*
X238864Y44110D02*
X236335D01*
Y41581D01*
X236831Y41786D01*
X237865Y42580D01*
X238658Y43614D01*
X238864Y44110D01*
D02*
G37*
G36*
X232335D02*
X229805D01*
X230011Y43614D01*
X230804Y42580D01*
X231838Y41786D01*
X232335Y41581D01*
Y44110D01*
D02*
G37*
G36*
X212500Y43987D02*
X211468Y43851D01*
X210507Y43453D01*
X209681Y42819D01*
X209047Y41993D01*
X208649Y41032D01*
X208513Y40000D01*
X208649Y38968D01*
X209047Y38007D01*
X209681Y37181D01*
X210507Y36547D01*
X211468Y36149D01*
X212500Y36013D01*
X213532Y36149D01*
X214493Y36547D01*
X215319Y37181D01*
X215953Y38007D01*
X216351Y38968D01*
X216487Y40000D01*
X216351Y41032D01*
X215953Y41993D01*
X215319Y42819D01*
X214493Y43453D01*
X213532Y43851D01*
X212500Y43987D01*
D02*
G37*
G36*
X250953Y50193D02*
X247000D01*
X243047D01*
Y48634D01*
Y41941D01*
X244461D01*
Y41000D01*
X242500D01*
Y35884D01*
X240827Y34211D01*
X239992D01*
X239212Y34056D01*
X238550Y33613D01*
X237074Y32137D01*
X236831Y32324D01*
X235627Y32823D01*
X234335Y32993D01*
X233042Y32823D01*
X231838Y32324D01*
X230804Y31530D01*
X230039Y30533D01*
X230015Y30533D01*
X229539Y30897D01*
Y32023D01*
X230353Y32647D01*
X230994Y33483D01*
X231397Y34456D01*
X231535Y35500D01*
X231397Y36544D01*
X230994Y37517D01*
X230353Y38353D01*
X229517Y38994D01*
X228544Y39397D01*
X227500Y39535D01*
X226456Y39397D01*
X225483Y38994D01*
X224647Y38353D01*
X224006Y37517D01*
X223603Y36544D01*
X223465Y35500D01*
X223603Y34456D01*
X224006Y33483D01*
X224647Y32647D01*
X225461Y32023D01*
Y27834D01*
X225616Y27054D01*
X226058Y26392D01*
X229684Y22767D01*
X230345Y22324D01*
X231126Y22169D01*
X231906Y22324D01*
X232568Y22767D01*
X232997Y23196D01*
X233042Y23177D01*
X234335Y23007D01*
X235627Y23177D01*
X236831Y23676D01*
X237865Y24470D01*
X238658Y25504D01*
X239157Y26708D01*
X239327Y28000D01*
X239255Y28551D01*
X240837Y30132D01*
X241672D01*
X242452Y30288D01*
X243113Y30730D01*
X245384Y33000D01*
X250500D01*
Y41000D01*
X248539D01*
Y41941D01*
X250953D01*
Y48634D01*
Y50193D01*
D02*
G37*
G36*
X149500Y102500D02*
X147999D01*
X148006Y102483D01*
X148647Y101647D01*
X149483Y101006D01*
X149500Y100999D01*
Y102500D01*
D02*
G37*
G36*
X35000Y133111D02*
Y129500D01*
X38611D01*
X38524Y129788D01*
X37971Y130822D01*
X37228Y131728D01*
X36322Y132471D01*
X35288Y133024D01*
X35000Y133111D01*
D02*
G37*
G36*
X31000D02*
X30712Y133024D01*
X29678Y132471D01*
X28772Y131728D01*
X28029Y130822D01*
X27476Y129788D01*
X27389Y129500D01*
X31000D01*
Y133111D01*
D02*
G37*
G36*
X42500Y125500D02*
X40941D01*
Y123547D01*
X42500D01*
Y125500D01*
D02*
G37*
G36*
X38611D02*
X35000D01*
Y121889D01*
X35288Y121976D01*
X36322Y122529D01*
X37228Y123272D01*
X37971Y124178D01*
X38524Y125212D01*
X38611Y125500D01*
D02*
G37*
G36*
X31000D02*
X27389D01*
X27476Y125212D01*
X28029Y124178D01*
X28772Y123272D01*
X29678Y122529D01*
X30712Y121976D01*
X31000Y121889D01*
Y125500D01*
D02*
G37*
G36*
X113043Y87768D02*
X110500D01*
Y86209D01*
X113043D01*
Y87768D01*
D02*
G37*
G36*
X84244Y93487D02*
X83212Y93351D01*
X82251Y92953D01*
X81425Y92319D01*
X80791Y91493D01*
X80393Y90532D01*
X80257Y89500D01*
X80393Y88468D01*
X80791Y87507D01*
X81425Y86681D01*
X82251Y86047D01*
X83212Y85649D01*
X84244Y85513D01*
X85276Y85649D01*
X86238Y86047D01*
X87063Y86681D01*
X87697Y87507D01*
X88095Y88468D01*
X88231Y89500D01*
X88095Y90532D01*
X87697Y91493D01*
X87063Y92319D01*
X86238Y92953D01*
X85276Y93351D01*
X84244Y93487D01*
D02*
G37*
G36*
X98500Y84500D02*
X96999D01*
X97006Y84483D01*
X97647Y83647D01*
X98483Y83006D01*
X98500Y82999D01*
Y84500D01*
D02*
G37*
G36*
X113043Y82209D02*
X110500D01*
Y80650D01*
X113043D01*
Y82209D01*
D02*
G37*
G36*
X84244Y83487D02*
X83212Y83351D01*
X82251Y82953D01*
X81425Y82319D01*
X80791Y81493D01*
X80393Y80532D01*
X80257Y79500D01*
X80393Y78468D01*
X80791Y77507D01*
X81425Y76681D01*
X82251Y76047D01*
X83212Y75649D01*
X84244Y75513D01*
X85276Y75649D01*
X86238Y76047D01*
X87063Y76681D01*
X87697Y77507D01*
X88095Y78468D01*
X88231Y79500D01*
X88095Y80532D01*
X87697Y81493D01*
X87063Y82319D01*
X86238Y82953D01*
X85276Y83351D01*
X84244Y83487D01*
D02*
G37*
G36*
X37000Y95376D02*
X35299Y95242D01*
X33639Y94844D01*
X32062Y94191D01*
X30607Y93299D01*
X29309Y92190D01*
X28201Y90893D01*
X27309Y89438D01*
X26656Y87861D01*
X26258Y86201D01*
X26124Y84500D01*
X26258Y82799D01*
X26656Y81139D01*
X27309Y79562D01*
X28201Y78107D01*
X29309Y76810D01*
X30607Y75701D01*
X32062Y74809D01*
X33639Y74156D01*
X35299Y73758D01*
X37000Y73624D01*
X38701Y73758D01*
X40361Y74156D01*
X41938Y74809D01*
X43393Y75701D01*
X44690Y76810D01*
X45799Y78107D01*
X46691Y79562D01*
X47344Y81139D01*
X47742Y82799D01*
X47876Y84500D01*
X47742Y86201D01*
X47344Y87861D01*
X46691Y89438D01*
X45799Y90893D01*
X44690Y92190D01*
X43393Y93299D01*
X41938Y94191D01*
X40361Y94844D01*
X38701Y95242D01*
X37000Y95376D01*
D02*
G37*
G36*
X84244Y73487D02*
X83212Y73351D01*
X82251Y72953D01*
X81425Y72319D01*
X80791Y71493D01*
X80393Y70532D01*
X80257Y69500D01*
X80393Y68468D01*
X80791Y67507D01*
X81425Y66681D01*
X82251Y66047D01*
X83212Y65649D01*
X84244Y65513D01*
X85276Y65649D01*
X86238Y66047D01*
X87063Y66681D01*
X87697Y67507D01*
X88095Y68468D01*
X88231Y69500D01*
X88095Y70532D01*
X87697Y71493D01*
X87063Y72319D01*
X86238Y72953D01*
X85276Y73351D01*
X84244Y73487D01*
D02*
G37*
G36*
Y63487D02*
X83212Y63351D01*
X82251Y62953D01*
X81425Y62319D01*
X80791Y61493D01*
X80393Y60532D01*
X80257Y59500D01*
X80393Y58468D01*
X80791Y57507D01*
X81425Y56681D01*
X82251Y56047D01*
X83212Y55649D01*
X84244Y55513D01*
X85276Y55649D01*
X86238Y56047D01*
X87063Y56681D01*
X87697Y57507D01*
X88095Y58468D01*
X88231Y59500D01*
X88095Y60532D01*
X87697Y61493D01*
X87063Y62319D01*
X86238Y62953D01*
X85276Y63351D01*
X84244Y63487D01*
D02*
G37*
G36*
X24342Y24342D02*
X15500D01*
Y15500D01*
X24342D01*
Y24342D01*
D02*
G37*
G36*
X11500D02*
X2657D01*
Y15500D01*
X11500D01*
Y24342D01*
D02*
G37*
G36*
X37000Y35376D02*
X35299Y35242D01*
X33639Y34844D01*
X32062Y34191D01*
X30607Y33299D01*
X29309Y32190D01*
X28201Y30893D01*
X27309Y29438D01*
X26656Y27861D01*
X26258Y26201D01*
X26124Y24500D01*
X26258Y22799D01*
X26656Y21139D01*
X27309Y19562D01*
X28201Y18107D01*
X29309Y16809D01*
X30607Y15701D01*
X32062Y14809D01*
X33639Y14156D01*
X35299Y13758D01*
X37000Y13624D01*
X38701Y13758D01*
X40361Y14156D01*
X41938Y14809D01*
X43393Y15701D01*
X44690Y16809D01*
X45799Y18107D01*
X46691Y19562D01*
X47344Y21139D01*
X47742Y22799D01*
X47876Y24500D01*
X47742Y26201D01*
X47344Y27861D01*
X46691Y29438D01*
X45799Y30893D01*
X44690Y32190D01*
X43393Y33299D01*
X41938Y34191D01*
X40361Y34844D01*
X38701Y35242D01*
X37000Y35376D01*
D02*
G37*
G36*
X24342Y11500D02*
X15500D01*
Y2657D01*
X24342D01*
Y11500D01*
D02*
G37*
G36*
X11500D02*
X2657D01*
Y2657D01*
X11500D01*
Y11500D01*
D02*
G37*
G36*
X98500Y51150D02*
X94579D01*
Y49000D01*
X98500D01*
Y51150D01*
D02*
G37*
G36*
Y45000D02*
X94579D01*
Y42850D01*
X98500D01*
Y45000D01*
D02*
G37*
G36*
X86244Y32948D02*
Y31500D01*
X87692D01*
X87063Y32319D01*
X86244Y32948D01*
D02*
G37*
G36*
X82244Y32948D02*
X81425Y32319D01*
X80796Y31500D01*
X82244D01*
Y32948D01*
D02*
G37*
G36*
Y27500D02*
X80796D01*
X81425Y26681D01*
X82244Y26052D01*
Y27500D01*
D02*
G37*
G36*
X87692D02*
X86244D01*
Y26052D01*
X87063Y26681D01*
X87692Y27500D01*
D02*
G37*
G36*
X137500Y61001D02*
Y59500D01*
X139001D01*
X138994Y59517D01*
X138353Y60353D01*
X137517Y60994D01*
X137500Y61001D01*
D02*
G37*
G36*
X133500D02*
X133483Y60994D01*
X132647Y60353D01*
X132006Y59517D01*
X131999Y59500D01*
X133500D01*
Y61001D01*
D02*
G37*
G36*
X139001Y55500D02*
X137500D01*
Y53999D01*
X137517Y54006D01*
X138353Y54647D01*
X138994Y55483D01*
X139001Y55500D01*
D02*
G37*
G36*
X133500D02*
X131999D01*
X132006Y55483D01*
X132647Y54647D01*
X133483Y54006D01*
X133500Y53999D01*
Y55500D01*
D02*
G37*
G36*
X161600Y49976D02*
X159700D01*
Y49976D01*
X161600D01*
Y49976D01*
D02*
G37*
G36*
X176000Y28001D02*
X175983Y27994D01*
X175147Y27353D01*
X174506Y26517D01*
X174499Y26500D01*
X176000D01*
Y28001D01*
D02*
G37*
G36*
X201500Y203626D02*
Y187000D01*
X218126D01*
X218096Y187448D01*
X217618Y189855D01*
X216829Y192178D01*
X215744Y194378D01*
X214381Y196418D01*
X212763Y198263D01*
X210918Y199881D01*
X208878Y201244D01*
X206678Y202329D01*
X204355Y203118D01*
X201948Y203596D01*
X201500Y203626D01*
D02*
G37*
G36*
X197500D02*
X197052Y203596D01*
X194645Y203118D01*
X192322Y202329D01*
X190122Y201244D01*
X188082Y199881D01*
X186237Y198263D01*
X184619Y196418D01*
X183256Y194378D01*
X182171Y192178D01*
X181382Y189855D01*
X180904Y187448D01*
X180874Y187000D01*
X197500D01*
Y203626D01*
D02*
G37*
G36*
X218126Y183000D02*
X201500D01*
Y166374D01*
X201948Y166404D01*
X204355Y166882D01*
X206678Y167671D01*
X208878Y168756D01*
X210918Y170119D01*
X212763Y171737D01*
X214381Y173582D01*
X215744Y175622D01*
X216829Y177822D01*
X217618Y180145D01*
X218096Y182552D01*
X218126Y183000D01*
D02*
G37*
G36*
X197500D02*
X180874D01*
X180904Y182552D01*
X181382Y180145D01*
X182171Y177822D01*
X183256Y175622D01*
X184619Y173582D01*
X186237Y171737D01*
X188082Y170119D01*
X190122Y168756D01*
X192322Y167671D01*
X192792Y167511D01*
X192742Y167000D01*
X191956Y166897D01*
X190983Y166494D01*
X190147Y165853D01*
X189506Y165017D01*
X189499Y165000D01*
X196501D01*
X196494Y165017D01*
X195853Y165853D01*
X195361Y166230D01*
X195573Y166698D01*
X197052Y166404D01*
X197500Y166374D01*
Y183000D01*
D02*
G37*
G36*
X279842Y169343D02*
X271000D01*
Y160500D01*
X279842D01*
Y169343D01*
D02*
G37*
G36*
X267000D02*
X258157D01*
Y160500D01*
X267000D01*
Y169343D01*
D02*
G37*
G36*
X196501Y161000D02*
X195000D01*
Y159499D01*
X195017Y159506D01*
X195853Y160147D01*
X196494Y160983D01*
X196501Y161000D01*
D02*
G37*
G36*
X191000D02*
X189499D01*
X189506Y160983D01*
X190147Y160147D01*
X190983Y159506D01*
X191000Y159499D01*
Y161000D01*
D02*
G37*
G36*
X182500Y157718D02*
Y156000D01*
X184218D01*
X184169Y156118D01*
X183495Y156995D01*
X182618Y157669D01*
X182500Y157718D01*
D02*
G37*
G36*
X178500D02*
X178382Y157669D01*
X177505Y156995D01*
X176831Y156118D01*
X176782Y156000D01*
X178500D01*
Y157718D01*
D02*
G37*
G36*
X200500Y152884D02*
X199365Y152735D01*
X198308Y152297D01*
X197400Y151600D01*
X197150Y151274D01*
X185000D01*
X184282Y151179D01*
X184249Y151166D01*
X183934Y151576D01*
X184169Y151882D01*
X184218Y152000D01*
X180500D01*
X176782D01*
X176831Y151882D01*
X177505Y151005D01*
X178382Y150331D01*
X179404Y149908D01*
X180500Y149764D01*
X181596Y149908D01*
X181907Y150037D01*
X182190Y149613D01*
X180777Y148200D01*
X176300D01*
Y143723D01*
X175039Y142461D01*
X174598Y141887D01*
X174321Y141218D01*
X174226Y140500D01*
Y139413D01*
X174147Y139353D01*
X173506Y138517D01*
X173103Y137544D01*
X172966Y136500D01*
X173103Y135456D01*
X173506Y134483D01*
X174147Y133647D01*
X174983Y133006D01*
X175956Y132603D01*
X176971Y132469D01*
X177093Y132350D01*
X177281Y132000D01*
X181000D01*
X184718D01*
X184669Y132118D01*
X183995Y132995D01*
X183118Y133669D01*
X182096Y134092D01*
X181000Y134236D01*
X180886Y134221D01*
X180578Y134685D01*
X180897Y135456D01*
X181035Y136500D01*
X180897Y137544D01*
X180494Y138517D01*
X179853Y139353D01*
X179848Y139425D01*
X180223Y139800D01*
X184700D01*
Y144277D01*
X186149Y145726D01*
X197150D01*
X197400Y145400D01*
X198308Y144703D01*
X199365Y144265D01*
X200500Y144116D01*
X201635Y144265D01*
X202692Y144703D01*
X203600Y145400D01*
X203850Y145726D01*
X210203D01*
X210647Y145147D01*
X211483Y144506D01*
X212456Y144103D01*
X213500Y143965D01*
X214544Y144103D01*
X215517Y144506D01*
X216353Y145147D01*
X216994Y145983D01*
X217397Y146956D01*
X217534Y148000D01*
X217397Y149044D01*
X216994Y150017D01*
X216353Y150853D01*
X215517Y151494D01*
X214544Y151897D01*
X213500Y152034D01*
X212456Y151897D01*
X211483Y151494D01*
X211196Y151274D01*
X203850D01*
X203600Y151600D01*
X202692Y152297D01*
X201635Y152735D01*
X200500Y152884D01*
D02*
G37*
G36*
X143500Y152448D02*
Y151000D01*
X144948D01*
X144319Y151819D01*
X143500Y152448D01*
D02*
G37*
G36*
X139500D02*
X138681Y151819D01*
X138052Y151000D01*
X139500D01*
Y152448D01*
D02*
G37*
G36*
X279842Y156500D02*
X271000D01*
Y147658D01*
X279842D01*
Y156500D01*
D02*
G37*
G36*
X267000D02*
X258157D01*
Y147658D01*
X267000D01*
Y156500D01*
D02*
G37*
G36*
X246000Y203757D02*
X243552Y203596D01*
X241145Y203118D01*
X238822Y202329D01*
X236622Y201244D01*
X234582Y199881D01*
X232737Y198263D01*
X231119Y196418D01*
X229756Y194378D01*
X228671Y192178D01*
X227882Y189855D01*
X227404Y187448D01*
X227243Y185000D01*
X227404Y182552D01*
X227882Y180145D01*
X228671Y177822D01*
X229756Y175622D01*
X231119Y173582D01*
X232737Y171737D01*
X234582Y170119D01*
X236622Y168756D01*
X238822Y167671D01*
X240971Y166942D01*
Y156059D01*
X232785D01*
X232067Y155964D01*
X231398Y155687D01*
X230823Y155246D01*
X228424Y152847D01*
X223654D01*
Y144153D01*
X232347D01*
Y148924D01*
X233934Y150511D01*
X242374D01*
X242462Y150066D01*
X242800Y149561D01*
Y149300D01*
X243061D01*
X243566Y148962D01*
X243644Y148947D01*
X243834Y148399D01*
X243331Y147744D01*
X243282Y147626D01*
X247000D01*
X250718D01*
X250669Y147744D01*
X249995Y148621D01*
X249822Y148755D01*
X249863Y149253D01*
X249951Y149300D01*
X251200D01*
Y150211D01*
X251263Y150263D01*
X252013Y151176D01*
X252570Y152219D01*
X252913Y153350D01*
X253029Y154526D01*
Y167621D01*
X253178Y167671D01*
X255378Y168756D01*
X257418Y170119D01*
X259263Y171737D01*
X260881Y173582D01*
X262244Y175622D01*
X263329Y177822D01*
X264118Y180145D01*
X264596Y182552D01*
X264757Y185000D01*
X264596Y187448D01*
X264118Y189855D01*
X263329Y192178D01*
X262244Y194378D01*
X260881Y196418D01*
X259263Y198263D01*
X257418Y199881D01*
X255378Y201244D01*
X253178Y202329D01*
X250855Y203118D01*
X248448Y203596D01*
X246000Y203757D01*
D02*
G37*
G36*
X161500Y152987D02*
X160468Y152851D01*
X159507Y152453D01*
X158681Y151819D01*
X158047Y150993D01*
X157649Y150032D01*
X157513Y149000D01*
X157649Y147968D01*
X157994Y147136D01*
X157570Y146853D01*
X155479Y148943D01*
X155487Y149000D01*
X155351Y150032D01*
X154953Y150993D01*
X154319Y151819D01*
X153493Y152453D01*
X152532Y152851D01*
X151500Y152987D01*
X150468Y152851D01*
X149507Y152453D01*
X148681Y151819D01*
X148047Y150993D01*
X147649Y150032D01*
X147513Y149000D01*
X147649Y147968D01*
X148047Y147007D01*
X148681Y146181D01*
X149507Y145547D01*
X150468Y145149D01*
X151500Y145013D01*
X151557Y145021D01*
X176413Y120165D01*
X176800Y119868D01*
Y117926D01*
X185200D01*
Y119352D01*
X194126D01*
X194844Y119447D01*
X195513Y119724D01*
X196087Y120165D01*
X200076Y124153D01*
X204847D01*
Y125726D01*
X224650D01*
X224900Y125400D01*
X225808Y124703D01*
X226865Y124265D01*
X228000Y124116D01*
X229135Y124265D01*
X230192Y124703D01*
X231100Y125400D01*
X231350Y125726D01*
X236889D01*
X237470Y124970D01*
X238504Y124176D01*
X239708Y123677D01*
X241000Y123507D01*
X242292Y123677D01*
X243496Y124176D01*
X244530Y124970D01*
X245324Y126004D01*
X245823Y127208D01*
X245993Y128500D01*
X245823Y129792D01*
X245324Y130996D01*
X244530Y132030D01*
X243496Y132824D01*
X242292Y133323D01*
X241000Y133493D01*
X239708Y133323D01*
X238504Y132824D01*
X237470Y132030D01*
X236889Y131274D01*
X231350D01*
X231100Y131600D01*
X230192Y132297D01*
X229135Y132735D01*
X228000Y132884D01*
X226865Y132735D01*
X225808Y132297D01*
X224900Y131600D01*
X224650Y131274D01*
X204847D01*
Y132846D01*
X196153D01*
Y128076D01*
X192977Y124900D01*
X185200D01*
Y126326D01*
X183932D01*
X183763Y126826D01*
X183995Y127005D01*
X184669Y127882D01*
X184718Y128000D01*
X181000D01*
X177282D01*
X177331Y127882D01*
X177606Y127523D01*
X177230Y127193D01*
X159353Y145070D01*
X159636Y145494D01*
X160468Y145149D01*
X161500Y145013D01*
X162532Y145149D01*
X163493Y145547D01*
X164319Y146181D01*
X164953Y147007D01*
X165351Y147968D01*
X165487Y149000D01*
X165351Y150032D01*
X164953Y150993D01*
X164319Y151819D01*
X163493Y152453D01*
X162532Y152851D01*
X161500Y152987D01*
D02*
G37*
G36*
X144948Y147000D02*
X143500D01*
Y145552D01*
X144319Y146181D01*
X144948Y147000D01*
D02*
G37*
G36*
X139500D02*
X138052D01*
X138681Y146181D01*
X139500Y145552D01*
Y147000D01*
D02*
G37*
G36*
X115453Y152953D02*
X107547D01*
Y145047D01*
X115453D01*
Y152953D01*
D02*
G37*
G36*
X191000Y144001D02*
X190983Y143994D01*
X190147Y143353D01*
X189506Y142517D01*
X189499Y142500D01*
X191000D01*
Y144001D01*
D02*
G37*
G36*
X245000Y143626D02*
X243282D01*
X243331Y143508D01*
X244005Y142631D01*
X244882Y141957D01*
X245000Y141908D01*
Y143626D01*
D02*
G37*
G36*
X250718D02*
X249000D01*
Y141908D01*
X249118Y141957D01*
X249995Y142631D01*
X250669Y143508D01*
X250718Y143626D01*
D02*
G37*
G36*
X236968Y142060D02*
Y140559D01*
X238470D01*
X238462Y140576D01*
X237821Y141412D01*
X236986Y142053D01*
X236968Y142060D01*
D02*
G37*
G36*
X202500Y142376D02*
Y140500D01*
X204376D01*
X204297Y140692D01*
X203600Y141600D01*
X202692Y142297D01*
X202500Y142376D01*
D02*
G37*
G36*
X226000D02*
X225808Y142297D01*
X224900Y141600D01*
X224203Y140692D01*
X224124Y140500D01*
X226000D01*
Y142376D01*
D02*
G37*
G36*
X191000Y138500D02*
X189499D01*
X189506Y138483D01*
X190147Y137647D01*
X190983Y137006D01*
X191000Y136999D01*
Y138500D01*
D02*
G37*
G36*
X238470Y136559D02*
X236968D01*
Y135058D01*
X236986Y135065D01*
X237821Y135706D01*
X238462Y136542D01*
X238470Y136559D01*
D02*
G37*
G36*
X230000Y142376D02*
Y138500D01*
Y134624D01*
X230192Y134703D01*
X231100Y135400D01*
X231475Y135889D01*
X231975D01*
X232116Y135706D01*
X232951Y135065D01*
X232968Y135058D01*
Y138559D01*
Y142060D01*
X232951Y142053D01*
X232116Y141412D01*
X231930Y141170D01*
X231430D01*
X231100Y141600D01*
X230192Y142297D01*
X230000Y142376D01*
D02*
G37*
G36*
X204376Y136500D02*
X202500D01*
Y134624D01*
X202692Y134703D01*
X203600Y135400D01*
X204297Y136308D01*
X204376Y136500D01*
D02*
G37*
G36*
X226000D02*
X224124D01*
X224203Y136308D01*
X224900Y135400D01*
X225808Y134703D01*
X226000Y134624D01*
Y136500D01*
D02*
G37*
G36*
X195000Y144001D02*
Y140500D01*
Y136999D01*
X195017Y137006D01*
X195736Y137557D01*
X196258Y137424D01*
X196265Y137365D01*
X196703Y136308D01*
X197400Y135400D01*
X198308Y134703D01*
X198500Y134624D01*
Y138500D01*
Y142376D01*
X198308Y142297D01*
X197400Y141600D01*
X197359Y141546D01*
X196837Y141688D01*
X196494Y142517D01*
X195853Y143353D01*
X195017Y143994D01*
X195000Y144001D01*
D02*
G37*
G36*
X263000Y133029D02*
Y130500D01*
X265529D01*
X265324Y130996D01*
X264530Y132030D01*
X263496Y132824D01*
X263000Y133029D01*
D02*
G37*
G36*
X259000D02*
X258504Y132824D01*
X257470Y132030D01*
X256676Y130996D01*
X256471Y130500D01*
X259000D01*
Y133029D01*
D02*
G37*
G36*
X265529Y126500D02*
X263000D01*
Y123971D01*
X263496Y124176D01*
X264530Y124970D01*
X265324Y126004D01*
X265529Y126500D01*
D02*
G37*
G36*
X259000D02*
X256471D01*
X256676Y126004D01*
X257470Y124970D01*
X258504Y124176D01*
X259000Y123971D01*
Y126500D01*
D02*
G37*
%LPD*%
D13*
X44500Y127500D02*
D03*
X51193D02*
D03*
X96346Y107000D02*
D03*
X89653D02*
D03*
X92000Y139500D02*
D03*
X85307D02*
D03*
D14*
X247000Y45500D02*
D03*
Y52193D02*
D03*
X247500Y74154D02*
D03*
Y80847D02*
D03*
Y110500D02*
D03*
Y103807D02*
D03*
D15*
X115209Y138500D02*
D03*
X103791D02*
D03*
D33*
X181000Y130000D02*
D03*
X180500Y154000D02*
D03*
X247000Y145626D02*
D03*
D34*
X189050Y3550D02*
X192274Y6774D01*
X105956Y3550D02*
X189050D01*
X100500Y9006D02*
X105956Y3550D01*
X82348Y50152D02*
X83592D01*
X78583Y53917D02*
X82348Y50152D01*
X75500Y53917D02*
X78583D01*
X83592Y50152D02*
X83872Y49872D01*
X78000Y34000D02*
X83872Y39872D01*
X75500Y34000D02*
X78000D01*
X68500Y39000D02*
X70691Y41191D01*
X74191D01*
X75500Y42500D01*
X68500Y28598D02*
Y39000D01*
Y28598D02*
X74516Y22583D01*
X75500D01*
X82541Y21203D02*
X84244Y19500D01*
X75500Y22583D02*
X76484D01*
X77864Y21203D01*
X82541D01*
X100500Y9006D02*
Y17000D01*
X192274Y6774D02*
X193000Y30000D01*
X221500Y118500D02*
X257500D01*
X267500Y108500D01*
X212500Y59228D02*
Y60000D01*
X204272Y51000D02*
X212500Y59228D01*
X124920Y123000D02*
X130500D01*
X122500Y82000D02*
X130000D01*
X152524Y46800D02*
Y53998D01*
X130500Y133500D02*
X131097Y132903D01*
Y125240D02*
Y132903D01*
X261750Y67750D02*
X262500Y68500D01*
X267500Y72500D02*
Y108500D01*
X84244Y19500D02*
X86744Y17000D01*
X100500D01*
X263944Y92400D02*
Y93556D01*
X263000Y94500D02*
X263944Y93556D01*
X261500Y94500D02*
X263000D01*
X260500Y95500D02*
X261500Y94500D01*
X263944Y92400D02*
X267400Y88944D01*
X262750Y67750D02*
X267500Y72500D01*
X130500Y123000D02*
X136000Y117500D01*
X260000Y66000D02*
X261750Y67750D01*
X262750D01*
X262500Y38500D02*
X267400Y43400D01*
X259500Y37000D02*
X261000Y38500D01*
X267400Y43400D02*
Y59444D01*
X263944Y62900D02*
X267400Y59444D01*
X263100Y62900D02*
X263944D01*
X260000Y66000D02*
X263100Y62900D01*
D35*
X31799Y148000D02*
G03*
X21799Y158000I-10000J0D01*
G01*
X130000Y19500D02*
Y28494D01*
X143075Y41569D01*
X120500Y22812D02*
X139925Y42237D01*
X120500Y14000D02*
Y22812D01*
Y14000D02*
X126000Y8500D01*
X139925Y42237D02*
Y46800D01*
X129299Y35500D02*
X136776Y42977D01*
X117000Y35500D02*
X129299D01*
X83872Y49872D02*
X92850Y58850D01*
X83872Y39872D02*
X89459Y45459D01*
X135500Y57500D02*
Y66978D01*
Y57500D02*
X135500Y57500D01*
X128454Y74024D02*
X135500Y66978D01*
X83000Y29000D02*
X83747Y29747D01*
X83744Y30000D02*
X83747Y29997D01*
X84244Y29500D01*
X108500Y72791D02*
X109484D01*
X111402Y70874D01*
X125300D01*
X189500Y138500D02*
X200500D01*
X189954Y37353D02*
X193000D01*
X100500Y86500D02*
X110924D01*
X44500Y126000D02*
X78500Y92000D01*
Y88000D02*
Y92000D01*
Y88000D02*
X82000Y84500D01*
X125300Y74024D02*
X128454D01*
X123400D02*
X125300D01*
X96346Y107000D02*
Y107394D01*
Y106606D02*
Y107000D01*
X82000Y84500D02*
X89709D01*
X91709Y86500D01*
X100500D01*
X110924D02*
X123400Y74024D01*
X106235Y101765D02*
X107000Y101000D01*
X101187Y101765D02*
X106235D01*
X96346Y106606D02*
X101187Y101765D01*
X31799Y142500D02*
Y148000D01*
X13000Y158000D02*
X21799D01*
X49634Y128665D02*
X73026Y105274D01*
X115000Y91500D02*
X119800Y86700D01*
X93000Y91500D02*
X115000D01*
X79226Y105274D02*
X93000Y91500D01*
X119800Y86700D02*
X129472D01*
X69650Y127397D02*
Y142500D01*
X121600Y89400D02*
X131100D01*
X116000Y95000D02*
X121600Y89400D01*
X94353Y95000D02*
X116000D01*
X89653Y99700D02*
X94353Y95000D01*
X149918Y14500D02*
X183500D01*
X178000Y24500D02*
Y26000D01*
X179500Y27500D01*
X180000Y19000D02*
X182677Y21678D01*
X152500Y19000D02*
X180000D01*
X149374Y22126D02*
X152500Y19000D01*
X149374Y22126D02*
Y23479D01*
X143300Y29553D02*
X149374Y23479D01*
X179500Y27500D02*
Y55500D01*
X176724Y58276D02*
X179500Y55500D01*
X157700Y58276D02*
X176724D01*
X192000Y50000D02*
X193000D01*
X179800Y62200D02*
X192000Y50000D01*
X165335Y62200D02*
X179800D01*
X181500Y67500D02*
X182000D01*
X188753Y60747D01*
X187500Y67082D02*
Y71000D01*
X184000Y74500D02*
X187500Y71000D01*
X175500Y74500D02*
X184000D01*
X187500Y67082D02*
X189234Y65347D01*
X168724Y67724D02*
X175500Y74500D01*
X175200Y84700D02*
X182447D01*
X164524Y74024D02*
X175200Y84700D01*
X157700Y74024D02*
X164524D01*
X157700Y67724D02*
X168724D01*
X193000Y70000D02*
Y71000D01*
X185200Y78800D02*
X193000Y71000D01*
X185200Y78800D02*
Y81947D01*
X188753Y60747D02*
X192253D01*
X189234Y65347D02*
X195200D01*
X182447Y84700D02*
X185200Y81947D01*
X192253Y60747D02*
X193000Y60000D01*
X162960Y64575D02*
X165335Y62200D01*
X157700Y64575D02*
X162960D01*
X166249Y70874D02*
X175375Y80000D01*
X157700Y70874D02*
X166249D01*
X175375Y80000D02*
X180500D01*
X168000Y85000D02*
Y95500D01*
X172500Y100000D01*
X120682Y42000D02*
X131981D01*
X137500Y18853D02*
Y32176D01*
X146224Y40900D01*
X148000Y31500D02*
X152524Y36024D01*
Y46800D01*
X143075Y41569D02*
Y46800D01*
X131981Y42000D02*
X133626Y43645D01*
Y46800D01*
X136776Y42977D02*
Y46800D01*
X143000Y21418D02*
X149918Y14500D01*
X143000Y21418D02*
Y22500D01*
X143300Y29553D02*
Y34157D01*
X149374Y40231D01*
Y46800D01*
X146224Y40900D02*
Y46800D01*
X113500Y42000D02*
X120682D01*
X137500Y18853D02*
X145546Y10808D01*
X161976Y51976D02*
X168000Y58000D01*
X142193Y66584D02*
X153651Y55126D01*
X139937Y66584D02*
X142193D01*
X130476Y76045D02*
X139937Y66584D01*
X182947Y36527D02*
X191767Y45347D01*
X182947Y30310D02*
Y36527D01*
X185647Y33046D02*
X189954Y37353D01*
X185647Y29191D02*
Y33046D01*
X188347Y31927D02*
X191073Y34653D01*
X188347Y28073D02*
Y31927D01*
X191073Y34653D02*
X208500D01*
X182677Y21678D02*
X182947Y30310D01*
X191767Y45347D02*
X194927D01*
X185243Y16243D02*
X185647Y29191D01*
X183500Y14500D02*
X185243Y16243D01*
X193000Y37353D02*
Y40000D01*
X145546Y10808D02*
X187808D01*
X188347Y28073D01*
X227500Y27834D02*
X231126Y24208D01*
X108297Y36797D02*
X113500Y42000D01*
X108297Y33026D02*
Y36797D01*
X102272Y27000D02*
X108297Y33026D01*
X109957Y131350D02*
X117150D01*
X117500Y131000D01*
X111200Y126300D02*
X123300D01*
X110850Y126650D02*
X111200Y126300D01*
X123300D02*
X126000Y129000D01*
X103791Y137516D02*
X109957Y131350D01*
X83172Y134518D02*
Y146000D01*
X96291D02*
X103791Y138500D01*
X83172Y146000D02*
X96291D01*
X92000Y132835D02*
X100000Y124835D01*
X92000Y132835D02*
Y139500D01*
X229000Y113500D02*
X229765Y112735D01*
Y109870D02*
Y112735D01*
Y109870D02*
X234335Y105300D01*
Y104610D02*
Y105300D01*
X81653Y133000D02*
X83172Y134518D01*
X231126Y24208D02*
X234335Y27417D01*
X227500Y27834D02*
Y35500D01*
Y43000D02*
X230610Y46110D01*
X220139Y43000D02*
X227500D01*
X213139Y50000D02*
X220139Y43000D01*
X230610Y46110D02*
X234335D01*
X224500Y48762D02*
X232738Y57000D01*
X224500Y48381D02*
Y48762D01*
X232738Y57000D02*
X234335D01*
X228335Y80500D02*
X234335Y86500D01*
X226500Y80500D02*
X228335D01*
X113615Y51800D02*
X125124D01*
X104950Y60465D02*
X113615Y51800D01*
X104950Y60465D02*
Y62197D01*
X95550Y56050D02*
Y62197D01*
X89459Y49959D02*
X95550Y56050D01*
X97259Y67724D02*
X125300D01*
X92850Y63315D02*
X97259Y67724D01*
X92850Y58850D02*
Y63315D01*
X102197Y64950D02*
X104950Y62197D01*
X98303Y64950D02*
X102197D01*
X95550Y62197D02*
X98303Y64950D01*
X100250Y47250D02*
Y60250D01*
Y47250D02*
X100500Y47000D01*
X89459Y45459D02*
Y49959D01*
X211550Y70950D02*
X212500Y70000D01*
X200803Y70950D02*
X211550D01*
X195200Y65347D02*
X200803Y70950D01*
X210573Y64653D02*
X216653D01*
X205700Y59780D02*
X210573Y64653D01*
X205700Y59075D02*
Y59780D01*
X199572Y52947D02*
X205700Y59075D01*
X196872Y54065D02*
X203000Y60193D01*
Y66250D01*
X196872Y52235D02*
Y54065D01*
X199572Y49992D02*
Y52947D01*
X194927Y45347D02*
X199572Y49992D01*
X196291Y52235D02*
X196872D01*
X194057Y50000D02*
X196291Y52235D01*
X193000Y50000D02*
X194057D01*
X221750Y60250D02*
X222000Y60000D01*
X120735Y107765D02*
Y109265D01*
X116000Y114000D02*
X120735Y109265D01*
X116000Y114000D02*
Y117500D01*
X12000Y15000D02*
Y126328D01*
X13172Y127500D01*
X120735Y107765D02*
X121500Y107000D01*
X13172Y127500D02*
X33000D01*
X12000Y15000D02*
X13500Y13500D01*
X121347Y114971D02*
X126200Y110118D01*
Y105053D02*
Y110118D01*
X123500Y102353D02*
X126200Y105053D01*
X123500Y94500D02*
Y102353D01*
X121347Y114971D02*
Y119427D01*
X124920Y123000D01*
X131000Y94682D02*
Y106500D01*
Y94682D02*
X139925Y85756D01*
X136500Y93000D02*
Y107647D01*
X132947Y111200D02*
X136500Y107647D01*
X131947Y111200D02*
X132947D01*
X126000Y117147D02*
X131947Y111200D01*
X89653Y99700D02*
Y107000D01*
X171000Y135000D02*
X176000Y130000D01*
X181000D01*
X171000Y135000D02*
Y150500D01*
X174500Y154000D01*
X117456Y55126D02*
X125300D01*
X116082Y56500D02*
X117456Y55126D01*
X115562Y56500D02*
X116082D01*
X147000Y68971D02*
X154545Y61425D01*
X117082Y63000D02*
X118657Y61425D01*
X157700Y51976D02*
X161976D01*
X152524Y53998D02*
X153651Y55126D01*
X118657Y61425D02*
X125300D01*
X147000Y68971D02*
Y69000D01*
X139925Y79200D02*
Y85756D01*
X154545Y61425D02*
X157700D01*
X130476Y79200D02*
Y81524D01*
Y76045D02*
Y79200D01*
X153651Y55126D02*
X157700D01*
X110000Y63000D02*
X117082D01*
X130000Y82000D02*
X130476Y81524D01*
X131097Y123597D02*
Y125240D01*
X130500Y123000D02*
X131097Y123597D01*
X129472Y86700D02*
X133626Y82546D01*
Y79200D02*
Y82546D01*
X136500Y93000D02*
X143075Y86425D01*
X141000Y93000D02*
X146224Y87776D01*
X141000Y93000D02*
Y124000D01*
X205500Y87250D02*
Y87500D01*
Y87250D02*
X212500Y80250D01*
Y80000D02*
Y80250D01*
X205500Y96000D02*
X206000D01*
X212000Y90000D01*
X212500D01*
X125124Y51800D02*
X125300Y51976D01*
X234335Y27417D02*
Y28000D01*
X212500Y50000D02*
X213139D01*
X235820Y57000D02*
X239992Y61172D01*
X234335Y57000D02*
X235820D01*
X71235Y115765D02*
X72000Y115000D01*
X71235Y115765D02*
Y119265D01*
X63000Y127500D02*
X71235Y119265D01*
X69650Y127397D02*
X89653Y107394D01*
Y107000D02*
Y107394D01*
X69201Y142500D02*
X69650D01*
X103791Y137516D02*
Y138500D01*
X174500Y154000D02*
X180500D01*
X146500D02*
X174500D01*
X193000Y140500D02*
X194082D01*
X195184Y139398D01*
X199602D01*
X200500Y138500D01*
X151500Y104500D02*
Y111500D01*
X144500Y94000D02*
Y114500D01*
Y94000D02*
X149374Y89126D01*
X144500Y114500D02*
X151500Y121500D01*
X157500Y94000D02*
Y125500D01*
X150753Y132247D02*
X151500Y131500D01*
X157500Y125500D01*
X152524Y89024D02*
X157500Y94000D01*
X212500Y30000D02*
Y30653D01*
X208500Y34653D02*
X212500Y30653D01*
Y100000D02*
Y106796D01*
X187500Y94000D02*
X192250Y89250D01*
X174750Y94000D02*
X187500D01*
X192250Y89250D02*
X193000Y90000D01*
X172500Y100000D02*
X193000D01*
X218000Y66000D02*
Y73481D01*
X216653Y64653D02*
X218000Y66000D01*
X228000Y138500D02*
X234909D01*
X234968Y138559D01*
X200500Y138500D02*
X228000D01*
X124310Y149000D02*
X140653Y132657D01*
X121500Y149000D02*
X124310D01*
X140653Y132347D02*
Y132657D01*
X228000Y148500D02*
X230346Y150847D01*
X106000Y117500D02*
X116000D01*
X103000Y120500D02*
X106000Y117500D01*
X131100Y89400D02*
X136776Y83724D01*
X149374Y79200D02*
Y89126D01*
X146224Y79200D02*
Y87776D01*
X143075Y79200D02*
Y86425D01*
X152524Y79200D02*
Y89024D01*
X136000Y129000D02*
X141000Y124000D01*
X98248Y109295D02*
Y113441D01*
X96346Y107394D02*
X98248Y109295D01*
Y113441D02*
X101366Y116559D01*
Y118866D01*
X103000Y120500D01*
X254000Y87347D02*
Y109000D01*
X247500Y80847D02*
X254000Y87347D01*
X240224Y110500D02*
X247500D01*
X252500D02*
X254000Y109000D01*
X247500Y110500D02*
X252500D01*
X250328Y78413D02*
X251157D01*
X252153Y77417D01*
Y56952D02*
Y77417D01*
X247894Y80847D02*
X250328Y78413D01*
X247500Y80847D02*
X247894D01*
X235820Y86500D02*
X239992Y90672D01*
X234335Y86500D02*
X235820D01*
X240071Y80847D02*
X247500D01*
X234335Y75110D02*
X240071Y80847D01*
X242672Y90672D02*
X247500Y95500D01*
X239992Y90672D02*
X242672D01*
X247394Y52193D02*
X252153Y56952D01*
X247500Y66500D02*
Y74154D01*
X247000Y66000D02*
X247500Y66500D01*
X111500Y47000D02*
X130476D01*
Y46800D02*
Y47000D01*
X126000Y117147D02*
Y117500D01*
X44500Y126000D02*
Y127500D01*
X73026Y105274D02*
X79226D01*
X33000Y127500D02*
X44500D01*
X49634Y128665D02*
Y131555D01*
X38689Y142500D02*
X49634Y131555D01*
X31799Y142500D02*
X38689D01*
X83747Y29997D02*
Y32019D01*
Y29747D02*
Y29997D01*
Y32019D02*
X98728Y47000D01*
X100000Y123500D02*
X103000Y120500D01*
X100000Y123500D02*
Y124835D01*
X81772Y124953D02*
X81890Y124835D01*
X81772Y124953D02*
Y132882D01*
X81653Y133000D02*
X81772Y132882D01*
X115209Y138500D02*
X116709Y140000D01*
X98728Y47000D02*
X100500D01*
X202500Y40000D02*
X212500Y50000D01*
X193000Y40000D02*
X202500D01*
X259871Y129629D02*
X261000Y128500D01*
X259871Y129629D02*
Y132755D01*
X247000Y145626D02*
X259871Y132755D01*
X228000Y138500D02*
X235126Y145626D01*
X247000D01*
X181000Y130000D02*
X189500Y138500D01*
X141500Y149000D02*
X146500Y154000D01*
X213000Y148500D02*
X213500Y148000D01*
X244346Y150847D02*
X247000Y153500D01*
X151500Y149000D02*
X152247Y148253D01*
X234335Y46110D02*
X240417Y52193D01*
X247000D01*
X101500Y37000D02*
X111500Y47000D01*
X216134Y75347D02*
X218000Y73481D01*
X197653Y75347D02*
X216134D01*
X193000Y80000D02*
X197653Y75347D01*
X247000Y52193D02*
X247394D01*
X246091Y102398D02*
X247500Y103807D01*
X246917Y73571D02*
X247500Y74154D01*
X234335Y104610D02*
X240224Y110500D01*
X247500Y95500D02*
Y103807D01*
X239992Y61172D02*
X242172D01*
X247000Y66000D01*
X246500Y37000D02*
Y45000D01*
X247000Y45500D01*
X239992Y32172D02*
X241672D01*
X235820Y28000D02*
X239992Y32172D01*
X234335Y28000D02*
X235820D01*
X241672Y32172D02*
X246500Y37000D01*
X140653Y132347D02*
X151500Y121500D01*
X136776Y79200D02*
Y83724D01*
X148253Y132247D02*
X150753D01*
X131500Y149000D02*
X148253Y132247D01*
X100500Y27000D02*
X102272D01*
X100500Y37000D02*
X101500D01*
D36*
X116709Y140000D02*
X118709Y138000D01*
X221050Y78242D02*
Y118050D01*
X221500Y118500D01*
X221050Y78242D02*
X221750Y77543D01*
Y60250D02*
Y77543D01*
X212500Y60000D02*
X222000D01*
X177000Y136500D02*
Y140500D01*
X180500Y144000D01*
X185000Y148500D02*
X200500D01*
X180500Y144000D02*
X185000Y148500D01*
X178374Y122126D02*
X181000D01*
X152247Y148253D02*
X178374Y122126D01*
X118709Y138000D02*
X126000D01*
X228000Y148500D02*
X232785Y153285D01*
X246000D01*
X200500Y148500D02*
X213000D01*
X228000Y128500D02*
X241000D01*
X200500D02*
X228000D01*
X194126Y122126D02*
X200500Y128500D01*
X181000Y122126D02*
X194126D01*
D37*
X246000Y153500D02*
X247000D01*
D39*
X193000Y163000D02*
X194634Y164634D01*
Y180134D01*
X199500Y185000D01*
X247000Y154526D02*
Y184000D01*
X246000Y185000D02*
X247000Y184000D01*
D40*
X37000Y24500D02*
D03*
Y84500D02*
D03*
D41*
X84244Y89500D02*
D03*
Y79500D02*
D03*
Y69500D02*
D03*
Y59500D02*
D03*
Y49500D02*
D03*
Y39500D02*
D03*
Y29500D02*
D03*
X212500Y40000D02*
D03*
Y50000D02*
D03*
Y60000D02*
D03*
Y70000D02*
D03*
Y80000D02*
D03*
Y90000D02*
D03*
Y100000D02*
D03*
X193000Y30000D02*
D03*
Y40000D02*
D03*
Y50000D02*
D03*
Y60000D02*
D03*
Y70000D02*
D03*
Y80000D02*
D03*
Y90000D02*
D03*
X116000Y117500D02*
D03*
X126000D02*
D03*
X121500Y149000D02*
D03*
X131500D02*
D03*
X141500D02*
D03*
X151500D02*
D03*
X161500D02*
D03*
X126000Y129000D02*
D03*
X151500Y121500D02*
D03*
Y131500D02*
D03*
D42*
X84244Y19500D02*
D03*
X212500Y30000D02*
D03*
X193000Y100000D02*
D03*
X151500Y111500D02*
D03*
D43*
X100500Y47000D02*
D03*
D44*
Y37000D02*
D03*
Y27000D02*
D03*
Y17000D02*
D03*
D45*
X136000Y117500D02*
D03*
X111500Y149000D02*
D03*
X136000Y129000D02*
D03*
D46*
X200500Y148500D02*
D03*
Y138500D02*
D03*
X228000Y128500D02*
D03*
Y138500D02*
D03*
D47*
X200500Y128500D02*
D03*
X228000Y148500D02*
D03*
D48*
X63000Y127500D02*
D03*
X33000D02*
D03*
D49*
X81890Y124835D02*
D03*
X100000D02*
D03*
Y152000D02*
D03*
X81890D02*
D03*
X261000Y128500D02*
D03*
X241000D02*
D03*
X234335Y46110D02*
D03*
Y28000D02*
D03*
X261500D02*
D03*
Y46110D02*
D03*
X234335Y75110D02*
D03*
Y57000D02*
D03*
X261500D02*
D03*
Y75110D02*
D03*
X234335Y104610D02*
D03*
Y86500D02*
D03*
X261500D02*
D03*
Y104610D02*
D03*
D50*
X13000Y158000D02*
D03*
X269000Y13500D02*
D03*
Y158500D02*
D03*
D51*
X13500Y13500D02*
D03*
D52*
X199500Y185000D02*
D03*
X246000D02*
D03*
D53*
X130000Y19500D02*
D03*
X117000Y35500D02*
D03*
X135500Y57500D02*
D03*
X178000Y24500D02*
D03*
X100500Y86500D02*
D03*
X107000Y101000D02*
D03*
X181500Y67500D02*
D03*
X180500Y80000D02*
D03*
X168000Y85000D02*
D03*
X148000Y31500D02*
D03*
X143000Y22500D02*
D03*
X126000Y8500D02*
D03*
X110850Y126650D02*
D03*
X117500Y131000D02*
D03*
X227500Y35500D02*
D03*
X224500Y48381D02*
D03*
X229000Y113500D02*
D03*
X226500Y80500D02*
D03*
X100250Y60250D02*
D03*
X203000Y66250D02*
D03*
X204272Y51000D02*
D03*
X222000Y60000D02*
D03*
X131000Y106500D02*
D03*
X121500Y107000D02*
D03*
X177000Y136500D02*
D03*
X147000Y69000D02*
D03*
X115562Y56500D02*
D03*
X110000Y63000D02*
D03*
X122500Y82000D02*
D03*
X123500Y94500D02*
D03*
X193000Y163000D02*
D03*
X205500Y87500D02*
D03*
Y96000D02*
D03*
X72000Y115000D02*
D03*
X193000Y140500D02*
D03*
X151500Y104500D02*
D03*
X212500Y106796D02*
D03*
X174750Y94000D02*
D03*
X234968Y138559D02*
D03*
X126000Y138000D02*
D03*
X221500Y118500D02*
D03*
X213500Y148000D02*
D03*
D54*
X75500Y34000D02*
D03*
Y22583D02*
D03*
X108500Y84209D02*
D03*
Y72791D02*
D03*
X75500Y42500D02*
D03*
Y53917D02*
D03*
D55*
X247500Y95500D02*
D03*
X260500D02*
D03*
X247000Y66000D02*
D03*
X260000D02*
D03*
X246500Y37000D02*
D03*
X259500D02*
D03*
D56*
X69201Y142500D02*
D03*
X31799D02*
D03*
D57*
X130476Y79200D02*
D03*
X133626D02*
D03*
X136776D02*
D03*
X139925D02*
D03*
X143075D02*
D03*
X146224D02*
D03*
X149374D02*
D03*
X152524D02*
D03*
Y46800D02*
D03*
X149374D02*
D03*
X146224D02*
D03*
X143075D02*
D03*
X139925D02*
D03*
X136776D02*
D03*
X133626D02*
D03*
X130476D02*
D03*
D58*
X157700Y74024D02*
D03*
Y70874D02*
D03*
Y67724D02*
D03*
Y64575D02*
D03*
Y61425D02*
D03*
Y58276D02*
D03*
Y55126D02*
D03*
Y51976D02*
D03*
X125300D02*
D03*
Y55126D02*
D03*
Y58276D02*
D03*
Y61425D02*
D03*
Y64575D02*
D03*
Y67724D02*
D03*
Y70874D02*
D03*
Y74024D02*
D03*
D59*
X126000Y138000D02*
X130500Y133500D01*
D60*
X181000Y122126D02*
D03*
X180500Y144000D02*
D03*
X247000Y153500D02*
D03*
M02*
