G04*
G04 #@! TF.GenerationSoftware,Altium Limited,Altium Designer,19.1.5 (86)*
G04*
G04 Layer_Color=2752767*
%FSLAX25Y25*%
%MOIN*%
G70*
G01*
G75*
%ADD67C,0.00200*%
%ADD68C,0.00267*%
D67*
X36200Y23700D02*
Y25300D01*
X37800D01*
Y23700D01*
X36200D01*
Y83700D02*
Y85300D01*
X37800D01*
Y83700D01*
X36200D01*
X100500Y46200D02*
X99700Y47800D01*
X101300D01*
X100500Y46200D01*
Y36200D02*
X99700Y37800D01*
X101300D01*
X100500Y36200D01*
Y26200D02*
X99700Y27800D01*
X101300D01*
X100500Y26200D01*
Y16200D02*
X99700Y17800D01*
X101300D01*
X100500Y16200D01*
X200500Y147700D02*
X200900Y148100D01*
X201300D01*
X200900Y148500D01*
X201300Y148900D01*
X200900D01*
X200500Y149300D01*
X200100Y148900D01*
X199700D01*
X200100Y148500D01*
X199700Y148100D01*
X200100D01*
X200500Y147700D01*
Y137700D02*
X200900Y138100D01*
X201300D01*
X200900Y138500D01*
X201300Y138900D01*
X200900D01*
X200500Y139300D01*
X200100Y138900D01*
X199700D01*
X200100Y138500D01*
X199700Y138100D01*
X200100D01*
X200500Y137700D01*
Y127700D02*
X200900Y128100D01*
X201300D01*
X200900Y128500D01*
X201300Y128900D01*
X200900D01*
X200500Y129300D01*
X200100Y128900D01*
X199700D01*
X200100Y128500D01*
X199700Y128100D01*
X200100D01*
X200500Y127700D01*
X62200Y126700D02*
X62600Y127500D01*
X62200Y128300D01*
X63000Y127900D01*
X63800Y128300D01*
X63400Y127500D01*
X63800Y126700D01*
X63000Y127100D01*
X62200Y126700D01*
X32200D02*
X32600Y127500D01*
X32200Y128300D01*
X33000Y127900D01*
X33800Y128300D01*
X33400Y127500D01*
X33800Y126700D01*
X33000Y127100D01*
X32200Y126700D01*
X81490Y124435D02*
Y124035D01*
X82290D01*
Y124435D01*
X82690D01*
Y125235D01*
X82290D01*
Y125635D01*
X81490D01*
Y125235D01*
X81090D01*
Y124435D01*
X81490D01*
X99600D02*
Y124035D01*
X100400D01*
Y124435D01*
X100800D01*
Y125235D01*
X100400D01*
Y125635D01*
X99600D01*
Y125235D01*
X99200D01*
Y124435D01*
X99600D01*
Y151600D02*
Y151200D01*
X100400D01*
Y151600D01*
X100800D01*
Y152400D01*
X100400D01*
Y152800D01*
X99600D01*
Y152400D01*
X99200D01*
Y151600D01*
X99600D01*
X81490D02*
Y151200D01*
X82290D01*
Y151600D01*
X82690D01*
Y152400D01*
X82290D01*
Y152800D01*
X81490D01*
Y152400D01*
X81090D01*
Y151600D01*
X81490D01*
X260600Y128100D02*
Y127700D01*
X261400D01*
Y128100D01*
X261800D01*
Y128900D01*
X261400D01*
Y129300D01*
X260600D01*
Y128900D01*
X260200D01*
Y128100D01*
X260600D01*
X240600D02*
Y127700D01*
X241400D01*
Y128100D01*
X241800D01*
Y128900D01*
X241400D01*
Y129300D01*
X240600D01*
Y128900D01*
X240200D01*
Y128100D01*
X240600D01*
X228000Y127700D02*
X228400Y128100D01*
X228800D01*
X228400Y128500D01*
X228800Y128900D01*
X228400D01*
X228000Y129300D01*
X227600Y128900D01*
X227200D01*
X227600Y128500D01*
X227200Y128100D01*
X227600D01*
X228000Y127700D01*
Y137700D02*
X228400Y138100D01*
X228800D01*
X228400Y138500D01*
X228800Y138900D01*
X228400D01*
X228000Y139300D01*
X227600Y138900D01*
X227200D01*
X227600Y138500D01*
X227200Y138100D01*
X227600D01*
X228000Y137700D01*
Y147700D02*
X228400Y148100D01*
X228800D01*
X228400Y148500D01*
X228800Y148900D01*
X228400D01*
X228000Y149300D01*
X227600Y148900D01*
X227200D01*
X227600Y148500D01*
X227200Y148100D01*
X227600D01*
X228000Y147700D01*
X180200Y121326D02*
X180600D01*
X181000Y121726D01*
X181400Y121326D01*
X181800D01*
Y121726D01*
X181400Y122126D01*
X181800Y122526D01*
Y122926D01*
X181400D01*
X181000Y122526D01*
X180600Y122926D01*
X180200D01*
Y122526D01*
X180600Y122126D01*
X180200Y121726D01*
Y121326D01*
Y129200D02*
X180600D01*
X181000Y129600D01*
X181400Y129200D01*
X181800D01*
Y129600D01*
X181400Y130000D01*
X181800Y130400D01*
Y130800D01*
X181400D01*
X181000Y130400D01*
X180600Y130800D01*
X180200D01*
Y130400D01*
X180600Y130000D01*
X180200Y129600D01*
Y129200D01*
X179700Y143200D02*
X180100D01*
X180500Y143600D01*
X180900Y143200D01*
X181300D01*
Y143600D01*
X180900Y144000D01*
X181300Y144400D01*
Y144800D01*
X180900D01*
X180500Y144400D01*
X180100Y144800D01*
X179700D01*
Y144400D01*
X180100Y144000D01*
X179700Y143600D01*
Y143200D01*
Y153200D02*
X180100D01*
X180500Y153600D01*
X180900Y153200D01*
X181300D01*
Y153600D01*
X180900Y154000D01*
X181300Y154400D01*
Y154800D01*
X180900D01*
X180500Y154400D01*
X180100Y154800D01*
X179700D01*
Y154400D01*
X180100Y154000D01*
X179700Y153600D01*
Y153200D01*
X246200Y152700D02*
X246600D01*
X247000Y153100D01*
X247400Y152700D01*
X247800D01*
Y153100D01*
X247400Y153500D01*
X247800Y153900D01*
Y154300D01*
X247400D01*
X247000Y153900D01*
X246600Y154300D01*
X246200D01*
Y153900D01*
X246600Y153500D01*
X246200Y153100D01*
Y152700D01*
Y144826D02*
X246600D01*
X247000Y145226D01*
X247400Y144826D01*
X247800D01*
Y145226D01*
X247400Y145626D01*
X247800Y146026D01*
Y146426D01*
X247400D01*
X247000Y146026D01*
X246600Y146426D01*
X246200D01*
Y146026D01*
X246600Y145626D01*
X246200Y145226D01*
Y144826D01*
X233935Y45710D02*
Y45310D01*
X234735D01*
Y45710D01*
X235135D01*
Y46510D01*
X234735D01*
Y46910D01*
X233935D01*
Y46510D01*
X233535D01*
Y45710D01*
X233935D01*
Y27600D02*
Y27200D01*
X234735D01*
Y27600D01*
X235135D01*
Y28400D01*
X234735D01*
Y28800D01*
X233935D01*
Y28400D01*
X233535D01*
Y27600D01*
X233935D01*
X261100D02*
Y27200D01*
X261900D01*
Y27600D01*
X262300D01*
Y28400D01*
X261900D01*
Y28800D01*
X261100D01*
Y28400D01*
X260700D01*
Y27600D01*
X261100D01*
Y45710D02*
Y45310D01*
X261900D01*
Y45710D01*
X262300D01*
Y46510D01*
X261900D01*
Y46910D01*
X261100D01*
Y46510D01*
X260700D01*
Y45710D01*
X261100D01*
X233935Y74710D02*
Y74310D01*
X234735D01*
Y74710D01*
X235135D01*
Y75510D01*
X234735D01*
Y75910D01*
X233935D01*
Y75510D01*
X233535D01*
Y74710D01*
X233935D01*
Y56600D02*
Y56200D01*
X234735D01*
Y56600D01*
X235135D01*
Y57400D01*
X234735D01*
Y57800D01*
X233935D01*
Y57400D01*
X233535D01*
Y56600D01*
X233935D01*
X261100D02*
Y56200D01*
X261900D01*
Y56600D01*
X262300D01*
Y57400D01*
X261900D01*
Y57800D01*
X261100D01*
Y57400D01*
X260700D01*
Y56600D01*
X261100D01*
Y74710D02*
Y74310D01*
X261900D01*
Y74710D01*
X262300D01*
Y75510D01*
X261900D01*
Y75910D01*
X261100D01*
Y75510D01*
X260700D01*
Y74710D01*
X261100D01*
X233935Y104210D02*
Y103810D01*
X234735D01*
Y104210D01*
X235135D01*
Y105010D01*
X234735D01*
Y105410D01*
X233935D01*
Y105010D01*
X233535D01*
Y104210D01*
X233935D01*
Y86100D02*
Y85700D01*
X234735D01*
Y86100D01*
X235135D01*
Y86900D01*
X234735D01*
Y87300D01*
X233935D01*
Y86900D01*
X233535D01*
Y86100D01*
X233935D01*
X261100D02*
Y85700D01*
X261900D01*
Y86100D01*
X262300D01*
Y86900D01*
X261900D01*
Y87300D01*
X261100D01*
Y86900D01*
X260700D01*
Y86100D01*
X261100D01*
Y104210D02*
Y103810D01*
X261900D01*
Y104210D01*
X262300D01*
Y105010D01*
X261900D01*
Y105410D01*
X261100D01*
Y105010D01*
X260700D01*
Y104210D01*
X261100D01*
X12200Y157200D02*
Y158800D01*
X13800D01*
Y157200D01*
X12200D01*
X268200Y12700D02*
Y14300D01*
X269800D01*
Y12700D01*
X268200D01*
X12700D02*
Y14300D01*
X14300D01*
Y12700D01*
X12700D01*
X268200Y157700D02*
Y159300D01*
X269800D01*
Y157700D01*
X268200D01*
X198700Y185000D02*
X199500Y185800D01*
X200300Y185000D01*
X199500Y184200D01*
X198700Y185000D01*
X245200D02*
X246000Y185800D01*
X246800Y185000D01*
X246000Y184200D01*
X245200Y185000D01*
X129200Y18700D02*
Y20300D01*
X130800D01*
Y18700D01*
X129200D01*
X129600Y19100D02*
Y19900D01*
X130400D01*
Y19100D01*
X129600D01*
X116200Y34700D02*
Y36300D01*
X117800D01*
Y34700D01*
X116200D01*
X116600Y35100D02*
Y35900D01*
X117400D01*
Y35100D01*
X116600D01*
X134700Y56700D02*
Y58300D01*
X136300D01*
Y56700D01*
X134700D01*
X135100Y57100D02*
Y57900D01*
X135900D01*
Y57100D01*
X135100D01*
X177200Y23700D02*
Y25300D01*
X178800D01*
Y23700D01*
X177200D01*
X177600Y24100D02*
Y24900D01*
X178400D01*
Y24100D01*
X177600D01*
X99700Y85700D02*
Y87300D01*
X101300D01*
Y85700D01*
X99700D01*
X100100Y86100D02*
Y86900D01*
X100900D01*
Y86100D01*
X100100D01*
X106200Y100200D02*
Y101800D01*
X107800D01*
Y100200D01*
X106200D01*
X106600Y100600D02*
Y101400D01*
X107400D01*
Y100600D01*
X106600D01*
X180700Y66700D02*
Y68300D01*
X182300D01*
Y66700D01*
X180700D01*
X181100Y67100D02*
Y67900D01*
X181900D01*
Y67100D01*
X181100D01*
X179700Y79200D02*
Y80800D01*
X181300D01*
Y79200D01*
X179700D01*
X180100Y79600D02*
Y80400D01*
X180900D01*
Y79600D01*
X180100D01*
X167200Y84200D02*
Y85800D01*
X168800D01*
Y84200D01*
X167200D01*
X167600Y84600D02*
Y85400D01*
X168400D01*
Y84600D01*
X167600D01*
X147200Y30700D02*
Y32300D01*
X148800D01*
Y30700D01*
X147200D01*
X147600Y31100D02*
Y31900D01*
X148400D01*
Y31100D01*
X147600D01*
X142200Y21700D02*
Y23300D01*
X143800D01*
Y21700D01*
X142200D01*
X142600Y22100D02*
Y22900D01*
X143400D01*
Y22100D01*
X142600D01*
X125200Y7700D02*
Y9300D01*
X126800D01*
Y7700D01*
X125200D01*
X125600Y8100D02*
Y8900D01*
X126400D01*
Y8100D01*
X125600D01*
X110050Y125850D02*
Y127450D01*
X111650D01*
Y125850D01*
X110050D01*
X110450Y126250D02*
Y127050D01*
X111250D01*
Y126250D01*
X110450D01*
X116700Y130200D02*
Y131800D01*
X118300D01*
Y130200D01*
X116700D01*
X117100Y130600D02*
Y131400D01*
X117900D01*
Y130600D01*
X117100D01*
X226700Y34700D02*
Y36300D01*
X228300D01*
Y34700D01*
X226700D01*
X227100Y35100D02*
Y35900D01*
X227900D01*
Y35100D01*
X227100D01*
X223700Y47581D02*
Y49181D01*
X225300D01*
Y47581D01*
X223700D01*
X224100Y47981D02*
Y48781D01*
X224900D01*
Y47981D01*
X224100D01*
X228200Y112700D02*
Y114300D01*
X229800D01*
Y112700D01*
X228200D01*
X228600Y113100D02*
Y113900D01*
X229400D01*
Y113100D01*
X228600D01*
X225700Y79700D02*
Y81300D01*
X227300D01*
Y79700D01*
X225700D01*
X226100Y80100D02*
Y80900D01*
X226900D01*
Y80100D01*
X226100D01*
X99450Y59450D02*
Y61050D01*
X101050D01*
Y59450D01*
X99450D01*
X99850Y59850D02*
Y60650D01*
X100650D01*
Y59850D01*
X99850D01*
X202200Y65450D02*
Y67050D01*
X203800D01*
Y65450D01*
X202200D01*
X202600Y65850D02*
Y66650D01*
X203400D01*
Y65850D01*
X202600D01*
X203472Y50200D02*
Y51800D01*
X205072D01*
Y50200D01*
X203472D01*
X203872Y50600D02*
Y51400D01*
X204672D01*
Y50600D01*
X203872D01*
X221200Y59200D02*
Y60800D01*
X222800D01*
Y59200D01*
X221200D01*
X221600Y59600D02*
Y60400D01*
X222400D01*
Y59600D01*
X221600D01*
X130200Y105700D02*
Y107300D01*
X131800D01*
Y105700D01*
X130200D01*
X130600Y106100D02*
Y106900D01*
X131400D01*
Y106100D01*
X130600D01*
X120700Y106200D02*
Y107800D01*
X122300D01*
Y106200D01*
X120700D01*
X121100Y106600D02*
Y107400D01*
X121900D01*
Y106600D01*
X121100D01*
X176200Y135700D02*
Y137300D01*
X177800D01*
Y135700D01*
X176200D01*
X176600Y136100D02*
Y136900D01*
X177400D01*
Y136100D01*
X176600D01*
X146200Y68200D02*
Y69800D01*
X147800D01*
Y68200D01*
X146200D01*
X146600Y68600D02*
Y69400D01*
X147400D01*
Y68600D01*
X146600D01*
X114762Y55700D02*
Y57300D01*
X116362D01*
Y55700D01*
X114762D01*
X115162Y56100D02*
Y56900D01*
X115962D01*
Y56100D01*
X115162D01*
X109200Y62200D02*
Y63800D01*
X110800D01*
Y62200D01*
X109200D01*
X109600Y62600D02*
Y63400D01*
X110400D01*
Y62600D01*
X109600D01*
X121700Y81200D02*
Y82800D01*
X123300D01*
Y81200D01*
X121700D01*
X122100Y81600D02*
Y82400D01*
X122900D01*
Y81600D01*
X122100D01*
X122700Y93700D02*
Y95300D01*
X124300D01*
Y93700D01*
X122700D01*
X123100Y94100D02*
Y94900D01*
X123900D01*
Y94100D01*
X123100D01*
X192200Y162200D02*
Y163800D01*
X193800D01*
Y162200D01*
X192200D01*
X192600Y162600D02*
Y163400D01*
X193400D01*
Y162600D01*
X192600D01*
X204700Y86700D02*
Y88300D01*
X206300D01*
Y86700D01*
X204700D01*
X205100Y87100D02*
Y87900D01*
X205900D01*
Y87100D01*
X205100D01*
X204700Y95200D02*
Y96800D01*
X206300D01*
Y95200D01*
X204700D01*
X205100Y95600D02*
Y96400D01*
X205900D01*
Y95600D01*
X205100D01*
X71200Y114200D02*
Y115800D01*
X72800D01*
Y114200D01*
X71200D01*
X71600Y114600D02*
Y115400D01*
X72400D01*
Y114600D01*
X71600D01*
X192200Y139700D02*
Y141300D01*
X193800D01*
Y139700D01*
X192200D01*
X192600Y140100D02*
Y140900D01*
X193400D01*
Y140100D01*
X192600D01*
X150700Y103700D02*
Y105300D01*
X152300D01*
Y103700D01*
X150700D01*
X151100Y104100D02*
Y104900D01*
X151900D01*
Y104100D01*
X151100D01*
X211700Y105996D02*
Y107596D01*
X213300D01*
Y105996D01*
X211700D01*
X212100Y106396D02*
Y107196D01*
X212900D01*
Y106396D01*
X212100D01*
X173950Y93200D02*
Y94800D01*
X175550D01*
Y93200D01*
X173950D01*
X174350Y93600D02*
Y94400D01*
X175150D01*
Y93600D01*
X174350D01*
X234169Y137759D02*
Y139359D01*
X235769D01*
Y137759D01*
X234169D01*
X234569Y138159D02*
Y138959D01*
X235368D01*
Y138159D01*
X234569D01*
X125200Y137200D02*
Y138800D01*
X126800D01*
Y137200D01*
X125200D01*
X125600Y137600D02*
Y138400D01*
X126400D01*
Y137600D01*
X125600D01*
X220700Y117700D02*
Y119300D01*
X222300D01*
Y117700D01*
X220700D01*
X221100Y118100D02*
Y118900D01*
X221900D01*
Y118100D01*
X221100D01*
X212700Y147200D02*
Y148800D01*
X214300D01*
Y147200D01*
X212700D01*
X213100Y147600D02*
Y148400D01*
X213900D01*
Y147600D01*
X213100D01*
D68*
X85044Y89500D02*
G03*
X85044Y89500I-800J0D01*
G01*
Y79500D02*
G03*
X85044Y79500I-800J0D01*
G01*
Y69500D02*
G03*
X85044Y69500I-800J0D01*
G01*
Y59500D02*
G03*
X85044Y59500I-800J0D01*
G01*
Y49500D02*
G03*
X85044Y49500I-800J0D01*
G01*
Y39500D02*
G03*
X85044Y39500I-800J0D01*
G01*
Y29500D02*
G03*
X85044Y29500I-800J0D01*
G01*
Y19500D02*
G03*
X85044Y19500I-800J0D01*
G01*
X213300Y30000D02*
G03*
X213300Y30000I-800J0D01*
G01*
Y40000D02*
G03*
X213300Y40000I-800J0D01*
G01*
Y50000D02*
G03*
X213300Y50000I-800J0D01*
G01*
Y60000D02*
G03*
X213300Y60000I-800J0D01*
G01*
Y70000D02*
G03*
X213300Y70000I-800J0D01*
G01*
Y80000D02*
G03*
X213300Y80000I-800J0D01*
G01*
Y90000D02*
G03*
X213300Y90000I-800J0D01*
G01*
Y100000D02*
G03*
X213300Y100000I-800J0D01*
G01*
X193800Y30000D02*
G03*
X193800Y30000I-800J0D01*
G01*
Y40000D02*
G03*
X193800Y40000I-800J0D01*
G01*
Y50000D02*
G03*
X193800Y50000I-800J0D01*
G01*
Y60000D02*
G03*
X193800Y60000I-800J0D01*
G01*
Y70000D02*
G03*
X193800Y70000I-800J0D01*
G01*
Y80000D02*
G03*
X193800Y80000I-800J0D01*
G01*
Y90000D02*
G03*
X193800Y90000I-800J0D01*
G01*
Y100000D02*
G03*
X193800Y100000I-800J0D01*
G01*
X136800Y117500D02*
G03*
X136800Y117500I-800J0D01*
G01*
X116800D02*
G03*
X116800Y117500I-800J0D01*
G01*
X126800D02*
G03*
X126800Y117500I-800J0D01*
G01*
X112300Y149000D02*
G03*
X112300Y149000I-800J0D01*
G01*
X122300D02*
G03*
X122300Y149000I-800J0D01*
G01*
X132300D02*
G03*
X132300Y149000I-800J0D01*
G01*
X142300D02*
G03*
X142300Y149000I-800J0D01*
G01*
X152300D02*
G03*
X152300Y149000I-800J0D01*
G01*
X162300D02*
G03*
X162300Y149000I-800J0D01*
G01*
X126800Y129000D02*
G03*
X126800Y129000I-800J0D01*
G01*
X136800D02*
G03*
X136800Y129000I-800J0D01*
G01*
X152300Y111500D02*
G03*
X152300Y111500I-800J0D01*
G01*
Y121500D02*
G03*
X152300Y121500I-800J0D01*
G01*
Y131500D02*
G03*
X152300Y131500I-800J0D01*
G01*
M02*
