G04*
G04 #@! TF.GenerationSoftware,Altium Limited,Altium Designer,19.1.5 (86)*
G04*
G04 Layer_Color=16711935*
%FSLAX25Y25*%
%MOIN*%
G70*
G01*
G75*
%ADD16R,0.05518X0.06306*%
%ADD17R,0.06306X0.05518*%
%ADD18R,0.05518X0.07487*%
%ADD19C,0.20085*%
%ADD20C,0.06306*%
%ADD21R,0.06306X0.06306*%
%ADD22R,0.10243X0.06699*%
%ADD23O,0.10243X0.06699*%
%ADD24R,0.06306X0.06306*%
%ADD25C,0.07093*%
%ADD26R,0.07093X0.07093*%
%ADD27C,0.10300*%
%ADD28C,0.08300*%
%ADD29C,0.06800*%
%ADD30R,0.20085X0.20085*%
%ADD31R,0.20085X0.20085*%
%ADD32C,0.35833*%
%ADD33C,0.06400*%
%ADD57R,0.02000X0.05800*%
%ADD58R,0.05800X0.02000*%
%ADD60R,0.06400X0.06400*%
%ADD61R,0.07487X0.05518*%
%ADD62R,0.22054X0.08274*%
%ADD63R,0.06800X0.06800*%
D16*
X44500Y127500D02*
D03*
X51193D02*
D03*
X96346Y107000D02*
D03*
X89653D02*
D03*
X92000Y139500D02*
D03*
X85307D02*
D03*
D17*
X247000Y45500D02*
D03*
Y52193D02*
D03*
X247500Y74154D02*
D03*
Y80847D02*
D03*
Y110500D02*
D03*
Y103807D02*
D03*
D18*
X115209Y138500D02*
D03*
X103791D02*
D03*
D19*
X37000Y24500D02*
D03*
Y84500D02*
D03*
D20*
X84244Y89500D02*
D03*
Y79500D02*
D03*
Y69500D02*
D03*
Y59500D02*
D03*
Y49500D02*
D03*
Y39500D02*
D03*
Y29500D02*
D03*
X212500Y40000D02*
D03*
Y50000D02*
D03*
Y60000D02*
D03*
Y70000D02*
D03*
Y80000D02*
D03*
Y90000D02*
D03*
Y100000D02*
D03*
X193000Y30000D02*
D03*
Y40000D02*
D03*
Y50000D02*
D03*
Y60000D02*
D03*
Y70000D02*
D03*
Y80000D02*
D03*
Y90000D02*
D03*
X116000Y117500D02*
D03*
X126000D02*
D03*
X121500Y149000D02*
D03*
X131500D02*
D03*
X141500D02*
D03*
X151500D02*
D03*
X161500D02*
D03*
X126000Y129000D02*
D03*
X151500Y121500D02*
D03*
Y131500D02*
D03*
D21*
X84244Y19500D02*
D03*
X212500Y30000D02*
D03*
X193000Y100000D02*
D03*
X151500Y111500D02*
D03*
D22*
X100500Y47000D02*
D03*
D23*
Y37000D02*
D03*
Y27000D02*
D03*
Y17000D02*
D03*
D24*
X136000Y117500D02*
D03*
X111500Y149000D02*
D03*
X136000Y129000D02*
D03*
D25*
X200500Y148500D02*
D03*
Y138500D02*
D03*
X228000Y128500D02*
D03*
Y138500D02*
D03*
D26*
X200500Y128500D02*
D03*
X228000Y148500D02*
D03*
D27*
X63000Y127500D02*
D03*
X33000D02*
D03*
D28*
X81890Y124835D02*
D03*
X100000D02*
D03*
Y152000D02*
D03*
X81890D02*
D03*
X261000Y128500D02*
D03*
X241000D02*
D03*
X234335Y46110D02*
D03*
Y28000D02*
D03*
X261500D02*
D03*
Y46110D02*
D03*
X234335Y75110D02*
D03*
Y57000D02*
D03*
X261500D02*
D03*
Y75110D02*
D03*
X234335Y104610D02*
D03*
Y86500D02*
D03*
X261500D02*
D03*
Y104610D02*
D03*
D29*
X181000Y130000D02*
D03*
X180500Y154000D02*
D03*
X247000Y145626D02*
D03*
D30*
X13000Y158000D02*
D03*
X269000Y13500D02*
D03*
Y158500D02*
D03*
D31*
X13500Y13500D02*
D03*
D32*
X199500Y185000D02*
D03*
X246000D02*
D03*
D33*
X130000Y19500D02*
D03*
X117000Y35500D02*
D03*
X135500Y57500D02*
D03*
X178000Y24500D02*
D03*
X100500Y86500D02*
D03*
X107000Y101000D02*
D03*
X181500Y67500D02*
D03*
X180500Y80000D02*
D03*
X168000Y85000D02*
D03*
X148000Y31500D02*
D03*
X143000Y22500D02*
D03*
X126000Y8500D02*
D03*
X110850Y126650D02*
D03*
X117500Y131000D02*
D03*
X227500Y35500D02*
D03*
X224500Y48381D02*
D03*
X229000Y113500D02*
D03*
X226500Y80500D02*
D03*
X100250Y60250D02*
D03*
X203000Y66250D02*
D03*
X204272Y51000D02*
D03*
X222000Y60000D02*
D03*
X131000Y106500D02*
D03*
X121500Y107000D02*
D03*
X177000Y136500D02*
D03*
X147000Y69000D02*
D03*
X115562Y56500D02*
D03*
X110000Y63000D02*
D03*
X122500Y82000D02*
D03*
X123500Y94500D02*
D03*
X193000Y163000D02*
D03*
X205500Y87500D02*
D03*
Y96000D02*
D03*
X72000Y115000D02*
D03*
X193000Y140500D02*
D03*
X151500Y104500D02*
D03*
X212500Y106796D02*
D03*
X174750Y94000D02*
D03*
X234968Y138559D02*
D03*
X126000Y138000D02*
D03*
X221500Y118500D02*
D03*
X213500Y148000D02*
D03*
D57*
X130476Y79200D02*
D03*
X133626D02*
D03*
X136776D02*
D03*
X139925D02*
D03*
X143075D02*
D03*
X146224D02*
D03*
X149374D02*
D03*
X152524D02*
D03*
Y46800D02*
D03*
X149374D02*
D03*
X146224D02*
D03*
X143075D02*
D03*
X139925D02*
D03*
X136776D02*
D03*
X133626D02*
D03*
X130476D02*
D03*
D58*
X157700Y74024D02*
D03*
Y70874D02*
D03*
Y67724D02*
D03*
Y64575D02*
D03*
Y61425D02*
D03*
Y58276D02*
D03*
Y55126D02*
D03*
Y51976D02*
D03*
X125300D02*
D03*
Y55126D02*
D03*
Y58276D02*
D03*
Y61425D02*
D03*
Y64575D02*
D03*
Y67724D02*
D03*
Y70874D02*
D03*
Y74024D02*
D03*
D60*
X247500Y95500D02*
D03*
X260500D02*
D03*
X247000Y66000D02*
D03*
X260000D02*
D03*
X246500Y37000D02*
D03*
X259500D02*
D03*
D61*
X75500Y34000D02*
D03*
Y22583D02*
D03*
X108500Y84209D02*
D03*
Y72791D02*
D03*
X75500Y42500D02*
D03*
Y53917D02*
D03*
D62*
X69201Y142500D02*
D03*
X31799D02*
D03*
D63*
X181000Y122126D02*
D03*
X180500Y144000D02*
D03*
X247000Y153500D02*
D03*
M02*
