M48
;Layer_Color=9474304
;FILE_FORMAT=2:5
INCH,LZ
;TYPE=PLATED
T1F00S00C0.02362
T2F00S00C0.03200
T3F00S00C0.03543
T4F00S00C0.03937
T5F00S00C0.04000
T6F00S00C0.04331
T7F00S00C0.05200
T8F00S00C0.11811
T9F00S00C0.23622
%
T01
X0126Y00085
X013Y00195
X0143Y00225
X0178Y00245
X0148Y00315
X0117Y00355
X0115562Y00565
X011Y0063
X010025Y006025
X01005Y00865
X0107Y0101
X01215Y0107
X0131Y01065
X01235Y00945
X01225Y0082
X01355Y00575
X0147Y0069
X01815Y00675
X01805Y008
X0168Y0085
X017475Y0094
X02055Y0096
Y00875
X0203Y006625
X0204272Y0051
X02245Y0048381
X0222Y006
X02125Y0106796
X02215Y01185
X02135Y0148
X0193Y01405
X0177Y01365
X0193Y0163
X0126Y0138
X01175Y0131
X011085Y012665
X0072Y0115
X01515Y01045
X0229Y01135
X0234968Y0138559
X02265Y00805
X02275Y00355
T02
X0181Y0122126
Y013
X01805Y0144
Y0154
X0247Y01535
Y0145626
T03
X0084244Y00195
Y00295
Y00395
Y00495
Y00595
Y00695
Y00795
Y00895
X0116Y01175
X0126
X0136
Y0129
X0126
X01215Y0149
X01115
X01315
X01415
X01515
X01615
X01515Y01315
Y01215
Y01115
X0193Y01
Y009
Y008
Y007
Y006
Y005
Y004
Y003
X02125
Y004
Y005
Y006
Y007
Y008
Y009
Y01
T04
X01005Y0017
Y0027
Y0037
Y0047
T05
X008189Y0124835
X01
Y0152
X008189
X0241Y01285
X0261
X02615Y010461
Y00865
Y007511
Y0057
Y004611
Y0028
X0234335
Y004611
Y0057
Y007511
Y00865
Y010461
T06
X02005Y01285
Y01385
Y01485
X0228
Y01385
Y01285
T07
X0033Y01275
X0063
T08
X0269Y00135
X0037Y00245
X00135Y00135
X0037Y00845
X0013Y0158
X0269Y01585
T09
X0246Y0185
X01995
M30
