G04*
G04 #@! TF.GenerationSoftware,Altium Limited,Altium Designer,19.1.5 (86)*
G04*
G04 Layer_Color=32896*
%FSLAX25Y25*%
%MOIN*%
G70*
G01*
G75*
%ADD10C,0.00800*%
%ADD11C,0.00787*%
%ADD12C,0.01000*%
%ADD64C,0.00984*%
%ADD65C,0.00600*%
%ADD66C,0.00300*%
G36*
X121400Y66974D02*
Y68474D01*
X120400D01*
Y66974D01*
X121400D01*
D02*
G37*
G36*
X142325Y42900D02*
Y41900D01*
X143825D01*
Y42900D01*
X142325D01*
D02*
G37*
G36*
X161600Y70124D02*
Y71624D01*
X162600D01*
Y70124D01*
X161600D01*
D02*
G37*
D10*
X181084Y111181D02*
Y114180D01*
X182583Y112681D02*
X179584D01*
X180584Y134315D02*
Y137314D01*
X182083Y135814D02*
X179084D01*
X246916Y164445D02*
Y161446D01*
X245417Y162945D02*
X248416D01*
D11*
X191563Y126063D02*
G03*
X191563Y126063I-10563J0D01*
G01*
X180500Y139000D02*
G03*
X190500Y149000I0J10000D01*
G01*
D02*
G03*
X180500Y159000I-10000J0D01*
G01*
D02*
G03*
X170500Y149000I0J-10000D01*
G01*
D02*
G03*
X180500Y139000I10000J0D01*
G01*
X257563Y149563D02*
G03*
X257563Y149563I-10563J0D01*
G01*
X72350Y26717D02*
Y29866D01*
X78650Y26717D02*
Y29866D01*
X207500Y105984D02*
X217500D01*
X207500Y23984D02*
Y105984D01*
Y23984D02*
X217500D01*
Y105984D01*
X40760Y124941D02*
Y130059D01*
X244441Y55933D02*
X249559D01*
X244941Y84587D02*
X250059D01*
X109961Y122388D02*
X110001Y122500D01*
X109961Y112500D02*
X142693D01*
X109961D02*
Y122388D01*
X110001Y122500D02*
X142693D01*
Y112500D02*
Y122500D01*
X100087Y104441D02*
Y109559D01*
X193532Y161335D02*
X213453D01*
X193532Y115547D02*
X213453D01*
X193532D02*
Y161335D01*
X213453Y115547D02*
Y161335D01*
X209752Y115547D02*
Y161335D01*
X167799Y144000D02*
Y154000D01*
X104807Y144000D02*
Y154000D01*
Y144000D02*
X167799D01*
X104807Y154000D02*
X167799D01*
X28059Y132854D02*
Y135807D01*
X72941Y149193D02*
Y152146D01*
X28059D02*
X72941D01*
X28059Y149193D02*
Y152146D01*
X72941Y132854D02*
Y135807D01*
X28059Y132854D02*
X72941D01*
X105350Y76925D02*
Y80075D01*
X111650Y76925D02*
Y80075D01*
X78650Y46634D02*
Y49784D01*
X72350Y46634D02*
Y49784D01*
X263500Y133000D02*
Y134750D01*
X238500Y122250D02*
Y124000D01*
Y122250D02*
X263500D01*
Y124000D01*
X238500Y134750D02*
X263500D01*
X238500Y133000D02*
Y134750D01*
X215047Y115665D02*
X234968D01*
X215047Y161453D02*
X234968D01*
Y115665D02*
Y161453D01*
X215047Y115665D02*
Y161453D01*
X218748Y115665D02*
Y161453D01*
X95740Y136941D02*
Y142059D01*
X107925Y141650D02*
X111075D01*
X107925Y135350D02*
X111075D01*
X244941Y114240D02*
X250059D01*
D12*
X108020Y17000D02*
X110500D01*
X90500Y12000D02*
Y52000D01*
Y12000D02*
X110500D01*
Y52000D01*
X90500D02*
X110500D01*
X92980Y12000D02*
Y52000D01*
X108020Y17000D02*
Y47000D01*
X110500D01*
X252668Y12998D02*
X256000D01*
Y8000D01*
X252668D01*
X256000Y10499D02*
X254334D01*
X247669Y12165D02*
X248502Y12998D01*
X250169D01*
X251002Y12165D01*
Y11332D01*
X250169Y10499D01*
X248502D01*
X247669Y9666D01*
Y8833D01*
X248502Y8000D01*
X250169D01*
X251002Y8833D01*
X242671Y12998D02*
X246003D01*
Y8000D01*
X242671D01*
X246003Y10499D02*
X244337D01*
X238506Y12998D02*
X240172D01*
X241005Y12165D01*
Y8833D01*
X240172Y8000D01*
X238506D01*
X237673Y8833D01*
Y12165D01*
X238506Y12998D01*
X231008Y10499D02*
X227676D01*
X217679Y8000D02*
X221011D01*
X217679Y11332D01*
Y12165D01*
X218512Y12998D01*
X220178D01*
X221011Y12165D01*
X216013D02*
X215180Y12998D01*
X213514D01*
X212681Y12165D01*
Y8833D01*
X213514Y8000D01*
X215180D01*
X216013Y8833D01*
Y12165D01*
X207682Y8000D02*
X211015D01*
X207682Y11332D01*
Y12165D01*
X208515Y12998D01*
X210181D01*
X211015Y12165D01*
X202684Y12998D02*
X206016D01*
Y10499D01*
X204350Y11332D01*
X203517D01*
X202684Y10499D01*
Y8833D01*
X203517Y8000D01*
X205183D01*
X206016Y8833D01*
X277498Y29500D02*
Y32832D01*
Y31166D01*
X272500D01*
Y34498D02*
Y36165D01*
Y35331D01*
X275832D01*
Y34498D01*
Y41996D02*
Y39497D01*
X274999Y38664D01*
X273333D01*
X272500Y39497D01*
Y41996D01*
X276665Y44495D02*
X275832D01*
Y43662D01*
Y45328D01*
Y44495D01*
X273333D01*
X272500Y45328D01*
X275832Y48660D02*
Y50327D01*
X274999Y51160D01*
X272500D01*
Y48660D01*
X273333Y47827D01*
X274166Y48660D01*
Y51160D01*
X275832Y56158D02*
Y53659D01*
X274999Y52826D01*
X273333D01*
X272500Y53659D01*
Y56158D01*
X275999Y58000D02*
Y59999D01*
X274500Y63998D02*
X277499D01*
Y65498D01*
X276999Y65997D01*
X275999D01*
X275500Y65498D01*
Y63998D01*
X274500Y66997D02*
X276499D01*
X277499Y67997D01*
X276499Y68996D01*
X274500D01*
X275999D01*
Y66997D01*
X276999Y71996D02*
X277499Y71496D01*
Y70496D01*
X276999Y69996D01*
X275000D01*
X274500Y70496D01*
Y71496D01*
X275000Y71996D01*
X275999D01*
Y70996D01*
X277499Y74994D02*
Y72995D01*
X274500D01*
Y74994D01*
X275999Y72995D02*
Y73995D01*
X277499Y75994D02*
Y77994D01*
Y76994D01*
X274500D01*
X275999Y78993D02*
Y80993D01*
X274500Y81992D02*
X277499D01*
X276499Y82992D01*
X277499Y83992D01*
X274500D01*
X277499Y84991D02*
Y85991D01*
Y85491D01*
X274500D01*
Y84991D01*
Y85991D01*
X277499Y88990D02*
Y87990D01*
X276999Y87490D01*
X275000D01*
X274500Y87990D01*
Y88990D01*
X275000Y89490D01*
X276999D01*
X277499Y88990D01*
Y90490D02*
Y92489D01*
Y91489D01*
X274500D01*
X275999Y93489D02*
Y95488D01*
Y96487D02*
Y98487D01*
X276999Y101486D02*
X277499Y100986D01*
Y99986D01*
X276999Y99487D01*
X276499D01*
X275999Y99986D01*
Y100986D01*
X275500Y101486D01*
X275000D01*
X274500Y100986D01*
Y99986D01*
X275000Y99487D01*
X274500Y102486D02*
X276499D01*
X277499Y103485D01*
X276499Y104485D01*
X274500D01*
X275999D01*
Y102486D01*
X277499Y105485D02*
X274500D01*
Y107484D01*
X277499Y108484D02*
X274500D01*
Y110483D01*
X277499Y113482D02*
Y111483D01*
X274500D01*
Y113482D01*
X275999Y111483D02*
Y112482D01*
X276999Y116481D02*
X277499Y115981D01*
Y114982D01*
X276999Y114482D01*
X276499D01*
X275999Y114982D01*
Y115981D01*
X275500Y116481D01*
X275000D01*
X274500Y115981D01*
Y114982D01*
X275000Y114482D01*
X274500Y120480D02*
X277499D01*
X276499Y121479D01*
X277499Y122479D01*
X274500D01*
Y123479D02*
Y124478D01*
Y123979D01*
X276499D01*
Y123479D01*
X274500Y125978D02*
Y126978D01*
Y126478D01*
X277499D01*
Y125978D01*
X274500Y128977D02*
Y129977D01*
X275000Y130476D01*
X275999D01*
X276499Y129977D01*
Y128977D01*
X275999Y128477D01*
X275000D01*
X274500Y128977D01*
X276499Y131476D02*
X274500Y132476D01*
X276499Y133476D01*
Y134975D02*
Y135975D01*
X275999Y136475D01*
X274500D01*
Y134975D01*
X275000Y134475D01*
X275500Y134975D01*
Y136475D01*
X274500Y137474D02*
X276499D01*
Y138974D01*
X275999Y139474D01*
X274500D01*
X270000Y57999D02*
Y59998D01*
X268500Y63997D02*
X271499D01*
Y65497D01*
X270999Y65996D01*
X270000D01*
X269500Y65497D01*
Y63997D01*
X271499Y66996D02*
Y67996D01*
Y67496D01*
X268500D01*
Y66996D01*
Y67996D01*
Y69495D02*
X271499D01*
X268500Y71495D01*
X271499D01*
Y74494D02*
Y72494D01*
X268500D01*
Y74494D01*
X270000Y72494D02*
Y73494D01*
X268500Y75493D02*
X270499D01*
X271499Y76493D01*
X270499Y77493D01*
X268500D01*
X270000D01*
Y75493D01*
X271499Y78492D02*
X269000D01*
X268500Y78992D01*
Y79992D01*
X269000Y80492D01*
X271499D01*
Y84491D02*
Y86490D01*
Y85490D01*
X268500D01*
X271499Y87489D02*
X268500D01*
X270000D01*
X270499Y87989D01*
Y88989D01*
X270000Y89489D01*
X268500D01*
Y90988D02*
Y91988D01*
X269000Y92488D01*
X270000D01*
X270499Y91988D01*
Y90988D01*
X270000Y90488D01*
X269000D01*
X268500Y90988D01*
Y93488D02*
X270499D01*
Y93987D01*
X270000Y94487D01*
X268500D01*
X270000D01*
X270499Y94987D01*
X270000Y95487D01*
X268500D01*
X270499Y96986D02*
Y97986D01*
X270000Y98486D01*
X268500D01*
Y96986D01*
X269000Y96487D01*
X269500Y96986D01*
Y98486D01*
X268500Y99486D02*
Y100985D01*
X269000Y101485D01*
X269500Y100985D01*
Y99985D01*
X270000Y99486D01*
X270499Y99985D01*
Y101485D01*
X217500Y111000D02*
Y113999D01*
X216001D01*
X215501Y113499D01*
Y112499D01*
X216001Y112000D01*
X217500D01*
X214501Y111000D02*
Y113999D01*
X212502Y111000D01*
Y113999D01*
X209503D02*
X211502D01*
Y112499D01*
X210502Y112999D01*
X210002D01*
X209503Y112499D01*
Y111500D01*
X210002Y111000D01*
X211002D01*
X211502Y111500D01*
X208503Y113499D02*
X208003Y113999D01*
X207003D01*
X206504Y113499D01*
Y112999D01*
X207003Y112499D01*
X207503D01*
X207003D01*
X206504Y112000D01*
Y111500D01*
X207003Y111000D01*
X208003D01*
X208503Y111500D01*
X203504Y111000D02*
X205504D01*
X203504Y112999D01*
Y113499D01*
X204004Y113999D01*
X205004D01*
X205504Y113499D01*
X138000Y124499D02*
Y121500D01*
Y123000D01*
X136001D01*
Y124499D01*
Y121500D01*
X135001Y124499D02*
Y121500D01*
X134001Y122500D01*
X133002Y121500D01*
Y124499D01*
X132002Y123999D02*
X131502Y124499D01*
X130502D01*
X130003Y123999D01*
Y123499D01*
X130502Y123000D01*
X130003Y122500D01*
Y122000D01*
X130502Y121500D01*
X131502D01*
X132002Y122000D01*
Y122500D01*
X131502Y123000D01*
X132002Y123499D01*
Y123999D01*
X131502Y123000D02*
X130502D01*
X127004Y121500D02*
X129003D01*
X127004Y123499D01*
Y123999D01*
X127503Y124499D01*
X128503D01*
X129003Y123999D01*
X126004Y124499D02*
X124004D01*
Y123999D01*
X126004Y122000D01*
Y121500D01*
X105000Y77002D02*
Y82000D01*
X106000Y83000D01*
X107999D01*
X108999Y82000D01*
Y77002D01*
X114997Y79001D02*
X111998D01*
X110998Y80001D01*
Y82000D01*
X111998Y83000D01*
X114997D01*
X54001Y157000D02*
Y160998D01*
X55001Y161998D01*
X57000D01*
X58000Y160998D01*
Y157000D01*
X57000Y156000D01*
X55001D01*
X56001Y157999D02*
X54001Y156000D01*
X55001D02*
X54001Y157000D01*
X52002Y159999D02*
X48003D01*
X52002Y156000D01*
X48003D01*
X46004Y160998D02*
X45004Y161998D01*
X43005D01*
X42005Y160998D01*
Y159999D01*
X43005Y158999D01*
X42005Y157999D01*
Y157000D01*
X43005Y156000D01*
X45004D01*
X46004Y157000D01*
Y157999D01*
X45004Y158999D01*
X46004Y159999D01*
Y160998D01*
X45004Y158999D02*
X43005D01*
X106000Y53000D02*
Y55999D01*
X104500D01*
X104001Y55499D01*
Y54500D01*
X104500Y54000D01*
X106000D01*
X103001Y54999D02*
Y53000D01*
Y54000D01*
X102501Y54500D01*
X102001Y54999D01*
X101501D01*
X99502Y53000D02*
X98502D01*
X98003Y53500D01*
Y54500D01*
X98502Y54999D01*
X99502D01*
X100002Y54500D01*
Y53500D01*
X99502Y53000D01*
X96003Y52000D02*
X95503D01*
X95004Y52500D01*
Y54999D01*
X96503D01*
X97003Y54500D01*
Y53500D01*
X96503Y53000D01*
X95004D01*
X51501Y110499D02*
X52000Y110999D01*
X53000D01*
X53500Y110499D01*
Y108500D01*
X53000Y108000D01*
X52000D01*
X51501Y108500D01*
X48502Y107000D02*
Y109999D01*
X50001D01*
X50501Y109500D01*
Y108500D01*
X50001Y108000D01*
X48502D01*
X47502Y109999D02*
X45503D01*
X47502Y108000D01*
X45503D01*
X44503D02*
X43503D01*
X44003D01*
Y110999D01*
X44503Y110499D01*
X121000Y158499D02*
Y155500D01*
Y157000D01*
X119001D01*
Y158499D01*
Y155500D01*
X116002Y157999D02*
X116501Y158499D01*
X117501D01*
X118001Y157999D01*
Y156000D01*
X117501Y155500D01*
X116501D01*
X116002Y156000D01*
X115002Y157000D02*
X113003D01*
X112003Y157999D02*
X111503Y158499D01*
X110503D01*
X110004Y157999D01*
Y156000D01*
X110503Y155500D01*
X111503D01*
X112003Y156000D01*
Y157999D01*
X107004Y158499D02*
X109004D01*
Y157000D01*
X108004Y157499D01*
X107504D01*
X107004Y157000D01*
Y156000D01*
X107504Y155500D01*
X108504D01*
X109004Y156000D01*
D64*
X32291Y148799D02*
G03*
X32291Y148799I-492J0D01*
G01*
D65*
X264035Y91957D02*
Y99043D01*
X243957Y91957D02*
X264035D01*
X243957D02*
Y99043D01*
X264035D01*
X263535Y62457D02*
Y69543D01*
X243457Y62457D02*
X263535D01*
X243457D02*
Y69543D01*
X263535D01*
X263035Y33457D02*
Y40543D01*
X242957Y33457D02*
X263035D01*
X242957D02*
Y40543D01*
X263035D01*
D66*
X125736Y85850D02*
X129069Y82518D01*
Y85850D02*
X125736Y82518D01*
X127402Y85850D02*
Y82518D01*
X129069Y84184D02*
X125736D01*
M02*
